<?xml version="1.0" standalone="no"?>
<!DOCTYPE svg PUBLIC "-//W3C//DTD SVG 1.1//EN" "http://www.w3.org/Graphics/SVG/1.1/DTD/svg11.dtd" >
<svg>
<metadata>
Created by FontForge 20110222 at Thu Aug 21 10:32:51 2014
 By Orthosie Webhosting
Copyright (c) 2001-2005 Peter Bilak (www.typotheque.com). All rights reserved.
</metadata>
<defs>
<font id="FedraSansStdLightItalic" horiz-adv-x="420" >
  <font-face 
    font-family="FedraSansStdLightItalic"
    font-weight="300"
    font-style="italic"
    font-stretch="normal"
    units-per-em="1000"
    panose-1="2 11 3 4 4 0 0 9 0 4"
    ascent="780"
    descent="-220"
    x-height="546"
    cap-height="707"
    bbox="-246 -284 1286 951"
    underline-thickness="50"
    underline-position="-50"
    slope="-6"
    unicode-range="U+0020-FE69"
  />
<missing-glyph horiz-adv-x="712" 
d="M305 375v27h27v-27h-27zM380 525v27h27v-27h-27zM305 525v27h27v-27h-27zM230 525v27h27v-27h-27zM80 0v27h27v-27h-27zM155 0v27h27v-27h-27zM230 0v27h27v-27h-27zM305 0v27h27v-27h-27zM380 0v27h27v-27h-27zM80 75v27h27v-27h-27zM80 150v27h27v-27h-27zM80 225v27
h27v-27h-27zM80 300v27h27v-27h-27zM80 375v27h27v-27h-27zM80 450v27h27v-27h-27zM80 525v27h27v-27h-27zM80 600v27h27v-27h-27zM80 675v27h27v-27h-27zM155 675v27h27v-27h-27zM230 675v27h27v-27h-27zM305 675v27h27v-27h-27zM380 675v27h27v-27h-27zM455 675v27h27v-27
h-27zM530 675v27h27v-27h-27zM530 0v27h27v-27h-27zM455 0v27h27v-27h-27zM605 0v27h27v-27h-27zM605 675v27h27v-27h-27zM305 300v27h27v-27h-27zM305 150v27h27v-27h-27zM380 375v27h27v-27h-27zM455 375v27h27v-27h-27zM455 450v27h27v-27h-27zM455 525v27h27v-27h-27z
M605 600v27h27v-27h-27zM605 525v27h27v-27h-27zM605 375v27h27v-27h-27zM605 300v27h27v-27h-27zM605 150v27h27v-27h-27zM605 75v27h27v-27h-27zM605 225v27h27v-27h-27zM605 450v27h27v-27h-27z" />
    <glyph glyph-name="f_f" unicode="ff" horiz-adv-x="617" 
d="M55 -220l75 716h-80l5 50h80l6 55q6 53 27.5 89.5t55.5 53.5t67.5 23.5t74.5 6.5q81 0 151 -25q51 25 135 25q20 0 53.5 -6t38.5 -9l-15 -45q2 -1 -2 0q-1 0 -5 1q-53 10 -82 10q-148 0 -160 -125l-6 -54h119l-5 -50h-119l-75 -716h-54l76 716h-233l-75 -716h-53z
M188 546h233l6 55q6 65 36 110q-60 14 -108 14q-149 0 -161 -125z" />
    <glyph glyph-name="fi" unicode="fi" horiz-adv-x="573" 
d="M54 -219l75 715h-80l6 50h80l3 28q12 111 62 155.5t131 44.5q15 0 71 -3.5t87 -3.5q11 0 26 2t18 2l8 -41q-32 -12 -92 -12q-27 0 -71 3t-54 3q-65 0 -94 -39t-37 -113l-3 -26h291l-58 -546h-56l52 496h-234l-75 -715h-56z" />
    <glyph glyph-name="fl" unicode="fl" horiz-adv-x="557" 
d="M54 -220l75 716h-80l6 50h80l3 28q12 111 62 155.5t131 44.5q18 0 70 -4t80 -4h11.5t11.5 1l-81 -767h-56l76 720q-22 -1 -66 1.5t-53 2.5q-65 0 -94 -39t-37 -113l-3 -26h117l-6 -50h-116l-75 -716h-56z" />
    <glyph glyph-name="f_f_i" unicode="ffi" horiz-adv-x="816" 
d="M55 -220l75 716h-80l5 50h80l6 55q6 53 27.5 89.5t55.5 53.5t67.5 23.5t74.5 6.5q20 0 79 -10.5t69 -13.5q47 24 103 24q15 0 71 -2.5t87 -2.5q16 0 44 2l3 -42q-29 -11 -87 -11q-25 1 -69 3.5t-56 2.5q-65 0 -94.5 -39t-36.5 -113l-3 -26h291l-58 -546h-56l52 496h-234
l-75 -716h-56l75 716h-232l-75 -716h-53zM188 546h233l3 28q9 84 41 136q-75 15 -111 15q-148 0 -160 -125z" />
    <glyph glyph-name="f_f_l" unicode="ffl" horiz-adv-x="843" 
d="M55 -220l75 716h-80l5 50h80l6 55q6 53 27.5 89.5t55.5 53.5t67.5 23.5t74.5 6.5q55 0 147 -25q43 25 104 25q18 0 70 -4t80 -4h12.5t10.5 1l-80 -767h-56l76 720q-22 -1 -66 1.5t-53 2.5q-65 0 -94.5 -39t-36.5 -113l-3 -26h116l-5 -50h-116l-75 -716h-56l75 716h-233
l-75 -716h-53zM188 546h233l3 28q9 82 42 135q-75 16 -111 16q-149 0 -161 -125z" />
    <glyph glyph-name="f_k" unicode="fk" horiz-adv-x="777" 
d="M55 -219l75 715h-80l5 50h80l3 28q12 111 62 155.5t131 44.5q18 0 70 -4t80 -4q16 0 23 1l-80 -767h-56l76 720q-22 -1 -66 1.5t-53 2.5q-65 0 -94.5 -39t-36.5 -113l-3 -26h116l-5 -50h-116l-75 -715h-56zM689 -17l-201 308l203 255h69l-203 -255l185 -278z" />
    <glyph glyph-name="f_h" unicode="fh" horiz-adv-x="841" 
d="M54 -220l75 716h-80l6 50h80l3 28q11 111 61 155.5t132 44.5q18 0 70 -4t80 -4h11.5t11.5 1l-33 -321q3 2 24.5 19t33 25.5t34.5 24t39.5 23.5t37 15t36.5 7q51 0 70 -19.5t19 -63.5q0 -25 -7 -83l-42 -394h-56l42 381q6 68 6 78q0 28 -11.5 39t-43.5 11q-18 0 -56.5 -24
t-84 -58t-47.5 -35l-42 -392h-55l74 718q-21 -1 -62.5 2.5t-55.5 3.5q-65 0 -94.5 -39t-36.5 -113l-3 -26h117l-6 -50h-116l-75 -716h-56z" />
    <glyph glyph-name="f_j" unicode="fj" horiz-adv-x="532" 
d="M226 -220q-37 0 -57 9l15 46q12 -4 53 -4q64 0 92.5 38.5t36.5 110.5l54 516h-234l-75 -715h-56l75 715h-80l5 50h80l3 28q12 111 62 155.5t131 44.5q15 0 70.5 -2.5t87.5 -2.5q16 0 44 2l3 -42q-28 -11 -86 -11q-26 1 -69.5 3.5t-55.5 2.5q-66 0 -95 -39t-36 -113
l-3 -26h291l-60 -568q-21 -198 -196 -198z" />
    <glyph glyph-name="aogonek_j" unicode="&#x105;j" horiz-adv-x="763" 
d="M377 -224q-133 0 -133 105q0 36 27 70t67 57l11 99q-67 -61 -115 -90.5t-88 -29.5q-50 0 -76 44t-26 115q0 64 21.5 133.5t60 130.5t100.5 100.5t134 39.5q57 0 90 -7l-57 -543q-34 -19 -63.5 -50.5t-29.5 -60.5q0 -64 81 -64q83 0 129 37t55 126l59 558h56l-60 -568
q-6 -58 -31 -99.5t-61.5 -62.5t-73.5 -30.5t-77 -9.5zM158 42q34 0 97 47t100 84l35 325q-9 2 -41 2q-58 0 -107 -35t-78.5 -88.5t-46 -112.5t-16.5 -112q0 -49 14.5 -79.5t42.5 -30.5zM663 663l-49 53l61 52l51 -52z" />
    <glyph glyph-name="f_f_j" unicode="ffj" horiz-adv-x="816" 
d="M55 -220l75 716h-80l5 50h80l6 55q6 53 27.5 89.5t55.5 53.5t67.5 23.5t74.5 6.5q20 0 79 -10.5t69 -13.5q47 24 103 24q15 0 71 -2.5t87 -2.5q16 0 44 2l3 -42q-29 -11 -87 -11q-25 1 -69 3.5t-56 2.5q-65 0 -94.5 -39t-36.5 -113l-3 -26h291l-60 -568
q-11 -108 -59.5 -153t-127.5 -45q-35 0 -62 10l13 51q33 -10 60 -10q63 0 87.5 37t32.5 111l54 517h-234l-75 -716h-56l75 716h-232l-75 -716h-53zM188 546h233l3 28q9 84 41 136q-75 15 -111 15q-148 0 -160 -125z" />
    <glyph glyph-name="f_b" unicode="fb" horiz-adv-x="835" 
d="M502 -7q-62 0 -132 21l74 706q-22 -1 -66.5 1.5t-53.5 2.5q-65 0 -94 -39t-37 -113l-3 -26h117l-6 -50h-116l-75 -716h-56l75 716h-80l6 50h80l3 28q12 111 62 155.5t131 44.5q18 0 70 -4t80 -4h12.5t11.5 1l-32 -306q2 2 16 11t18.5 11.5t18 11t20 11.5t19.5 10t21.5 10
t21.5 8t23 7t22.5 3.5t24.5 1.5q115 0 115 -155q0 -54 -10.5 -108.5t-34 -107t-56.5 -93t-82.5 -65t-107.5 -24.5zM509 43q50 0 90 24t65 61t41.5 85t23 92.5t6.5 86.5q0 60 -17.5 81.5t-53.5 21.5q-70 0 -198 -88l-37 -352q48 -12 80 -12z" />
    <glyph glyph-name=".notdef" horiz-adv-x="712" 
d="M305 375v27h27v-27h-27zM380 525v27h27v-27h-27zM305 525v27h27v-27h-27zM230 525v27h27v-27h-27zM80 0v27h27v-27h-27zM155 0v27h27v-27h-27zM230 0v27h27v-27h-27zM305 0v27h27v-27h-27zM380 0v27h27v-27h-27zM80 75v27h27v-27h-27zM80 150v27h27v-27h-27zM80 225v27
h27v-27h-27zM80 300v27h27v-27h-27zM80 375v27h27v-27h-27zM80 450v27h27v-27h-27zM80 525v27h27v-27h-27zM80 600v27h27v-27h-27zM80 675v27h27v-27h-27zM155 675v27h27v-27h-27zM230 675v27h27v-27h-27zM305 675v27h27v-27h-27zM380 675v27h27v-27h-27zM455 675v27h27v-27
h-27zM530 675v27h27v-27h-27zM530 0v27h27v-27h-27zM455 0v27h27v-27h-27zM605 0v27h27v-27h-27zM605 675v27h27v-27h-27zM305 300v27h27v-27h-27zM305 150v27h27v-27h-27zM380 375v27h27v-27h-27zM455 375v27h27v-27h-27zM455 450v27h27v-27h-27zM455 525v27h27v-27h-27z
M605 600v27h27v-27h-27zM605 525v27h27v-27h-27zM605 375v27h27v-27h-27zM605 300v27h27v-27h-27zM605 150v27h27v-27h-27zM605 75v27h27v-27h-27zM605 225v27h27v-27h-27zM605 450v27h27v-27h-27z" />
    <glyph glyph-name=".null" horiz-adv-x="0" 
 />
    <glyph glyph-name="nonmarkingreturn" horiz-adv-x="333" 
 />
    <glyph glyph-name="space" unicode=" " horiz-adv-x="200" 
 />
    <glyph glyph-name="exclam" unicode="!" horiz-adv-x="271" 
d="M118 159l11 126l45 422h54l-45 -422l-15 -126h-50zM92 0l7 71h69l-7 -71h-69z" />
    <glyph glyph-name="quotedbl" unicode="&#x22;" horiz-adv-x="309" 
d="M77 515l22 238h51l-30 -238h-43zM235 515l22 238h51l-30 -238h-43z" />
    <glyph glyph-name="numbersign" unicode="#" horiz-adv-x="577" 
d="M101 0l26 164h-90l6 50h92l23 141h-100l5 50h103l25 162h53l-25 -162h183l25 162h53l-25 -162h85l-5 -50h-88l-23 -141h96l-6 -50h-98l-26 -164h-53l26 164h-183l-26 -164h-53zM188 214h183l23 141h-183z" />
    <glyph glyph-name="dollar" unicode="$" horiz-adv-x="523" 
d="M183 -99l11 95q-95 4 -163 39l27 50q87 -37 163 -37q40 0 72 7.5t58 32t26 64.5q0 26 -20.5 46t-51.5 33t-67.5 29t-67.5 32.5t-51.5 46t-20.5 66.5q0 64 43.5 99.5t110.5 44.5l9 91h59l-12 -89q85 -2 146 -29l-22 -46q-83 26 -139 26q-24 0 -46 -3.5t-44 -12.5
t-35 -27.5t-13 -44.5q0 -31 29 -55.5t70 -42t82 -36t70 -48.5t29 -70q0 -76 -53 -117.5t-132 -47.5l-7 -96h-60z" />
    <glyph glyph-name="percent" unicode="%" horiz-adv-x="752" 
d="M229 396q-61 0 -94.5 33t-33.5 94q0 77 44.5 134t119.5 57q129 0 129 -127q0 -79 -44 -135t-121 -56zM233 440q55 0 83.5 41t28.5 98q0 43 -20.5 68.5t-63.5 25.5q-54 0 -81.5 -45t-27.5 -102q0 -86 81 -86zM559 -8q-61 0 -94 33t-33 94q0 78 44 134.5t120 56.5
q129 0 129 -127q0 -79 -44.5 -135t-121.5 -56zM564 36q54 0 82.5 41.5t28.5 97.5q0 43 -20.5 68.5t-63.5 25.5q-53 0 -80.5 -45t-27.5 -102q0 -86 81 -86zM129 66l-30 32l575 531l30 -32z" />
    <glyph glyph-name="ampersand" unicode="&#x26;" horiz-adv-x="628" 
d="M673 -98q-151 0 -301 145q-78 -56 -182 -56q-75 0 -121.5 39t-46.5 114q0 67 39 121.5t106 107.5q-23 73 -23 148q0 86 43 139t132 53q59 0 92 -33t33 -92q0 -18 -6 -35.5t-12.5 -31t-23 -31t-26.5 -27.5t-34.5 -28t-35 -25.5t-39.5 -27t-38 -25.5q61 -163 192.5 -284.5
t275.5 -121.5q19 0 30 1l7 -45q-35 -5 -61 -5zM197 42q82 0 142 37q-98 107 -155 245q-104 -84 -104 -178q0 -104 117 -104zM214 404q43 29 67.5 47.5t52 43t40 46t12.5 42.5q0 34 -20.5 57.5t-54.5 23.5q-112 0 -112 -142q0 -61 15 -118zM429 100l6 48q29 23 83 23h70
l-6 -50h-70q-51 0 -83 -21z" />
    <glyph glyph-name="quotesingle" unicode="'" horiz-adv-x="151" 
d="M57 515l22 238h54l-30 -238h-46z" />
    <glyph glyph-name="parenleft" unicode="(" horiz-adv-x="331" 
d="M245 -221q-78 65 -120.5 184.5t-42.5 232.5q0 102 29 210.5t91.5 209.5t146.5 153l29 -39q-110 -73 -172.5 -224.5t-62.5 -299.5q0 -104 36 -215t103 -173z" />
    <glyph glyph-name="parenright" unicode=")" horiz-adv-x="331" 
d="M40 -221l-29 39q109 83 173.5 240t64.5 306q0 101 -36 207t-105 159l37 39q80 -57 123 -172.5t43 -236.5q0 -160 -73.5 -326.5t-197.5 -254.5z" />
    <glyph glyph-name="asterisk" unicode="*" horiz-adv-x="421" 
d="M80 471l-24 51l106 46l14 -32zM165 601l-96 46l35 51l84 -64zM181 409l24 111h37l-2 -111h-59zM219 650v112h59l-22 -112h-37zM355 472l-84 63l24 33l95 -44zM297 603l-15 31l97 65l25 -50z" />
    <glyph glyph-name="plus" unicode="+" horiz-adv-x="600" 
d="M239 56l23 221h-219l6 50h219l24 228h53l-24 -228h233l-6 -50h-233l-23 -221h-53z" />
    <glyph glyph-name="comma" unicode="," horiz-adv-x="278" 
d="M41 -146q3 8 10.5 27.5t9.5 25t7 20.5t6.5 22.5t5.5 22.5t5.5 29.5t4 34.5t5.5 45h70q-8 -73 -21.5 -116t-53.5 -111h-49z" />
    <glyph glyph-name="hyphen" unicode="-" horiz-adv-x="358" 
d="M18 261l6 54h298l-6 -54h-298z" />
    <glyph glyph-name="hyphen" unicode="&#xad;" horiz-adv-x="358" 
d="M18 261l6 54h298l-6 -54h-298z" />
    <glyph glyph-name="period" unicode="." horiz-adv-x="300" 
d="M80 0l7 71h69l-7 -71h-69z" />
    <glyph glyph-name="slash" unicode="/" horiz-adv-x="366" 
d="M-3 -62l319 831h53l-319 -831h-53z" />
    <glyph glyph-name="zero" unicode="0" horiz-adv-x="607" 
d="M275 -10q-106 0 -168 67.5t-62 185.5q0 135 78 226t208 91q106 0 168 -66t62 -188q0 -134 -80 -225t-206 -91zM279 38q101 0 164 75.5t63 183.5q0 97 -46 156t-133 59q-105 0 -164.5 -73.5t-59.5 -185.5q0 -98 44 -156.5t132 -58.5z" />
    <glyph glyph-name="one" unicode="1" horiz-adv-x="301" 
d="M117 0l53 502h-142l4 43l199 6l-58 -551h-56z" />
    <glyph glyph-name="two" unicode="2" 
d="M10 0l5 45q19 16 63.5 52t70.5 58t62.5 58.5t57 65.5t36 67.5t15.5 75.5q0 45 -28.5 65t-72.5 20q-60 0 -120 -39l-25 38q27 23 69.5 39t85.5 16q74 0 112.5 -40.5t38.5 -93.5q0 -183 -290 -375h285l-6 -52h-359z" />
    <glyph glyph-name="three" unicode="3" horiz-adv-x="400" 
d="M99 -169q-77 0 -149 38l19 46q69 -33 132 -33q86 0 136 56.5t50 126.5q0 57 -41 92.5t-122 42.5l-4 42q68 19 117 75.5t49 109.5q0 83 -108 83q-66 0 -118 -24l-14 44q57 31 142 31q73 0 113.5 -34t40.5 -95q0 -55 -39 -109.5t-103 -86.5q145 -43 145 -166
q0 -90 -69.5 -164.5t-176.5 -74.5z" />
    <glyph glyph-name="four" unicode="4" horiz-adv-x="537" 
d="M269 -160l21 199h-280l6 60l291 447h92l-48 -457h132l-5 -50h-132l-21 -199h-56zM67 89h229l44 422z" />
    <glyph glyph-name="five" unicode="5" horiz-adv-x="451" 
d="M157 -171q-83 0 -161 31l17 47q76 -26 148 -26q86 0 136 47.5t50 126.5q0 153 -289 184l31 307h321l-5 -49h-270l-21 -213q81 -12 142.5 -36.5t104 -72t42.5 -112.5q0 -97 -68.5 -165.5t-177.5 -68.5z" />
    <glyph glyph-name="six" unicode="6" horiz-adv-x="555" 
d="M255 -11q-100 0 -151 59.5t-51 170.5q0 57 7 112.5t21.5 112.5t40.5 105t61 86t86 59.5t113 21.5q50 0 85 -16l-16 -50q-34 14 -86 14q-58 0 -103.5 -28t-73.5 -72.5t-45.5 -105.5t-24.5 -120t-7 -123q0 -83 39.5 -130t111.5 -47q75 0 113 58.5t38 140.5q0 142 -143 142
q-24 0 -56 -5l-5 46q36 10 72 10q83 0 137 -49t54 -140q0 -107 -57 -179.5t-160 -72.5z" />
    <glyph glyph-name="seven" unicode="7" horiz-adv-x="409" 
d="M33 -172l-43 24l343 646h-335l5 48h386l-6 -57z" />
    <glyph glyph-name="eight" unicode="8" horiz-adv-x="561" 
d="M231 -10q-79 0 -131 41t-52 105q0 143 183 237q-31 24 -44.5 35.5t-34 34t-28.5 46.5t-8 54q0 79 57 125t145 46q64 0 109.5 -36.5t45.5 -95.5q0 -124 -159 -211q64 -42 102.5 -87.5t38.5 -104.5q0 -87 -68.5 -138t-155.5 -51zM244 37q66 0 109.5 38.5t43.5 103.5
q0 26 -12 51t-36 47.5t-41 35.5t-45 32q-46 -28 -75 -49.5t-56 -62t-27 -86.5q0 -51 38.5 -80.5t100.5 -29.5zM279 397q138 77 138 181q0 43 -33 66.5t-82 23.5q-56 0 -94 -33t-38 -86q0 -23 9 -45t29.5 -43.5t32.5 -32t38 -31.5z" />
    <glyph glyph-name="nine" unicode="9" horiz-adv-x="513" 
d="M137 -167q-50 0 -85 16l16 50q34 -14 86 -14q58 0 103.5 28t73.5 73t45.5 105.5t24.5 120t7 123.5q0 82 -39.5 129t-111.5 47q-76 0 -114 -58.5t-38 -140.5q0 -142 144 -142q24 0 56 5l5 -46q-36 -10 -72 -10q-83 0 -137 49t-54 140q0 107 57 179.5t160 72.5
q101 0 151.5 -59.5t50.5 -170.5q0 -57 -7 -112.5t-21.5 -112.5t-40.5 -105t-61 -86t-86 -59.5t-113 -21.5z" />
    <glyph glyph-name="colon" unicode=":" horiz-adv-x="300" 
d="M115 0l8 71h69l-7 -71h-70zM165 475l8 71h69l-8 -71h-69z" />
    <glyph glyph-name="semicolon" unicode=";" horiz-adv-x="278" 
d="M71 -146q3 8 10.5 27.5t9.5 25t7 20.5t6.5 22.5t5.5 22.5t5.5 29.5t4 34.5t5.5 45h70q-8 -73 -21.5 -116t-53.5 -111h-49zM165 475l8 71h69l-8 -71h-69z" />
    <glyph glyph-name="less" unicode="&#x3c;" horiz-adv-x="600" 
d="M456 69l-378 189l9 91l418 189l-6 -57l-389 -178l352 -177z" />
    <glyph glyph-name="equal" unicode="=" horiz-adv-x="600" 
d="M33 180l6 50h505l-6 -50h-505zM54 379l6 50h505l-6 -50h-505z" />
    <glyph glyph-name="greater" unicode="&#x3e;" horiz-adv-x="600" 
d="M58 69l6 57l388 177l-351 178l6 57l378 -189l-9 -91z" />
    <glyph glyph-name="question" unicode="?" horiz-adv-x="383" 
d="M145 158q-4 20 -4 47q0 44 19.5 81.5t47 65t55 52.5t47 54.5t19.5 61.5q0 61 -51.5 96.5t-118.5 42.5l18 50q85 -7 148 -54t63 -127q0 -43 -18 -78.5t-44 -61t-53 -49t-48 -52.5t-26 -61q-2 -16 0 -62zM122 0l7 71h69l-7 -71h-69z" />
    <glyph glyph-name="at" unicode="@" horiz-adv-x="776" 
d="M314 -72q-129 0 -197 72.5t-68 202.5q0 104 29.5 196t85 163t142 112t192.5 41q113 0 172 -58.5t59 -171.5q0 -57 -14.5 -114t-43 -107.5t-77.5 -82t-110 -31.5q-74 0 -61 69q-22 -22 -61 -42t-66 -20q-78 0 -78 91q0 104 57.5 179t158.5 75q52 0 94 -21l-53 -238
q-4 -16 -4 -25q0 -23 16 -23q52 0 90 27t58 71.5t29.5 91t9.5 94.5q0 186 -184 186q-96 0 -170.5 -37t-120 -101t-68.5 -145t-23 -174q0 -115 54.5 -170.5t167.5 -55.5q76 0 148 18l7 -47q-63 -25 -171 -25zM308 206q27 0 63 21t59 45l39 178q-28 6 -42 6q-78 0 -118 -60
t-40 -142q0 -25 8 -36.5t31 -11.5z" />
    <glyph glyph-name="A" unicode="A" horiz-adv-x="611" 
d="M-32 0l352 707h97l144 -707h-62l-55 279h-276l-138 -279h-62zM193 330h241l-60 306l-9 44l-22 -45z" />
    <glyph glyph-name="B" unicode="B" horiz-adv-x="606" 
d="M75 0l75 707h180q192 0 192 -155q0 -61 -33 -111.5t-91 -64.5l1 -3q60 -5 98 -47.5t38 -103.5q0 -111 -66.5 -166.5t-182.5 -55.5h-211zM141 51h132q97 0 148.5 35.5t51.5 129.5q0 30 -9 52t-27.5 35t-36 20.5t-47 11t-46.5 4t-48 0.5h-88zM177 390h108q86 0 129 36
t43 122q0 68 -39.5 90t-113.5 22h-99z" />
    <glyph glyph-name="C" unicode="C" horiz-adv-x="591" 
d="M362 -10q-143 0 -226.5 88t-83.5 234q0 179 103 290t280 111q97 0 158 -27l-22 -49q-63 23 -139 23q-152 0 -235 -95t-83 -252q0 -129 72.5 -198.5t200.5 -69.5q84 0 150 22l12 -52q-80 -25 -187 -25z" />
    <glyph glyph-name="D" unicode="D" horiz-adv-x="718" 
d="M75 0l75 707h172q156 0 249.5 -78.5t93.5 -234.5q0 -193 -106 -293.5t-301 -100.5h-183zM140 51h131q161 0 247 86.5t86 254.5q0 134 -77 199t-213 65h-110z" />
    <glyph glyph-name="E" unicode="E" horiz-adv-x="562" 
d="M75 0l75 707h377l-5 -50h-318l-29 -276h296l-5 -52h-296l-30 -279h342l-5 -50h-402z" />
    <glyph glyph-name="F" unicode="F" horiz-adv-x="455" 
d="M75 0l75 707h321l-5 -50h-262l-31 -296h240l-5 -53h-241l-32 -308h-60z" />
    <glyph glyph-name="G" unicode="G" horiz-adv-x="648" 
d="M362 -10q-143 0 -227 88t-84 235q0 178 102.5 289t278.5 111q99 0 157 -25l-23 -49q-62 21 -137 21q-151 0 -233.5 -95t-82.5 -252q0 -129 72.5 -198.5t201.5 -69.5q59 0 104 14l29 291h60l-34 -328q-48 -18 -85.5 -25t-98.5 -7z" />
    <glyph glyph-name="H" unicode="H" horiz-adv-x="742" 
d="M75 0l75 707h59l-34 -327h398l34 328h60l-74 -708h-60l35 329h-398l-35 -329h-60z" />
    <glyph glyph-name="I" unicode="I" horiz-adv-x="285" 
d="M75 0l75 707h59l-74 -707h-60z" />
    <glyph glyph-name="J" unicode="J" horiz-adv-x="284" 
d="M-57 -184l-23 44q91 48 127 112t48 179l59 556h59l-58 -554q-13 -128 -61.5 -209t-150.5 -128z" />
    <glyph glyph-name="K" unicode="K" horiz-adv-x="588" 
d="M483 -21l-274 386l2 20l308 322h77l-320 -326l258 -367zM75 0l75 707h59l-74 -707h-60z" />
    <glyph glyph-name="L" unicode="L" horiz-adv-x="478" 
d="M75 0l75 707h59l-68 -653h307l-6 -54h-367z" />
    <glyph glyph-name="M" unicode="M" horiz-adv-x="866" 
d="M-4 0l225 707h88l57 -683l310 683h88l-35 -707h-60l36 643l-291 -643h-105l-54 644l-200 -644h-59z" />
    <glyph glyph-name="N" unicode="N" horiz-adv-x="726" 
d="M75 0l76 707h99l272 -685l70 685h59l-77 -707h-105l-264 668l-70 -668h-60z" />
    <glyph glyph-name="O" unicode="O" horiz-adv-x="779" 
d="M343 -11q-141 0 -216 87t-75 234q0 180 102.5 294t278.5 114q141 0 218 -87.5t77 -233.5q0 -181 -103.5 -294.5t-281.5 -113.5zM352 40q149 0 231 102t82 256q0 122 -62 194.5t-179 72.5q-146 0 -228.5 -100.5t-82.5 -252.5q0 -122 60.5 -197t178.5 -75z" />
    <glyph glyph-name="P" unicode="P" horiz-adv-x="560" 
d="M75 0l75 707h219q92 0 145 -46.5t53 -137.5q0 -126 -80.5 -188.5t-209.5 -60.5h-14l6 51q233 -2 233 195q0 138 -160 138h-137l-69 -658h-61z" />
    <glyph glyph-name="Q" unicode="Q" horiz-adv-x="779" 
d="M343 -11q-141 0 -216 87t-75 234q0 180 102.5 294t278.5 114q141 0 218 -87.5t77 -233.5q0 -181 -103.5 -294.5t-281.5 -113.5zM352 40q149 0 231 102t82 256q0 122 -62 194.5t-179 72.5q-146 0 -228.5 -100.5t-82.5 -252.5q0 -122 60.5 -197t178.5 -75zM712 -150
l-382 70l5 49l383 -64z" />
    <glyph glyph-name="R" unicode="R" horiz-adv-x="612" 
d="M530 -17l-202 331q-34 -4 -94 -4h-64l-34 -310h-61l75 707h206q91 0 145.5 -44.5t54.5 -122.5q0 -76 -43 -134t-123 -78l195 -314zM175 362h101q102 0 158.5 44t56.5 133q0 119 -161 119h-125z" />
    <glyph glyph-name="S" unicode="S" horiz-adv-x="466" 
d="M182 -11q-45 0 -102 14.5t-86 33.5l25 53q94 -46 167 -46q174 0 174 146q0 38 -29.5 70.5t-72 58t-85 54t-72 72t-29.5 97.5q0 82 61.5 126t153.5 44q49 0 96.5 -11t71.5 -26l-19 -50q-72 34 -153 34q-153 0 -153 -119q0 -33 21.5 -62.5t53 -51t69 -47.5t69 -50.5t53 -61
t21.5 -79.5q0 -94 -65.5 -146.5t-169.5 -52.5z" />
    <glyph glyph-name="T" unicode="T" horiz-adv-x="541" 
d="M212 0l68 654h-246l6 53h552l-6 -53h-246l-69 -654h-59z" />
    <glyph glyph-name="U" unicode="U" horiz-adv-x="714" 
d="M330 -12q-50 0 -91 9.5t-77.5 31.5t-57 64t-20.5 101q0 11 2 39l50 474h61l-49 -467q-2 -26 -2 -36q0 -164 181 -164q92 0 151.5 50t72.5 175l46 442h56l-47 -445q-8 -79 -35.5 -135.5t-68 -85.5t-82.5 -41t-90 -12z" />
    <glyph glyph-name="V" unicode="V" horiz-adv-x="627" 
d="M219 0l-173 707h62l158 -669l343 669h65l-368 -707h-87z" />
    <glyph glyph-name="W" unicode="W" horiz-adv-x="873" 
d="M139 0l-101 707h61l89 -661l245 515l-28 146h62l125 -665l260 665h59l-278 -707h-88l-97 475l-226 -475h-83z" />
    <glyph glyph-name="X" unicode="X" horiz-adv-x="555" 
d="M-41 0l289 376l-157 331h65l132 -285l211 285h65l-253 -331l181 -376h-65l-155 325l-244 -325h-69z" />
    <glyph glyph-name="Y" unicode="Y" horiz-adv-x="495" 
d="M173 0l29 284l-177 423h65l149 -371l243 371h63l-283 -423l-30 -284h-59z" />
    <glyph glyph-name="Z" unicode="Z" horiz-adv-x="514" 
d="M-10 0l6 60l443 590h-355l6 57h422l-5 -53l-446 -598h404l-6 -56h-469z" />
    <glyph glyph-name="bracketleft" unicode="[" horiz-adv-x="348" 
d="M59 -220l103 974h156l-5 -48h-100l-92 -878h100l-5 -48h-157z" />
    <glyph glyph-name="backslash" unicode="\" horiz-adv-x="366" 
d="M228 -62l-145 831h53l146 -831h-54z" />
    <glyph glyph-name="bracketright" unicode="]" horiz-adv-x="348" 
d="M34 -220l5 48h100l92 878h-100l5 48h157l-103 -974h-156z" />
    <glyph glyph-name="asciicircum" unicode="^" horiz-adv-x="557" 
d="M60 294l203 413h83l101 -413h-61l-85 375l-179 -375h-62z" />
    <glyph glyph-name="underscore" unicode="_" horiz-adv-x="500" 
d="M-2 -158l4 54h500l-5 -54h-499z" />
    <glyph glyph-name="grave" unicode="`" horiz-adv-x="585" 
d="M384 619l-168 122l34 45l162 -129z" />
    <glyph glyph-name="a" unicode="a" horiz-adv-x="521" 
d="M146 -13q-50 0 -76 44t-26 115q0 64 21.5 133.5t60 130.5t100.5 100.5t134 39.5q57 0 90 -7l-56 -543h-57l12 107q-67 -61 -115 -90.5t-88 -29.5zM158 42q34 0 97 47t100 84l35 325q-9 2 -41 2q-58 0 -107 -35t-78.5 -88.5t-46 -112.5t-16.5 -112q0 -49 14.5 -79.5
t42.5 -30.5z" />
    <glyph glyph-name="b" unicode="b" horiz-adv-x="535" 
d="M202 -7q-62 0 -132 21l78 741h55l-30 -294q2 2 16 11t18.5 11.5t18 11t20 11.5t19.5 10t21.5 10t21.5 8t23 7t22.5 3.5t24.5 1.5q115 0 115 -155q0 -54 -10.5 -108.5t-34 -107t-56.5 -93t-82.5 -65t-107.5 -24.5zM209 43q50 0 90 24t65 61t41.5 85t23 92.5t6.5 86.5
q0 60 -17.5 81.5t-53.5 21.5q-70 0 -198 -88l-37 -352q48 -12 80 -12z" />
    <glyph glyph-name="c" unicode="c" horiz-adv-x="438" 
d="M166 -12q-34 0 -58.5 20t-37 51.5t-18 62.5t-5.5 61q0 161 70.5 269t189.5 108q74 0 122 -50l-35 -34q-42 35 -93 35q-54 0 -94 -32t-60.5 -82.5t-30 -101t-9.5 -100.5q0 -72 18.5 -113t42.5 -41q77 0 190 60l21 -42q-37 -22 -60.5 -34t-66.5 -24.5t-86 -12.5z" />
    <glyph glyph-name="d" unicode="d" horiz-adv-x="515" 
d="M146 -13q-52 0 -75 50t-23 127q0 170 91 279t228 107q4 0 14 -0.5t16 -0.5l22 206h56l-81 -755h-56l11 107q-131 -120 -203 -120zM158 42q62 0 197 130l35 329l-51 1q-96 2 -166 -99t-70 -218q0 -84 14 -113.5t41 -29.5z" />
    <glyph glyph-name="e" unicode="e" horiz-adv-x="433" 
d="M165 -12q-63 0 -91 56.5t-28 145.5q0 159 67.5 265t185.5 106q63 0 94.5 -33.5t31.5 -85.5q0 -88 -132 -138l-188 -72q-1 -10 -1 -31q0 -160 68 -160q65 0 173 54l20 -45q-84 -44 -130 -54q-35 -8 -70 -8zM110 286l168 67q91 36 91 87q0 37 -21 53.5t-52 16.5
q-149 0 -186 -224z" />
    <glyph glyph-name="f" unicode="f" horiz-adv-x="301" 
d="M49 -220l74 716h-80l5 50h81l4 48q14 180 210 180q41 0 85 -14l-15 -46q-44 12 -82 12q-70 0 -104 -29.5t-40 -96.5l-5 -54h118l-4 -50h-119l-75 -716h-53z" />
    <glyph glyph-name="g" unicode="g" horiz-adv-x="521" 
d="M151 -231q-75 0 -164 19l13 55q88 -22 139 -22q87 0 136.5 31.5t59.5 123.5l14 131q-67 -63 -113.5 -91.5t-89.5 -28.5q-99 0 -99 160q0 158 91.5 280.5t221.5 122.5q57 0 90 -7l-61 -582q-7 -69 -45 -113.5t-86.5 -61.5t-106.5 -17zM158 42q34 0 97 47t100 84l35 325
q-10 2 -41 2q-69 0 -127 -53t-88.5 -131.5t-30.5 -159.5q0 -66 14.5 -90t40.5 -24z" />
    <glyph glyph-name="h" unicode="h" horiz-adv-x="544" 
d="M69 0l80 755h56l-32 -307q1 1 18.5 16t25 21t26 20t32 21.5t31.5 16.5t35.5 13t34.5 4q52 0 71.5 -20.5t19.5 -66.5q0 -17 -6 -79l-43 -394h-56l42 381q7 59 7 78q0 28 -12 39t-44 11q-16 0 -45.5 -16.5t-55 -34.5t-54.5 -40.5t-33 -25.5l-42 -392h-56z" />
    <glyph glyph-name="i" unicode="i" horiz-adv-x="264" 
d="M70 0l57 546h56l-57 -546h-56zM164 663l-49 53l61 52l51 -52z" />
    <glyph glyph-name="j" unicode="j" horiz-adv-x="264" 
d="M-64 -220q-35 0 -62 10l13 51q33 -10 60 -10q63 0 87.5 37t32.5 111l60 567h56l-60 -568q-11 -108 -59.5 -153t-127.5 -45zM164 663l-49 53l61 52l51 -52z" />
    <glyph glyph-name="k" unicode="k" horiz-adv-x="478" 
d="M389 -17l-201 308l203 255h70l-205 -255l186 -278zM69 0l79 754h57l-80 -754h-56z" />
    <glyph glyph-name="l" unicode="l" horiz-adv-x="258" 
d="M69 0l79 754h57l-80 -754h-56z" />
    <glyph glyph-name="m" unicode="m" horiz-adv-x="815" 
d="M69 0l57 546h57l-10 -97q2 1 16 13.5t20.5 18t22.5 17.5t26 18.5t26.5 16.5t29 14.5t27.5 8.5t28 4q56 0 73.5 -23.5t14.5 -77.5q113 101 193 101q51 0 69.5 -20t18.5 -64q0 -18 -6 -82l-43 -394h-55l41 381q7 60 7 79q0 28 -11.5 38.5t-44.5 10.5q-26 0 -88.5 -43.5
t-86.5 -65.5l-43 -400h-56l42 381q7 61 7 79q0 27 -11.5 37t-43.5 10q-12 0 -39.5 -16t-52 -34t-53.5 -40t-34 -25l-42 -392h-56z" />
    <glyph glyph-name="n" unicode="n" horiz-adv-x="544" 
d="M69 0l57 546h57l-10 -98q1 1 18.5 16t25 21t26 20t32 21.5t31.5 16.5t35.5 13t34.5 4q52 0 71.5 -20.5t19.5 -66.5q0 -17 -6 -79l-43 -394h-56l42 381q7 59 7 78q0 28 -12 39t-44 11q-15 0 -45 -16.5t-55 -34.5t-54.5 -40.5t-33.5 -25.5l-42 -392h-56z" />
    <glyph glyph-name="o" unicode="o" horiz-adv-x="501" 
d="M195 -12q-68 0 -108 54.5t-40 132.5q0 176 73.5 280.5t190.5 104.5q69 0 107 -54.5t38 -126.5t-14.5 -138.5t-44 -124.5t-82 -93t-120.5 -35zM212 38q77 0 131.5 93t54.5 230q0 77 -25 113.5t-84 36.5q-75 0 -129 -94t-54 -224q0 -155 106 -155z" />
    <glyph glyph-name="p" unicode="p" horiz-adv-x="535" 
d="M45 -220l83 766h55l-8 -85q119 85 204 85q115 0 115 -155q0 -54 -10.5 -108.5t-34 -107t-56.5 -93t-82.5 -65t-107.5 -24.5q-32 0 -78 8l-24 -221h-56zM210 43q50 0 90 24t65 61t41.5 85t23 92.5t6.5 86.5q0 60 -17.5 81.5t-53.5 21.5q-69 0 -197 -88l-37 -352
q9 -2 21 -4.5t18.5 -4t17 -2.5t22.5 -1z" />
    <glyph glyph-name="q" unicode="q" horiz-adv-x="521" 
d="M314 -220l35 327q-71 -62 -117 -91t-86 -29q-99 0 -99 164q0 102 40.5 193.5t113.5 148.5t159 57q57 0 90 -7l-79 -763h-57zM158 42q34 0 97 47t100 84l35 325q-10 2 -41 2q-103 0 -174.5 -107t-71.5 -233q0 -70 14 -94t41 -24z" />
    <glyph glyph-name="r" unicode="r" horiz-adv-x="345" 
d="M69 0l57 546h56l-10 -101q29 29 46 45t60 41t77 25q9 0 23 -2l-11 -51q-3 1 -16 1q-10 0 -22 -4t-22.5 -9t-25.5 -14.5t-25 -16.5t-26 -20t-23 -18.5t-22.5 -19t-18.5 -15.5l-41 -387h-56z" />
    <glyph glyph-name="s" unicode="s" horiz-adv-x="423" 
d="M168 -9q-87 0 -139 23l17 52q67 -24 126 -24q19 0 38.5 3.5t43 12t38 28t14.5 46.5q0 33 -22 61.5t-53 51t-62 46t-53 56t-22 71.5q0 74 48 105.5t124 31.5q72 0 132 -29l-19 -45q-80 26 -128 26q-104 0 -104 -78q0 -33 22 -61t53.5 -50t62.5 -46t53 -58.5t22 -77.5
q0 -73 -57 -109t-135 -36z" />
    <glyph glyph-name="t" unicode="t" horiz-adv-x="374" 
d="M174 -12q-46 0 -64 14q-30 23 -30 87q0 24 2 38l41 368h-80l5 51h80l11 112h56l-11 -112h177l-5 -51h-177l-40 -363q-3 -27 -3 -44q0 -28 10 -38t36 -10q51 0 119 34l15 -47q-19 -12 -60 -25.5t-82 -13.5z" />
    <glyph glyph-name="u" unicode="u" horiz-adv-x="543" 
d="M177 -11q-53 0 -75.5 26.5t-22.5 82.5q0 22 3 47l43 401h56l-42 -379q-5 -47 -5 -68q0 -35 11.5 -49t41.5 -14q11 0 23 2.5t25 8.5t23.5 11.5t24 16t21.5 16t22 18t18.5 16.5t17.5 17l14 13l42 391h56l-58 -546h-56l10 98q-29 -30 -50 -48.5t-62.5 -39.5t-80.5 -21z" />
    <glyph glyph-name="v" unicode="v" horiz-adv-x="457" 
d="M142 0l-94 546h62l79 -516l158 333q47 101 47 171q0 2 -0.5 6t-0.5 6h56v-12q0 -74 -48 -175l-171 -359h-88z" />
    <glyph glyph-name="w" unicode="w" horiz-adv-x="757" 
d="M145 0l-97 546h62l82 -516l190 322l-34 194h62l79 -516l158 333q46 97 46 169q0 10 -1 14h57v-12q0 -75 -48 -175l-171 -359h-89l-47 281l-164 -281h-85z" />
    <glyph glyph-name="x" unicode="x" horiz-adv-x="424" 
d="M-35 0l215 294l-109 252h60l86 -205l145 205h62l-186 -255l123 -291h-61l-98 242l-174 -242h-63z" />
    <glyph glyph-name="y" unicode="y" horiz-adv-x="457" 
d="M70 -220l106 220h-41l-87 546h62l77 -517l160 334q20 42 33.5 91t13.5 80q0 2 -0.5 6t-0.5 6h57v-12q0 -76 -47 -175l-275 -579h-58z" />
    <glyph glyph-name="z" unicode="z" horiz-adv-x="426" 
d="M-6 0l6 56l353 439h-280l5 51h343l-5 -53l-361 -443h319l-5 -50h-375z" />
    <glyph glyph-name="braceleft" unicode="{" horiz-adv-x="338" 
d="M260 -219q-36 0 -62 4t-52 14.5t-39.5 34t-13.5 58.5q0 21 6 48l43 201q8 36 -14.5 70t-58.5 34l6 57q36 0 65.5 32.5t29.5 71.5v210q0 158 194 158h12l-5 -48h-18q-67 0 -98.5 -25.5t-31.5 -87.5l1 -184q0 -65 -28.5 -104t-77.5 -49v-2q79 -27 79 -108q0 -17 -5 -44
l-40 -186q-4 -22 -4 -31q0 -77 111 -77h18l-5 -47h-12z" />
    <glyph glyph-name="bar" unicode="|" horiz-adv-x="281" 
d="M47 -220l102 974h56l-102 -974h-56z" />
    <glyph glyph-name="braceright" unicode="}" horiz-adv-x="338" 
d="M-8 -219l5 47h18q129 0 129 108v186q0 117 106 152v2q-79 18 -79 106q0 26 5 47l40 184q4 19 4 37q0 41 -27.5 58t-83.5 17h-18l6 49h12q166 0 166 -115q0 -16 -5 -43l-44 -210q-8 -38 14.5 -71t58.5 -33l-6 -57q-36 0 -65.5 -34t-29.5 -70l1 -201q0 -51 -16 -84.5
t-46.5 -48.5t-60.5 -20.5t-72 -5.5h-12z" />
    <glyph glyph-name="asciitilde" unicode="~" horiz-adv-x="505" 
d="M366 295q-55 0 -121.5 30t-104.5 30q-41 0 -93 -29l-27 43q59 43 126 43q53 0 114.5 -31t105.5 -31q41 0 87 33l32 -38q-55 -50 -119 -50z" />
    <glyph glyph-name="uni00A0" unicode="&#xa0;" horiz-adv-x="200" 
 />
    <glyph glyph-name="exclamdown" unicode="&#xa1;" horiz-adv-x="271" 
d="M62 -161l45 422l15 126h50l-11 -126l-45 -422h-54zM122 475l7 71h69l-7 -71h-69z" />
    <glyph glyph-name="cent" unicode="&#xa2;" horiz-adv-x="486" 
d="M232 -41l11 74q-92 9 -137 56t-45 138q0 117 59.5 195.5t172.5 86.5l5 81h64l-10 -80q71 -5 101 -28l-23 -42q-49 24 -119 24q-100 0 -147 -65t-47 -169q0 -87 44 -118.5t135 -31.5q44 0 113 15l3 -46q-49 -15 -110 -17l-5 -73h-65z" />
    <glyph glyph-name="sterling" unicode="&#xa3;" horiz-adv-x="453" 
d="M34 0l6 54q40 16 67.5 60t33.5 91h-100l5 49h101q2 14 3.5 30.5t3 36t2.5 30.5q7 58 27.5 96.5t56 58.5t75.5 28.5t99 10.5l-1 -49q-39 -3 -62 -6.5t-51.5 -13t-44.5 -24.5t-28 -41.5t-15 -63.5q-2 -31 -8 -93h184l-5 -49h-186q-5 -45 -29.5 -87t-61.5 -68h296l-6 -50
h-362z" />
    <glyph glyph-name="currency" unicode="&#xa4;" horiz-adv-x="496" 
d="M72 142l-33 34l73 72q-33 42 -33 104q0 66 32 104l-71 71l33 32l70 -70q53 34 105 34q63 0 105 -32l69 70l34 -35l-70 -70q32 -35 32 -104t-34 -106l70 -70l-31 -34l-70 70q-51 -30 -105 -30q-60 0 -103 32zM248 229q60 0 91.5 34t31.5 89q1 54 -31.5 89t-91.5 35
t-91.5 -35t-32.5 -89q0 -53 33 -88t91 -35z" />
    <glyph glyph-name="yen" unicode="&#xa5;" horiz-adv-x="565" 
d="M552 546l-154 -235h131l-5 -50h-159l-72 -109v-1h219l-5 -50h-219l-11 -101h-58l11 101h-208l5 50h208v1l-44 109h-152l5 50h125l-98 235h64l137 -339l219 339h61z" />
    <glyph glyph-name="brokenbar" unicode="&#xa6;" horiz-adv-x="276" 
d="M57 -220l38 362h56l-38 -362h-56zM122 392l38 361h56l-38 -361h-56z" />
    <glyph glyph-name="section" unicode="&#xa7;" horiz-adv-x="423" 
d="M83 -216q-59 0 -108 39l28 52q49 -38 87 -38q25 0 40.5 21t19.5 43.5t4 47.5q0 33 -8 99l-38 368q-4 46 -4 70q0 124 56.5 198.5t176.5 74.5q77 0 136 -40l-23 -51q-65 39 -122 39q-56 0 -56 -108q0 -13 2 -39l46 -389q7 -63 7 -109q0 -119 -64 -198.5t-180 -79.5z
M179 -150q92 53 92 193q0 32 -5 74l-45 401q-4 46 -4 68q0 76 23 107l-2 3q-78 -45 -78 -184q0 -30 3 -62l44 -399q4 -36 4 -82q0 -40 -6 -64.5t-27 -52.5z" />
    <glyph glyph-name="dieresis" unicode="&#xa8;" horiz-adv-x="388" 
d="M204 668l-43 47l53 48l43 -48zM391 668l-42 47l52 48l43 -48z" />
    <glyph glyph-name="copyright" unicode="&#xa9;" horiz-adv-x="827" 
d="M419 53q-93 0 -142.5 47t-49.5 125q0 111 61 179t174 68q70 0 114 -27l-22 -39q-47 22 -96 22q-79 0 -129.5 -52t-50.5 -144q0 -66 45 -100t113 -34q37 0 95 17l11 -38q-61 -24 -123 -24zM366 -114q-142 0 -224.5 86t-82.5 228q0 185 112 302.5t291 117.5
q144 0 225 -87.5t81 -226.5q0 -182 -110.5 -301t-291.5 -119zM374 -64q160 0 249.5 104t89.5 258q0 122 -67 197t-193 75q-156 0 -247 -103.5t-91 -256.5q0 -119 66 -196.5t193 -77.5z" />
    <glyph glyph-name="ordfeminine" unicode="&#xaa;" horiz-adv-x="422" 
d="M167 386q-65 0 -65 112q0 90 52.5 155t132.5 65q27 0 60 -7l-34 -320h-49l7 52q-64 -57 -104 -57zM172 433q18 0 51 22t52 40l18 174l-5 1h-8h-5q-49 3 -87 -50t-38 -116q0 -71 22 -71zM69 299l6 50h271l-7 -50h-270z" />
    <glyph glyph-name="guillemotleft" unicode="&#xab;" horiz-adv-x="418" 
d="M157 54l-78 218l124 218l45 -17l-107 -201l64 -199zM323 54l-78 218l125 218l44 -17l-107 -201l64 -199z" />
    <glyph glyph-name="logicalnot" unicode="&#xac;" horiz-adv-x="600" 
d="M447 119l17 158h-412l5 51h466l-22 -209h-54z" />
    <glyph glyph-name="registered" unicode="&#xae;" horiz-adv-x="827" 
d="M598 254q-55 6 -101 63q-9 6 -83 105q-20 -2 -33 -2h-55v-159h-49v418h134q62 0 96.5 -33t34.5 -95q0 -86 -78 -119q6 -7 29 -35.5t36.5 -43.5t36.5 -33t43 -24zM405 86q-161 0 -253 101.5t-92 267.5q0 167 100.5 266t263.5 99q165 0 254 -102t89 -265q0 -166 -97 -266.5
t-265 -100.5zM408 136q148 0 225.5 88.5t77.5 229.5q0 139 -78.5 227.5t-217.5 88.5q-143 0 -220.5 -87.5t-77.5 -226.5q0 -87 31 -158t98.5 -116.5t161.5 -45.5zM326 465h59q106 0 106 82q0 47 -21.5 68.5t-70.5 21.5h-73v-172z" />
    <glyph glyph-name="macron" unicode="&#xaf;" horiz-adv-x="536" 
d="M201 675l5 48h271l-5 -48h-271z" />
    <glyph glyph-name="macron" unicode="&#x2c9;" horiz-adv-x="536" 
d="M201 675l5 48h271l-5 -48h-271z" />
    <glyph glyph-name="degree" unicode="&#xb0;" horiz-adv-x="320" 
d="M139 404q-150 0 -135 158q7 68 55 111.5t117 43.5q73 0 110 -40.5t30 -114.5q-8 -73 -56 -115.5t-121 -42.5zM146 446q50 0 80.5 30.5t36.5 85.5q5 52 -19 83t-73 31t-79.5 -30.5t-35.5 -83.5q-7 -56 18.5 -86t71.5 -30z" />
    <glyph glyph-name="plusminus" unicode="&#xb1;" horiz-adv-x="600" 
d="M254 123l20 189h-189l6 52h189l20 190h57l-20 -190h189l-6 -52h-189l-20 -189h-57zM52 0l6 52h435l-6 -52h-435z" />
    <glyph glyph-name="twosuperior" unicode="&#xb2;" horiz-adv-x="307" 
d="M-1 415l4 45q18 12 55.5 37.5t53.5 37t42 32.5t38 35.5t22.5 34t12.5 38.5q4 32 -14 49t-48 17q-57 0 -97 -37l-22 31q23 23 58 37t68 14q49 0 80.5 -27.5t26.5 -79.5q-2 -17 -7 -33t-15 -31.5t-18 -27t-25 -26t-26 -23t-30 -22.5l-28.5 -19t-31 -19.5t-28.5 -17.5h192
l-5 -45h-258z" />
    <glyph glyph-name="threesuperior" unicode="&#xb3;" horiz-adv-x="300" 
d="M115 410q-58 0 -103 16l17 41q49 -14 85 -14q93 0 100 60q4 40 -22.5 55t-86.5 20l4 36q100 9 107 70q2 24 -16 37t-48 13q-33 0 -71 -17l-11 33q47 26 96 26q46 0 75 -24t25 -61q-7 -64 -75 -90q40 -7 59.5 -33.5t16.5 -60.5q-6 -55 -50 -81t-102 -26z" />
    <glyph glyph-name="acute" unicode="&#xb4;" horiz-adv-x="585" 
d="M267 622l-27 37l174 137l34 -46z" />
    <glyph glyph-name="mu" unicode="&#xb5;" horiz-adv-x="543" 
d="M44 -220l81 766h56l-42 -380q-5 -45 -5 -67q0 -37 12 -51t42 -14q32 0 67.5 21.5t76 58.5t44.5 40l42 392h56l-58 -546h-56l10 98q-9 -7 -37.5 -33t-46.5 -40t-49 -27.5t-62 -12.5q-35 2 -54 8l-22 -213h-55z" />
    <glyph glyph-name="mu" unicode="&#x3bc;" horiz-adv-x="543" 
d="M44 -220l81 766h56l-42 -380q-5 -45 -5 -67q0 -37 12 -51t42 -14q32 0 67.5 21.5t76 58.5t44.5 40l42 392h56l-58 -546h-56l10 98q-9 -7 -37.5 -33t-46.5 -40t-49 -27.5t-62 -12.5q-35 2 -54 8l-22 -213h-55z" />
    <glyph glyph-name="paragraph" unicode="&#xb6;" horiz-adv-x="598" 
d="M269 -220q-38 0 -57 8l16 46q8 -4 47 -4q65 0 94 39t37 109l76 729h56l-77 -730q-10 -97 -55 -147t-137 -50zM271 280q-208 0 -208 182q0 109 56.5 177t163.5 68h93l-44 -427h-61z" />
    <glyph glyph-name="periodcentered" unicode="&#xb7;" horiz-adv-x="278" 
d="M139 299l-49 53l61 52l51 -52z" />
    <glyph glyph-name="periodcentered" unicode="&#x2219;" horiz-adv-x="278" 
d="M139 299l-49 53l61 52l51 -52z" />
    <glyph glyph-name="cedilla" unicode="&#xb8;" horiz-adv-x="449" 
d="M174 -229l-15 31q56 33 62 79q2 25 -18 68h62q16 -30 13 -63q-6 -75 -104 -115z" />
    <glyph glyph-name="onesuperior" unicode="&#xb9;" horiz-adv-x="256" 
d="M103 415l34 323h-93l4 42l147 4l-39 -369h-53z" />
    <glyph glyph-name="ordmasculine" unicode="&#xba;" horiz-adv-x="422" 
d="M191 385q-44 0 -72.5 38t-28.5 90q0 93 39 150.5t108 57.5q50 0 75 -39t25 -90q0 -49 -12 -93t-46.5 -79t-87.5 -35zM199 428q42 0 65.5 54.5t23.5 107.5q0 35 -16 62t-45 27q-30 0 -50.5 -28.5t-28 -63t-7.5 -67.5q0 -37 14 -64.5t44 -27.5zM51 301l6 48h271l-7 -48
h-270z" />
    <glyph glyph-name="guillemotright" unicode="&#xbb;" horiz-adv-x="418" 
d="M102 54l-44 19l106 199l-65 201l49 17l78 -218zM268 54l-44 19l106 199l-65 201l49 17l78 -218z" />
    <glyph glyph-name="onequarter" unicode="&#xbc;" horiz-adv-x="714" 
d="M103 415l34 323h-93l4 42l147 4l-39 -369h-53zM47 80l-31 34l577 533l29 -33zM546 0l10 91h-171l5 49l164 225h84l-25 -231h65l-4 -43h-65l-10 -91h-53zM434 134h126l21 201z" />
    <glyph glyph-name="onehalf" unicode="&#xbd;" horiz-adv-x="698" 
d="M103 415l34 323h-93l4 42l147 4l-39 -369h-53zM37 80l-31 34l577 533l29 -33zM390 0l4 45q18 12 55.5 37.5t53.5 37t42 32.5t38 35.5t22.5 34t12.5 38.5q4 32 -14 49t-48 17q-57 0 -97 -37l-22 31q23 23 58 37t68 14q49 0 80.5 -27.5t26.5 -79.5q-2 -17 -7 -33t-15 -31.5
t-18 -27t-25 -26t-26 -23t-30 -22.5l-28.5 -19t-31 -19.5t-28.5 -17.5h192l-5 -45h-258z" />
    <glyph glyph-name="threequarters" unicode="&#xbe;" horiz-adv-x="714" 
d="M115 410q-58 0 -103 16l17 41q49 -14 85 -14q93 0 100 60q4 40 -22.5 55t-86.5 20l4 36q100 9 107 70q2 24 -16 37t-48 13q-33 0 -71 -17l-11 33q47 26 96 26q46 0 75 -24t25 -61q-7 -64 -75 -90q40 -7 59.5 -33.5t16.5 -60.5q-6 -55 -50 -81t-102 -26zM57 80l-31 34
l577 533l29 -33zM546 0l10 91h-171l5 49l164 225h84l-25 -231h65l-4 -43h-65l-10 -91h-53zM434 134h126l21 201z" />
    <glyph glyph-name="questiondown" unicode="&#xbf;" horiz-adv-x="383" 
d="M254 -163q-85 7 -148 54t-63 127q0 43 18 78.5t44 61t53 49t48 52.5t26 61q2 16 0 62l54 6q4 -20 4 -47q0 -44 -19.5 -81.5t-47 -65t-55 -52.5t-47 -54.5t-19.5 -61.5q0 -61 51.5 -96.5t118.5 -42.5zM233 475l7 71h69l-7 -71h-69z" />
    <glyph glyph-name="Agrave" unicode="&#xc0;" horiz-adv-x="611" 
d="M-32 0l352 707h97l144 -707h-62l-55 279h-276l-138 -279h-62zM193 330h241l-60 306l-9 44l-22 -45zM422 736l-207 66l25 58l198 -80z" />
    <glyph glyph-name="Aacute" unicode="&#xc1;" horiz-adv-x="611" 
d="M-32 0l352 707h97l144 -707h-62l-55 279h-276l-138 -279h-62zM193 330h241l-60 306l-9 44l-22 -45zM313 737l-13 43l221 78l14 -57z" />
    <glyph glyph-name="Acircumflex" unicode="&#xc2;" horiz-adv-x="611" 
d="M-32 0l352 707h97l144 -707h-62l-55 279h-276l-138 -279h-62zM193 330h241l-60 306l-9 44l-22 -45zM519 737l-135 73l-156 -72l-16 42l177 85l155 -86z" />
    <glyph glyph-name="Atilde" unicode="&#xc3;" horiz-adv-x="611" 
d="M-32 0l352 707h97l144 -707h-62l-55 279h-276l-138 -279h-62zM193 330h241l-60 306l-9 44l-22 -45zM436 748q-20 0 -62.5 18t-60.5 18q-37 0 -71 -24l-20 35q46 38 96 38q24 0 63.5 -18t59.5 -18q38 0 70 28l20 -36q-47 -41 -95 -41z" />
    <glyph glyph-name="Adieresis" unicode="&#xc4;" horiz-adv-x="611" 
d="M-32 0l352 707h97l144 -707h-62l-55 279h-276l-138 -279h-62zM193 330h241l-60 306l-9 44l-22 -45zM273 751l-42 50l52 48l43 -48zM470 751l-42 50l52 48l44 -48z" />
    <glyph glyph-name="Aring" unicode="&#xc5;" horiz-adv-x="611" 
d="M-32 0l340 683q-42 24 -42 70q0 51 35.5 83.5t86.5 32.5q41 0 71 -25t30 -63q0 -75 -66 -103l138 -678h-62l-55 279h-276l-138 -279h-62zM371 702q32 0 53 20t21 52q0 26 -17.5 42.5t-43.5 16.5q-32 0 -53 -20t-21 -52q0 -27 17 -43t44 -16zM193 330h241l-69 350z" />
    <glyph glyph-name="AE" unicode="&#xc6;" horiz-adv-x="889" 
d="M-48 0l474 707h428l-5 -50h-318l-29 -276h297l-6 -52h-296l-30 -279h342l-5 -50h-401l35 329h-204l-214 -329h-68zM268 381h175l29 276h-24z" />
    <glyph glyph-name="Ccedilla" unicode="&#xc7;" horiz-adv-x="591" 
d="M362 -10q-143 0 -226.5 88t-83.5 234q0 179 103 290t280 111q97 0 158 -27l-22 -49q-63 23 -139 23q-152 0 -235 -95t-83 -252q0 -129 72.5 -198.5t200.5 -69.5q84 0 150 22l12 -52q-80 -25 -187 -25zM285 -229l-15 31q56 33 62 79q2 25 -18 68h62q16 -30 13 -63
q-6 -75 -104 -115z" />
    <glyph glyph-name="Egrave" unicode="&#xc8;" horiz-adv-x="562" 
d="M75 0l75 707h377l-5 -50h-318l-29 -276h296l-5 -52h-296l-30 -279h342l-5 -50h-402zM405 736l-207 66l25 58l198 -80z" />
    <glyph glyph-name="Eacute" unicode="&#xc9;" horiz-adv-x="562" 
d="M75 0l75 707h377l-5 -50h-318l-29 -276h296l-5 -52h-296l-30 -279h342l-5 -50h-402zM278 737l-13 43l221 78l14 -57z" />
    <glyph glyph-name="Ecircumflex" unicode="&#xca;" horiz-adv-x="562" 
d="M75 0l75 707h377l-5 -50h-318l-29 -276h296l-5 -52h-296l-30 -279h342l-5 -50h-402zM483 737l-135 73l-156 -72l-16 42l177 85l155 -86z" />
    <glyph glyph-name="Edieresis" unicode="&#xcb;" horiz-adv-x="562" 
d="M75 0l75 707h377l-5 -50h-318l-29 -276h296l-5 -52h-296l-30 -279h342l-5 -50h-402zM252 751l-42 50l52 48l43 -48zM449 751l-42 50l52 48l44 -48z" />
    <glyph glyph-name="Igrave" unicode="&#xcc;" horiz-adv-x="285" 
d="M75 0l75 707h59l-74 -707h-60zM219 736l-207 66l25 58l198 -80z" />
    <glyph glyph-name="Iacute" unicode="&#xcd;" horiz-adv-x="285" 
d="M75 0l75 707h59l-74 -707h-60zM141 737l-13 43l221 78l14 -57z" />
    <glyph glyph-name="Icircumflex" unicode="&#xce;" horiz-adv-x="285" 
d="M75 0l75 707h59l-74 -707h-60zM328 737l-135 73l-156 -72l-16 42l177 85l155 -86z" />
    <glyph glyph-name="Idieresis" unicode="&#xcf;" horiz-adv-x="285" 
d="M75 0l75 707h59l-74 -707h-60zM86 751l-42 50l52 48l43 -48zM283 751l-42 50l52 48l44 -48z" />
    <glyph glyph-name="Eth" unicode="&#xd0;" horiz-adv-x="716" 
d="M75 0l35 325h-70l6 53h69l35 330h172q155 0 249 -79t94 -235q0 -196 -107 -295t-304 -99h-179zM138 51h133q159 0 246 89.5t87 251.5q0 135 -77 200t-213 65h-112l-29 -279h148l-6 -53h-148z" />
    <glyph glyph-name="Ntilde" unicode="&#xd1;" horiz-adv-x="726" 
d="M75 0l76 707h99l272 -685l70 685h59l-77 -707h-105l-264 668l-70 -668h-60zM477 748q-20 0 -62.5 18t-60.5 18q-36 0 -71 -24l-20 35q46 38 96 38q24 0 63.5 -18t59.5 -18q38 0 70 28l20 -36q-47 -41 -95 -41z" />
    <glyph glyph-name="Ograve" unicode="&#xd2;" horiz-adv-x="779" 
d="M343 -11q-141 0 -216 87t-75 234q0 180 102.5 294t278.5 114q141 0 218 -87.5t77 -233.5q0 -181 -103.5 -294.5t-281.5 -113.5zM352 40q149 0 231 102t82 256q0 122 -62 194.5t-179 72.5q-146 0 -228.5 -100.5t-82.5 -252.5q0 -122 60.5 -197t178.5 -75zM483 736l-207 66
l25 58l198 -80z" />
    <glyph glyph-name="Oacute" unicode="&#xd3;" horiz-adv-x="779" 
d="M343 -11q-141 0 -216 87t-75 234q0 180 102.5 294t278.5 114q141 0 218 -87.5t77 -233.5q0 -181 -103.5 -294.5t-281.5 -113.5zM352 40q149 0 231 102t82 256q0 122 -62 194.5t-179 72.5q-146 0 -228.5 -100.5t-82.5 -252.5q0 -122 60.5 -197t178.5 -75zM351 737l-13 43
l221 78l14 -57z" />
    <glyph glyph-name="Ocircumflex" unicode="&#xd4;" horiz-adv-x="779" 
d="M343 -11q-141 0 -216 87t-75 234q0 180 102.5 294t278.5 114q141 0 218 -87.5t77 -233.5q0 -181 -103.5 -294.5t-281.5 -113.5zM352 40q149 0 231 102t82 256q0 122 -62 194.5t-179 72.5q-146 0 -228.5 -100.5t-82.5 -252.5q0 -122 60.5 -197t178.5 -75zM571 737l-135 73
l-156 -72l-16 42l177 85l155 -86z" />
    <glyph glyph-name="Otilde" unicode="&#xd5;" horiz-adv-x="779" 
d="M343 -11q-141 0 -216 87t-75 234q0 180 102.5 294t278.5 114q141 0 218 -87.5t77 -233.5q0 -181 -103.5 -294.5t-281.5 -113.5zM352 40q149 0 231 102t82 256q0 122 -62 194.5t-179 72.5q-146 0 -228.5 -100.5t-82.5 -252.5q0 -122 60.5 -197t178.5 -75zM492 748
q-20 0 -62.5 18t-60.5 18q-37 0 -71 -24l-20 35q46 38 96 38q24 0 63.5 -18t59.5 -18q38 0 70 28l20 -36q-47 -41 -95 -41z" />
    <glyph glyph-name="Odieresis" unicode="&#xd6;" horiz-adv-x="779" 
d="M343 -11q-141 0 -216 87t-75 234q0 180 102.5 294t278.5 114q141 0 218 -87.5t77 -233.5q0 -181 -103.5 -294.5t-281.5 -113.5zM352 40q149 0 231 102t82 256q0 122 -62 194.5t-179 72.5q-146 0 -228.5 -100.5t-82.5 -252.5q0 -122 60.5 -197t178.5 -75zM333 751l-42 50
l52 48l43 -48zM530 751l-42 50l52 48l44 -48z" />
    <glyph glyph-name="multiply" unicode="&#xd7;" horiz-adv-x="600" 
d="M459 86l-166 186l-197 -177l-33 37l196 178l-158 176l40 35l157 -176l202 182l34 -37l-202 -183l166 -186z" />
    <glyph glyph-name="Oslash" unicode="&#xd8;" horiz-adv-x="779" 
d="M62 -25l-36 31l85 90q-59 83 -59 214q0 180 102.5 294t278.5 114q122 0 198 -68l76 80l37 -33l-79 -84q63 -85 63 -216q0 -181 -103.5 -294.5t-281.5 -113.5q-127 0 -201 71zM154 142l436 464q-64 59 -166 59q-146 0 -228.5 -100.5t-82.5 -252.5q0 -103 41 -170zM352 40
q149 0 231 102t82 256q0 100 -43 169l-438 -463q62 -64 168 -64z" />
    <glyph glyph-name="Ugrave" unicode="&#xd9;" horiz-adv-x="714" 
d="M330 -12q-50 0 -91 9.5t-77.5 31.5t-57 64t-20.5 101q0 11 2 39l50 474h61l-49 -467q-2 -26 -2 -36q0 -164 181 -164q92 0 151.5 50t72.5 175l46 442h56l-47 -445q-8 -79 -35.5 -135.5t-68 -85.5t-82.5 -41t-90 -12zM472 736l-207 66l25 58l198 -80z" />
    <glyph glyph-name="Uacute" unicode="&#xda;" horiz-adv-x="714" 
d="M330 -12q-50 0 -91 9.5t-77.5 31.5t-57 64t-20.5 101q0 11 2 39l50 474h61l-49 -467q-2 -26 -2 -36q0 -164 181 -164q92 0 151.5 50t72.5 175l46 442h56l-47 -445q-8 -79 -35.5 -135.5t-68 -85.5t-82.5 -41t-90 -12zM340 737l-13 43l221 78l14 -57z" />
    <glyph glyph-name="Ucircumflex" unicode="&#xdb;" horiz-adv-x="714" 
d="M330 -12q-50 0 -91 9.5t-77.5 31.5t-57 64t-20.5 101q0 11 2 39l50 474h61l-49 -467q-2 -26 -2 -36q0 -164 181 -164q92 0 151.5 50t72.5 175l46 442h56l-47 -445q-8 -79 -35.5 -135.5t-68 -85.5t-82.5 -41t-90 -12zM550 737l-135 73l-156 -72l-16 42l177 85l155 -86z
" />
    <glyph glyph-name="Udieresis" unicode="&#xdc;" horiz-adv-x="714" 
d="M330 -12q-50 0 -91 9.5t-77.5 31.5t-57 64t-20.5 101q0 11 2 39l50 474h61l-49 -467q-2 -26 -2 -36q0 -164 181 -164q92 0 151.5 50t72.5 175l46 442h56l-47 -445q-8 -79 -35.5 -135.5t-68 -85.5t-82.5 -41t-90 -12zM296 751l-42 50l52 48l43 -48zM493 751l-42 50l52 48
l44 -48z" />
    <glyph glyph-name="Yacute" unicode="&#xdd;" horiz-adv-x="495" 
d="M173 0l29 284l-177 423h65l149 -371l243 371h63l-283 -423l-30 -284h-59zM226 737l-13 43l221 78l14 -57z" />
    <glyph glyph-name="Thorn" unicode="&#xde;" horiz-adv-x="560" 
d="M75 0l75 707h59l-14 -137h124q53 0 90.5 -6.5t71.5 -24t51.5 -54.5t17.5 -93q0 -119 -73.5 -181.5t-194.5 -62.5q-24 0 -36 1l5 51h16q218 -3 218 189q0 73 -41.5 102.5t-118.5 29.5h-135l-54 -521h-61z" />
    <glyph glyph-name="germandbls" unicode="&#xdf;" horiz-adv-x="625" 
d="M60 -220l83 798q6 57 25.5 97t50 60.5t64.5 29.5t77 9q35 0 66.5 -12t55.5 -44t24 -80q0 -35 -22 -70t-48 -58.5t-48 -48.5t-22 -41q0 -25 18.5 -50.5t45 -48.5t53 -48.5t45 -62t18.5 -77.5q0 -49 -31.5 -83t-69.5 -46.5t-77 -12.5q-67 0 -139 24l16 50q55 -21 120 -21
q51 0 88 23.5t37 55.5q0 31 -13.5 58.5t-33.5 47.5t-43.5 42t-43.5 42t-33.5 47.5t-13.5 57.5q0 24 14 47t34.5 42t40.5 38.5t34 44.5t14 53q0 36 -28 57.5t-65 21.5q-75 0 -111 -37t-43 -108l-84 -797h-55z" />
    <glyph glyph-name="agrave" unicode="&#xe0;" horiz-adv-x="521" 
d="M146 -13q-50 0 -76 44t-26 115q0 64 21.5 133.5t60 130.5t100.5 100.5t134 39.5q57 0 90 -7l-56 -543h-57l12 107q-67 -61 -115 -90.5t-88 -29.5zM158 42q34 0 97 47t100 84l35 325q-9 2 -41 2q-58 0 -107 -35t-78.5 -88.5t-46 -112.5t-16.5 -112q0 -49 14.5 -79.5
t42.5 -30.5zM413 619l-168 122l34 45l162 -129z" />
    <glyph glyph-name="aacute" unicode="&#xe1;" horiz-adv-x="521" 
d="M146 -13q-50 0 -76 44t-26 115q0 64 21.5 133.5t60 130.5t100.5 100.5t134 39.5q57 0 90 -7l-56 -543h-57l12 107q-67 -61 -115 -90.5t-88 -29.5zM158 42q34 0 97 47t100 84l35 325q-9 2 -41 2q-58 0 -107 -35t-78.5 -88.5t-46 -112.5t-16.5 -112q0 -49 14.5 -79.5
t42.5 -30.5zM308 622l-27 37l174 137l34 -46z" />
    <glyph glyph-name="acircumflex" unicode="&#xe2;" horiz-adv-x="521" 
d="M146 -13q-50 0 -76 44t-26 115q0 64 21.5 133.5t60 130.5t100.5 100.5t134 39.5q57 0 90 -7l-56 -543h-57l12 107q-67 -61 -115 -90.5t-88 -29.5zM158 42q34 0 97 47t100 84l35 325q-9 2 -41 2q-58 0 -107 -35t-78.5 -88.5t-46 -112.5t-16.5 -112q0 -49 14.5 -79.5
t42.5 -30.5zM210 626l-23 39l185 111l154 -111l-25 -39l-136 90z" />
    <glyph glyph-name="atilde" unicode="&#xe3;" horiz-adv-x="521" 
d="M146 -13q-50 0 -76 44t-26 115q0 64 21.5 133.5t60 130.5t100.5 100.5t134 39.5q57 0 90 -7l-56 -543h-57l12 107q-67 -61 -115 -90.5t-88 -29.5zM158 42q34 0 97 47t100 84l35 325q-9 2 -41 2q-58 0 -107 -35t-78.5 -88.5t-46 -112.5t-16.5 -112q0 -49 14.5 -79.5
t42.5 -30.5zM420 649q-19 0 -62 18t-61 18q-37 0 -71 -24l-20 35q1 1 6 5t9.5 7.5t13 8.5t17.5 8.5t22.5 6t27.5 2.5q24 0 63.5 -18t59.5 -18q38 0 70 28l20 -36q-41 -41 -95 -41z" />
    <glyph glyph-name="adieresis" unicode="&#xe4;" horiz-adv-x="521" 
d="M146 -13q-50 0 -76 44t-26 115q0 64 21.5 133.5t60 130.5t100.5 100.5t134 39.5q57 0 90 -7l-56 -543h-57l12 107q-67 -61 -115 -90.5t-88 -29.5zM158 42q34 0 97 47t100 84l35 325q-9 2 -41 2q-58 0 -107 -35t-78.5 -88.5t-46 -112.5t-16.5 -112q0 -49 14.5 -79.5
t42.5 -30.5zM270 668l-43 47l53 48l43 -48zM457 668l-42 47l52 48l43 -48z" />
    <glyph glyph-name="aring" unicode="&#xe5;" horiz-adv-x="521" 
d="M146 -13q-50 0 -76 44t-26 115q0 64 21.5 133.5t60 130.5t100.5 100.5t134 39.5q57 0 90 -7l-56 -543h-57l12 107q-67 -61 -115 -90.5t-88 -29.5zM158 42q34 0 97 47t100 84l35 325q-9 2 -41 2q-58 0 -107 -35t-78.5 -88.5t-46 -112.5t-16.5 -112q0 -49 14.5 -79.5
t42.5 -30.5zM362 613q-43 0 -73 23.5t-30 62.5q0 51 35.5 83.5t86.5 32.5q41 0 71 -25t30 -63q0 -51 -34 -82.5t-86 -31.5zM364 648q32 0 53 20t21 52q0 26 -17.5 42.5t-43.5 16.5q-32 0 -53 -20t-21 -52q0 -27 17 -43t44 -16z" />
    <glyph glyph-name="ae" unicode="&#xe6;" horiz-adv-x="742" 
d="M146 -13q-49 0 -74 49t-25 128q0 165 89.5 275.5t222.5 110.5q42 0 90 -8l-9 -70q66 89 168 89q126 0 126 -119q0 -88 -132 -138l-188 -72q0 -6 -0.5 -16.5t-0.5 -15.5q0 -159 69 -159q54 0 171 54l21 -45q-2 -1 -15.5 -8t-17 -9t-16.5 -8.5t-18.5 -8.5t-18.5 -7t-21 -7
t-20.5 -5.5t-23 -5t-23.5 -2.5t-26 -1q-95 0 -112 129q-135 -130 -216 -130zM158 42q34 0 95.5 46.5t99.5 84.5l35 324l-49 2q-63 2 -118.5 -45.5t-86.5 -120.5t-31 -148q0 -84 14 -113.5t41 -29.5zM420 286l167 67q91 36 91 87q0 37 -21 53.5t-52 16.5q-44 0 -78.5 -19.5
t-55 -54t-32.5 -71t-19 -79.5z" />
    <glyph glyph-name="ccedilla" unicode="&#xe7;" horiz-adv-x="438" 
d="M166 -12q-34 0 -58.5 20t-37 51.5t-18 62.5t-5.5 61q0 161 70.5 269t189.5 108q74 0 122 -50l-35 -34q-42 35 -93 35q-54 0 -94 -32t-60.5 -82.5t-30 -101t-9.5 -100.5q0 -72 18.5 -113t42.5 -41q77 0 190 60l21 -42q-37 -22 -60.5 -34t-66.5 -24.5t-86 -12.5zM155 -229
l-15 31q56 33 62 79q2 25 -18 68h62q16 -30 13 -63q-6 -75 -104 -115z" />
    <glyph glyph-name="egrave" unicode="&#xe8;" horiz-adv-x="433" 
d="M165 -12q-63 0 -91 56.5t-28 145.5q0 159 67.5 265t185.5 106q63 0 94.5 -33.5t31.5 -85.5q0 -88 -132 -138l-188 -72q-1 -10 -1 -31q0 -160 68 -160q65 0 173 54l20 -45q-84 -44 -130 -54q-35 -8 -70 -8zM110 286l168 67q91 36 91 87q0 37 -21 53.5t-52 16.5
q-149 0 -186 -224zM324 619l-168 122l34 45l162 -129z" />
    <glyph glyph-name="eacute" unicode="&#xe9;" horiz-adv-x="433" 
d="M165 -12q-63 0 -91 56.5t-28 145.5q0 159 67.5 265t185.5 106q63 0 94.5 -33.5t31.5 -85.5q0 -88 -132 -138l-188 -72q-1 -10 -1 -31q0 -160 68 -160q65 0 173 54l20 -45q-84 -44 -130 -54q-35 -8 -70 -8zM110 286l168 67q91 36 91 87q0 37 -21 53.5t-52 16.5
q-149 0 -186 -224zM228 622l-27 37l174 137l34 -46z" />
    <glyph glyph-name="ecircumflex" unicode="&#xea;" horiz-adv-x="433" 
d="M165 -12q-63 0 -91 56.5t-28 145.5q0 159 67.5 265t185.5 106q63 0 94.5 -33.5t31.5 -85.5q0 -88 -132 -138l-188 -72q-1 -10 -1 -31q0 -160 68 -160q65 0 173 54l20 -45q-84 -44 -130 -54q-35 -8 -70 -8zM110 286l168 67q91 36 91 87q0 37 -21 53.5t-52 16.5
q-149 0 -186 -224zM146 626l-23 39l185 111l154 -111l-25 -39l-136 90z" />
    <glyph glyph-name="edieresis" unicode="&#xeb;" horiz-adv-x="433" 
d="M165 -12q-63 0 -91 56.5t-28 145.5q0 159 67.5 265t185.5 106q63 0 94.5 -33.5t31.5 -85.5q0 -88 -132 -138l-188 -72q-1 -10 -1 -31q0 -160 68 -160q65 0 173 54l20 -45q-84 -44 -130 -54q-35 -8 -70 -8zM110 286l168 67q91 36 91 87q0 37 -21 53.5t-52 16.5
q-149 0 -186 -224zM207 668l-43 47l53 48l43 -48zM394 668l-42 47l52 48l43 -48z" />
    <glyph glyph-name="igrave" unicode="&#xec;" horiz-adv-x="264" 
d="M70 0l57 546h56l-57 -546h-56zM196 619l-168 122l34 45l162 -129z" />
    <glyph glyph-name="iacute" unicode="&#xed;" horiz-adv-x="264" 
d="M70 0l57 546h56l-57 -546h-56zM120 622l-27 37l174 137l34 -46z" />
    <glyph glyph-name="icircumflex" unicode="&#xee;" horiz-adv-x="264" 
d="M70 0l57 546h56l-57 -546h-56zM25 626l-23 39l185 111l154 -111l-25 -39l-136 90z" />
    <glyph glyph-name="idieresis" unicode="&#xef;" horiz-adv-x="264" 
d="M70 0l57 546h56l-57 -546h-56zM75 668l-43 47l53 48l43 -48zM262 668l-42 47l52 48l43 -48z" />
    <glyph glyph-name="eth" unicode="&#xf0;" horiz-adv-x="501" 
d="M194 -12q-68 0 -107.5 56t-39.5 131q0 176 73.5 279.5t190.5 103.5q34 0 62 -14q-12 43 -35 88l-108 -33l-14 47l96 29q-25 34 -52 55l35 39q40 -29 73 -77l110 34l14 -47l-99 -30q63 -126 63 -287q0 -62 -14.5 -124.5t-44 -120t-82.5 -93.5t-121 -36zM218 39
q77 0 129 92t52 230q0 76 -27.5 113t-87.5 37q-71 0 -124.5 -95.5t-53.5 -222.5q0 -154 112 -154z" />
    <glyph glyph-name="ntilde" unicode="&#xf1;" horiz-adv-x="544" 
d="M69 0l57 546h57l-10 -98q1 1 18.5 16t25 21t26 20t32 21.5t31.5 16.5t35.5 13t34.5 4q52 0 71.5 -20.5t19.5 -66.5q0 -17 -6 -79l-43 -394h-56l42 381q7 59 7 78q0 28 -12 39t-44 11q-15 0 -45 -16.5t-55 -34.5t-54.5 -40.5t-33.5 -25.5l-42 -392h-56zM394 649
q-19 0 -62 18t-61 18q-37 0 -71 -24l-20 35q1 1 6 5t9.5 7.5t13 8.5t17.5 8.5t22.5 6t27.5 2.5q24 0 63.5 -18t59.5 -18q38 0 70 28l20 -36q-41 -41 -95 -41z" />
    <glyph glyph-name="ograve" unicode="&#xf2;" horiz-adv-x="501" 
d="M195 -12q-68 0 -108 54.5t-40 132.5q0 176 73.5 280.5t190.5 104.5q69 0 107 -54.5t38 -126.5t-14.5 -138.5t-44 -124.5t-82 -93t-120.5 -35zM212 38q77 0 131.5 93t54.5 230q0 77 -25 113.5t-84 36.5q-75 0 -129 -94t-54 -224q0 -155 106 -155zM342 619l-168 122l34 45
l162 -129z" />
    <glyph glyph-name="oacute" unicode="&#xf3;" horiz-adv-x="501" 
d="M195 -12q-68 0 -108 54.5t-40 132.5q0 176 73.5 280.5t190.5 104.5q69 0 107 -54.5t38 -126.5t-14.5 -138.5t-44 -124.5t-82 -93t-120.5 -35zM212 38q77 0 131.5 93t54.5 230q0 77 -25 113.5t-84 36.5q-75 0 -129 -94t-54 -224q0 -155 106 -155zM258 622l-27 37l174 137
l34 -46z" />
    <glyph glyph-name="ocircumflex" unicode="&#xf4;" horiz-adv-x="501" 
d="M195 -12q-68 0 -108 54.5t-40 132.5q0 176 73.5 280.5t190.5 104.5q69 0 107 -54.5t38 -126.5t-14.5 -138.5t-44 -124.5t-82 -93t-120.5 -35zM212 38q77 0 131.5 93t54.5 230q0 77 -25 113.5t-84 36.5q-75 0 -129 -94t-54 -224q0 -155 106 -155zM171 626l-23 39l185 111
l154 -111l-25 -39l-136 90z" />
    <glyph glyph-name="otilde" unicode="&#xf5;" horiz-adv-x="501" 
d="M195 -12q-68 0 -108 54.5t-40 132.5q0 176 73.5 280.5t190.5 104.5q69 0 107 -54.5t38 -126.5t-14.5 -138.5t-44 -124.5t-82 -93t-120.5 -35zM212 38q77 0 131.5 93t54.5 230q0 77 -25 113.5t-84 36.5q-75 0 -129 -94t-54 -224q0 -155 106 -155zM372 649q-19 0 -62 18
t-61 18q-37 0 -71 -24l-20 35q1 1 6 5t9.5 7.5t13 8.5t17.5 8.5t22.5 6t27.5 2.5q24 0 63.5 -18t59.5 -18q38 0 70 28l20 -36q-41 -41 -95 -41z" />
    <glyph glyph-name="odieresis" unicode="&#xf6;" horiz-adv-x="501" 
d="M195 -12q-68 0 -108 54.5t-40 132.5q0 176 73.5 280.5t190.5 104.5q69 0 107 -54.5t38 -126.5t-14.5 -138.5t-44 -124.5t-82 -93t-120.5 -35zM212 38q77 0 131.5 93t54.5 230q0 77 -25 113.5t-84 36.5q-75 0 -129 -94t-54 -224q0 -155 106 -155zM212 668l-43 47l53 48
l43 -48zM399 668l-42 47l52 48l43 -48z" />
    <glyph glyph-name="divide" unicode="&#xf7;" horiz-adv-x="600" 
d="M236 74l7 65h64l-7 -65h-64zM44 277l5 50h505l-5 -50h-505zM278 469l7 66h64l-7 -66h-64z" />
    <glyph glyph-name="oslash" unicode="&#xf8;" horiz-adv-x="501" 
d="M11 -28l-34 29l82 96q-12 41 -12 78q0 174 74 279.5t190 105.5q63 0 104 -51l55 63l34 -28l-65 -77q17 -42 17 -88q0 -72 -14.5 -138.5t-44 -124.5t-82 -93t-120.5 -35q-73 0 -115 64zM109 154l269 312q-26 45 -89 45q-73 0 -128 -91.5t-55 -226.5zM212 38q77 0 131.5 93
t54.5 230q0 24 -4 54l-274 -317q23 -60 92 -60z" />
    <glyph glyph-name="ugrave" unicode="&#xf9;" horiz-adv-x="543" 
d="M177 -11q-53 0 -75.5 26.5t-22.5 82.5q0 22 3 47l43 401h56l-42 -379q-5 -47 -5 -68q0 -35 11.5 -49t41.5 -14q11 0 23 2.5t25 8.5t23.5 11.5t24 16t21.5 16t22 18t18.5 16.5t17.5 17l14 13l42 391h56l-58 -546h-56l10 98q-29 -30 -50 -48.5t-62.5 -39.5t-80.5 -21z
M351 619l-168 122l34 45l162 -129z" />
    <glyph glyph-name="uacute" unicode="&#xfa;" horiz-adv-x="543" 
d="M177 -11q-53 0 -75.5 26.5t-22.5 82.5q0 22 3 47l43 401h56l-42 -379q-5 -47 -5 -68q0 -35 11.5 -49t41.5 -14q11 0 23 2.5t25 8.5t23.5 11.5t24 16t21.5 16t22 18t18.5 16.5t17.5 17l14 13l42 391h56l-58 -546h-56l10 98q-29 -30 -50 -48.5t-62.5 -39.5t-80.5 -21z
M277 622l-27 37l174 137l34 -46z" />
    <glyph glyph-name="ucircumflex" unicode="&#xfb;" horiz-adv-x="543" 
d="M177 -11q-53 0 -75.5 26.5t-22.5 82.5q0 22 3 47l43 401h56l-42 -379q-5 -47 -5 -68q0 -35 11.5 -49t41.5 -14q11 0 23 2.5t25 8.5t23.5 11.5t24 16t21.5 16t22 18t18.5 16.5t17.5 17l14 13l42 391h56l-58 -546h-56l10 98q-29 -30 -50 -48.5t-62.5 -39.5t-80.5 -21z
M172 626l-23 39l185 111l154 -111l-25 -39l-136 90z" />
    <glyph glyph-name="udieresis" unicode="&#xfc;" horiz-adv-x="543" 
d="M177 -11q-53 0 -75.5 26.5t-22.5 82.5q0 22 3 47l43 401h56l-42 -379q-5 -47 -5 -68q0 -35 11.5 -49t41.5 -14q11 0 23 2.5t25 8.5t23.5 11.5t24 16t21.5 16t22 18t18.5 16.5t17.5 17l14 13l42 391h56l-58 -546h-56l10 98q-29 -30 -50 -48.5t-62.5 -39.5t-80.5 -21z
M220 668l-43 47l53 48l43 -48zM407 668l-42 47l52 48l43 -48z" />
    <glyph glyph-name="yacute" unicode="&#xfd;" horiz-adv-x="457" 
d="M70 -220l106 220h-41l-87 546h62l77 -517l160 334q20 42 33.5 91t13.5 80q0 2 -0.5 6t-0.5 6h57v-12q0 -76 -47 -175l-275 -579h-58zM226 622l-27 37l174 137l34 -46z" />
    <glyph glyph-name="thorn" unicode="&#xfe;" horiz-adv-x="528" 
d="M43 -220l107 973h55l-30 -281q113 80 185 80q62 0 95 -36.5t33 -120.5q0 -101 -29.5 -189.5t-96.5 -150t-161 -61.5q-38 0 -78 7l-24 -221h-56zM208 44q47 0 86.5 25t64 63t41 86t23.5 92.5t7 84.5q0 60 -17.5 84t-52.5 24q-64 0 -192 -94l-39 -353q9 -2 21 -4.5t18.5 -4
t17 -2.5t22.5 -1z" />
    <glyph glyph-name="ydieresis" unicode="&#xff;" horiz-adv-x="457" 
d="M70 -220l106 220h-41l-87 546h62l77 -517l160 334q20 42 33.5 91t13.5 80q0 2 -0.5 6t-0.5 6h57v-12q0 -76 -47 -175l-275 -579h-58zM171 668l-43 47l53 48l43 -48zM358 668l-42 47l52 48l43 -48z" />
    <glyph glyph-name="Amacron" unicode="&#x100;" horiz-adv-x="611" 
d="M-32 0l352 707h97l144 -707h-62l-55 279h-276l-138 -279h-62zM193 330h241l-60 306l-9 44l-22 -45zM239 765l5 48h271l-5 -48h-271z" />
    <glyph glyph-name="amacron" unicode="&#x101;" horiz-adv-x="521" 
d="M146 -13q-50 0 -76 44t-26 115q0 64 21.5 133.5t60 130.5t100.5 100.5t134 39.5q57 0 90 -7l-56 -543h-57l12 107q-67 -61 -115 -90.5t-88 -29.5zM158 42q34 0 97 47t100 84l35 325q-9 2 -41 2q-58 0 -107 -35t-78.5 -88.5t-46 -112.5t-16.5 -112q0 -49 14.5 -79.5
t42.5 -30.5zM222 675l5 48h271l-5 -48h-271z" />
    <glyph glyph-name="Abreve" unicode="&#x102;" horiz-adv-x="611" 
d="M-32 0l352 707h97l144 -707h-62l-55 279h-276l-138 -279h-62zM193 330h241l-60 306l-9 44l-22 -45zM369 753q-103 0 -148 78l35 29q5 -8 16 -19.5t40.5 -25.5t64.5 -14q79 0 132 58l27 -26q-3 -6 -8 -12t-19.5 -19.5t-32 -23t-46 -17.5t-61.5 -8z" />
    <glyph glyph-name="abreve" unicode="&#x103;" horiz-adv-x="521" 
d="M146 -13q-50 0 -76 44t-26 115q0 64 21.5 133.5t60 130.5t100.5 100.5t134 39.5q57 0 90 -7l-56 -543h-57l12 107q-67 -61 -115 -90.5t-88 -29.5zM158 42q34 0 97 47t100 84l35 325q-9 2 -41 2q-58 0 -107 -35t-78.5 -88.5t-46 -112.5t-16.5 -112q0 -49 14.5 -79.5
t42.5 -30.5zM351 652q-103 0 -148 78l35 29q5 -8 16 -19.5t40.5 -25.5t64.5 -14q79 0 132 58l27 -26q-3 -6 -8 -12t-19.5 -19.5t-32 -23t-46 -17.5t-61.5 -8z" />
    <glyph glyph-name="Aogonek" unicode="&#x104;" horiz-adv-x="611" 
d="M487 -217q-107 0 -97 100q6 63 107 125l-53 271h-276l-138 -279h-62l352 707h97l144 -707q-39 -22 -75.5 -54t-39.5 -60q-4 -31 12.5 -42.5t51.5 -11.5q27 0 39 8l11 -44q-22 -13 -73 -13zM193 330h241l-69 350z" />
    <glyph glyph-name="aogonek" unicode="&#x105;" horiz-adv-x="521" 
d="M319 -217q-50 0 -73.5 25t-23.5 66q0 38 35.5 75.5t80.5 63.5l11 94q-67 -61 -115 -90.5t-88 -29.5q-50 0 -76 44t-26 115q0 64 21.5 133.5t60 130.5t100.5 100.5t134 39.5q57 0 90 -7l-57 -543q-40 -23 -77.5 -55.5t-37.5 -60.5q0 -31 15 -41.5t49 -10.5q27 0 39 8
l11 -44q-22 -13 -73 -13zM158 42q34 0 97 47t100 84l35 325q-9 2 -41 2q-58 0 -107 -35t-78.5 -88.5t-46 -112.5t-16.5 -112q0 -49 14.5 -79.5t42.5 -30.5z" />
    <glyph glyph-name="Cacute" unicode="&#x106;" horiz-adv-x="591" 
d="M362 -10q-143 0 -226.5 88t-83.5 234q0 179 103 290t280 111q97 0 158 -27l-22 -49q-63 23 -139 23q-152 0 -235 -95t-83 -252q0 -129 72.5 -198.5t200.5 -69.5q84 0 150 22l12 -52q-80 -25 -187 -25zM339 737l-13 43l221 78l14 -57z" />
    <glyph glyph-name="cacute" unicode="&#x107;" horiz-adv-x="438" 
d="M166 -12q-34 0 -58.5 20t-37 51.5t-18 62.5t-5.5 61q0 161 70.5 269t189.5 108q74 0 122 -50l-35 -34q-42 35 -93 35q-54 0 -94 -32t-60.5 -82.5t-30 -101t-9.5 -100.5q0 -72 18.5 -113t42.5 -41q77 0 190 60l21 -42q-37 -22 -60.5 -34t-66.5 -24.5t-86 -12.5zM248 622
l-27 37l174 137l34 -46z" />
    <glyph glyph-name="Ccircumflex" unicode="&#x108;" horiz-adv-x="591" 
d="M362 -10q-143 0 -226.5 88t-83.5 234q0 179 103 290t280 111q97 0 158 -27l-22 -49q-63 23 -139 23q-152 0 -235 -95t-83 -252q0 -129 72.5 -198.5t200.5 -69.5q84 0 150 22l12 -52q-80 -25 -187 -25zM579 737l-135 73l-156 -72l-16 42l177 85l155 -86z" />
    <glyph glyph-name="ccircumflex" unicode="&#x109;" horiz-adv-x="438" 
d="M166 -12q-34 0 -58.5 20t-37 51.5t-18 62.5t-5.5 61q0 161 70.5 269t189.5 108q74 0 122 -50l-35 -34q-42 35 -93 35q-54 0 -94 -32t-60.5 -82.5t-30 -101t-9.5 -100.5q0 -72 18.5 -113t42.5 -41q77 0 190 60l21 -42q-37 -22 -60.5 -34t-66.5 -24.5t-86 -12.5zM161 626
l-23 39l185 111l154 -111l-25 -39l-136 90z" />
    <glyph glyph-name="Cdotaccent" unicode="&#x10a;" horiz-adv-x="591" 
d="M362 -10q-143 0 -226.5 88t-83.5 234q0 179 103 290t280 111q97 0 158 -27l-22 -49q-63 23 -139 23q-152 0 -235 -95t-83 -252q0 -129 72.5 -198.5t200.5 -69.5q84 0 150 22l12 -52q-80 -25 -187 -25zM433 752l-49 53l61 52l51 -52z" />
    <glyph glyph-name="cdotaccent" unicode="&#x10b;" horiz-adv-x="438" 
d="M166 -12q-34 0 -58.5 20t-37 51.5t-18 62.5t-5.5 61q0 161 70.5 269t189.5 108q74 0 122 -50l-35 -34q-42 35 -93 35q-54 0 -94 -32t-60.5 -82.5t-30 -101t-9.5 -100.5q0 -72 18.5 -113t42.5 -41q77 0 190 60l21 -42q-37 -22 -60.5 -34t-66.5 -24.5t-86 -12.5zM312 663
l-49 53l61 52l51 -52z" />
    <glyph glyph-name="Ccaron" unicode="&#x10c;" horiz-adv-x="591" 
d="M362 -10q-143 0 -226.5 88t-83.5 234q0 179 103 290t280 111q97 0 158 -27l-22 -49q-63 23 -139 23q-152 0 -235 -95t-83 -252q0 -129 72.5 -198.5t200.5 -69.5q84 0 150 22l12 -52q-80 -25 -187 -25zM400 737l-155 86l25 42l135 -73l155 72l17 -42z" />
    <glyph glyph-name="ccaron" unicode="&#x10d;" horiz-adv-x="438" 
d="M166 -12q-34 0 -58.5 20t-37 51.5t-18 62.5t-5.5 61q0 161 70.5 269t189.5 108q74 0 122 -50l-35 -34q-42 35 -93 35q-54 0 -94 -32t-60.5 -82.5t-30 -101t-9.5 -100.5q0 -72 18.5 -113t42.5 -41q77 0 190 60l21 -42q-37 -22 -60.5 -34t-66.5 -24.5t-86 -12.5zM294 626
l-155 111l26 39l135 -93l156 93l22 -39z" />
    <glyph glyph-name="Dcaron" unicode="&#x10e;" horiz-adv-x="718" 
d="M75 0l75 707h172q156 0 249.5 -78.5t93.5 -234.5q0 -193 -106 -293.5t-301 -100.5h-183zM140 51h131q161 0 247 86.5t86 254.5q0 134 -77 199t-213 65h-110zM341 737l-155 86l25 42l135 -73l155 72l17 -42z" />
    <glyph glyph-name="dcaron" unicode="&#x10f;" horiz-adv-x="515" 
d="M146 -13q-52 0 -75 50t-23 127q0 170 91 279t228 107q4 0 14 -0.5t16 -0.5l22 206h56l-81 -755h-56l11 107q-131 -120 -203 -120zM158 42q62 0 197 130l35 329l-51 1q-96 2 -166 -99t-70 -218q0 -84 14 -113.5t41 -29.5zM506 554l46 201h54l-54 -201h-46z" />
    <glyph glyph-name="Dcroat" unicode="&#x110;" horiz-adv-x="716" 
d="M75 0l35 325h-70l6 53h69l35 330h172q155 0 249 -79t94 -235q0 -196 -107 -295t-304 -99h-179zM138 51h133q159 0 246 89.5t87 251.5q0 135 -77 200t-213 65h-112l-29 -279h148l-6 -53h-148z" />
    <glyph glyph-name="dcroat" unicode="&#x111;" horiz-adv-x="515" 
d="M146 -13q-52 0 -75 50t-23 127q0 170 91 279t228 107q4 0 14 -0.5t16 -0.5l8 74h-151l5 45h151l9 87h56l-9 -87h91l-5 -45h-91l-67 -623h-56l11 107q-131 -120 -203 -120zM158 42q62 0 197 130l35 329l-51 1q-96 2 -166 -99t-70 -218q0 -84 14 -113.5t41 -29.5z" />
    <glyph glyph-name="Emacron" unicode="&#x112;" horiz-adv-x="562" 
d="M75 0l75 707h377l-5 -50h-318l-29 -276h296l-5 -52h-296l-30 -279h342l-5 -50h-402zM207 765l5 48h271l-5 -48h-271z" />
    <glyph glyph-name="emacron" unicode="&#x113;" horiz-adv-x="433" 
d="M165 -12q-63 0 -91 56.5t-28 145.5q0 159 67.5 265t185.5 106q63 0 94.5 -33.5t31.5 -85.5q0 -88 -132 -138l-188 -72q-1 -10 -1 -31q0 -160 68 -160q65 0 173 54l20 -45q-84 -44 -130 -54q-35 -8 -70 -8zM110 286l168 67q91 36 91 87q0 37 -21 53.5t-52 16.5
q-149 0 -186 -224zM167 675l5 48h271l-5 -48h-271z" />
    <glyph glyph-name="Ebreve" unicode="&#x114;" horiz-adv-x="562" 
d="M75 0l75 707h377l-5 -50h-318l-29 -276h296l-5 -52h-296l-30 -279h342l-5 -50h-402zM344 753q-102 0 -148 78l35 29q5 -8 16 -19.5t40.5 -25.5t64.5 -14q79 0 132 58l27 -26q-3 -6 -8 -12t-19.5 -19.5t-32 -23t-46 -17.5t-61.5 -8z" />
    <glyph glyph-name="ebreve" unicode="&#x115;" horiz-adv-x="433" 
d="M165 -12q-63 0 -91 56.5t-28 145.5q0 159 67.5 265t185.5 106q63 0 94.5 -33.5t31.5 -85.5q0 -88 -132 -138l-188 -72q-1 -10 -1 -31q0 -160 68 -160q65 0 173 54l20 -45q-84 -44 -130 -54q-35 -8 -70 -8zM110 286l168 67q91 36 91 87q0 37 -21 53.5t-52 16.5
q-149 0 -186 -224zM306 652q-102 0 -148 78l35 29q5 -8 16 -19.5t40.5 -25.5t64.5 -14q79 0 132 58l27 -26q-3 -6 -8 -12t-19.5 -19.5t-32 -23t-46 -17.5t-61.5 -8z" />
    <glyph glyph-name="Edotaccent" unicode="&#x116;" horiz-adv-x="562" 
d="M75 0l75 707h377l-5 -50h-318l-29 -276h296l-5 -52h-296l-30 -279h342l-5 -50h-402zM343 752l-49 53l61 52l51 -52z" />
    <glyph glyph-name="edotaccent" unicode="&#x117;" horiz-adv-x="433" 
d="M165 -12q-63 0 -91 56.5t-28 145.5q0 159 67.5 265t185.5 106q63 0 94.5 -33.5t31.5 -85.5q0 -88 -132 -138l-188 -72q-1 -10 -1 -31q0 -160 68 -160q65 0 173 54l20 -45q-84 -44 -130 -54q-35 -8 -70 -8zM110 286l168 67q91 36 91 87q0 37 -21 53.5t-52 16.5
q-149 0 -186 -224zM278 663l-49 53l61 52l51 -52z" />
    <glyph glyph-name="Eogonek" unicode="&#x118;" horiz-adv-x="562" 
d="M402 -217q-107 0 -97 100q6 58 95 117h-325l75 707h377l-5 -50h-318l-29 -276h296l-5 -52h-296l-30 -279h342l-6 -50q-40 -22 -76 -54t-39 -60q-4 -31 12.5 -42.5t51.5 -11.5q27 0 39 8l11 -44q-22 -13 -73 -13z" />
    <glyph glyph-name="eogonek" unicode="&#x119;" horiz-adv-x="433" 
d="M252 -217q-46 0 -69.5 24t-23.5 65q0 55 74 124q-34 -8 -68 -8q-63 0 -91 56.5t-28 145.5q0 159 67.5 265t185.5 106q63 0 94.5 -33.5t31.5 -85.5q0 -88 -132 -138l-188 -72q-1 -10 -1 -31q0 -160 68 -160q65 0 173 54l20 -45q-51 -30 -100.5 -82t-49.5 -87q0 -50 53 -50
q22 0 51 9l11 -44q-32 -13 -78 -13zM110 286l168 67q91 36 91 87q0 37 -21 53.5t-52 16.5q-149 0 -186 -224z" />
    <glyph glyph-name="Ecaron" unicode="&#x11a;" horiz-adv-x="562" 
d="M75 0l75 707h377l-5 -50h-318l-29 -276h296l-5 -52h-296l-30 -279h342l-5 -50h-402zM334 737l-155 86l25 42l135 -73l155 72l17 -42z" />
    <glyph glyph-name="ecaron" unicode="&#x11b;" horiz-adv-x="433" 
d="M165 -12q-63 0 -91 56.5t-28 145.5q0 159 67.5 265t185.5 106q63 0 94.5 -33.5t31.5 -85.5q0 -88 -132 -138l-188 -72q-1 -10 -1 -31q0 -160 68 -160q65 0 173 54l20 -45q-84 -44 -130 -54q-35 -8 -70 -8zM110 286l168 67q91 36 91 87q0 37 -21 53.5t-52 16.5
q-149 0 -186 -224zM276 626l-155 111l26 39l135 -93l156 93l22 -39z" />
    <glyph glyph-name="Gcircumflex" unicode="&#x11c;" horiz-adv-x="648" 
d="M362 -10q-143 0 -227 88t-84 235q0 178 102.5 289t278.5 111q99 0 157 -25l-23 -49q-62 21 -137 21q-151 0 -233.5 -95t-82.5 -252q0 -129 72.5 -198.5t201.5 -69.5q59 0 104 14l29 291h60l-34 -328q-48 -18 -85.5 -25t-98.5 -7zM574 737l-135 73l-156 -72l-16 42l177 85
l155 -86z" />
    <glyph glyph-name="gcircumflex" unicode="&#x11d;" horiz-adv-x="521" 
d="M151 -231q-75 0 -164 19l13 55q88 -22 139 -22q87 0 136.5 31.5t59.5 123.5l14 131q-67 -63 -113.5 -91.5t-89.5 -28.5q-99 0 -99 160q0 158 91.5 280.5t221.5 122.5q57 0 90 -7l-61 -582q-7 -69 -45 -113.5t-86.5 -61.5t-106.5 -17zM158 42q34 0 97 47t100 84l35 325
q-10 2 -41 2q-69 0 -127 -53t-88.5 -131.5t-30.5 -159.5q0 -66 14.5 -90t40.5 -24zM202 626l-23 39l185 111l154 -111l-25 -39l-136 90z" />
    <glyph glyph-name="Gbreve" unicode="&#x11e;" horiz-adv-x="648" 
d="M362 -10q-143 0 -227 88t-84 235q0 178 102.5 289t278.5 111q99 0 157 -25l-23 -49q-62 21 -137 21q-151 0 -233.5 -95t-82.5 -252q0 -129 72.5 -198.5t201.5 -69.5q59 0 104 14l29 291h60l-34 -328q-48 -18 -85.5 -25t-98.5 -7zM411 753q-102 0 -148 78l35 29
q5 -8 16 -19.5t40.5 -25.5t64.5 -14q79 0 132 58l27 -26q-3 -6 -8 -12t-19.5 -19.5t-32 -23t-46 -17.5t-61.5 -8z" />
    <glyph glyph-name="gbreve" unicode="&#x11f;" horiz-adv-x="521" 
d="M151 -231q-75 0 -164 19l13 55q88 -22 139 -22q87 0 136.5 31.5t59.5 123.5l14 131q-67 -63 -113.5 -91.5t-89.5 -28.5q-99 0 -99 160q0 158 91.5 280.5t221.5 122.5q57 0 90 -7l-61 -582q-7 -69 -45 -113.5t-86.5 -61.5t-106.5 -17zM158 42q34 0 97 47t100 84l35 325
q-10 2 -41 2q-69 0 -127 -53t-88.5 -131.5t-30.5 -159.5q0 -66 14.5 -90t40.5 -24zM336 652q-102 0 -148 78l35 29q5 -8 16 -19.5t40.5 -25.5t64.5 -14q79 0 132 58l27 -26q-3 -6 -8 -12t-19.5 -19.5t-32 -23t-46 -17.5t-61.5 -8z" />
    <glyph glyph-name="Gdotaccent" unicode="&#x120;" horiz-adv-x="648" 
d="M362 -10q-143 0 -227 88t-84 235q0 178 102.5 289t278.5 111q99 0 157 -25l-23 -49q-62 21 -137 21q-151 0 -233.5 -95t-82.5 -252q0 -129 72.5 -198.5t201.5 -69.5q59 0 104 14l29 291h60l-34 -328q-48 -18 -85.5 -25t-98.5 -7zM445 752l-49 53l61 52l51 -52z" />
    <glyph glyph-name="gdotaccent" unicode="&#x121;" horiz-adv-x="521" 
d="M151 -231q-75 0 -164 19l13 55q88 -22 139 -22q87 0 136.5 31.5t59.5 123.5l14 131q-67 -63 -113.5 -91.5t-89.5 -28.5q-99 0 -99 160q0 158 91.5 280.5t221.5 122.5q57 0 90 -7l-61 -582q-7 -69 -45 -113.5t-86.5 -61.5t-106.5 -17zM158 42q34 0 97 47t100 84l35 325
q-10 2 -41 2q-69 0 -127 -53t-88.5 -131.5t-30.5 -159.5q0 -66 14.5 -90t40.5 -24zM342 663l-49 53l61 52l51 -52z" />
    <glyph glyph-name="Gcommaaccent" unicode="&#x122;" horiz-adv-x="648" 
d="M362 -10q-143 0 -227 88t-84 235q0 178 102.5 289t278.5 111q99 0 157 -25l-23 -49q-62 21 -137 21q-151 0 -233.5 -95t-82.5 -252q0 -129 72.5 -198.5t201.5 -69.5q59 0 104 14l29 291h60l-34 -328q-48 -18 -85.5 -25t-98.5 -7zM298 -259l46 201h54l-54 -201h-46z" />
    <glyph glyph-name="gcommaaccent" unicode="&#x123;" horiz-adv-x="521" 
d="M151 -231q-75 0 -164 19l13 55q88 -22 139 -22q87 0 136.5 31.5t59.5 123.5l14 131q-67 -63 -113.5 -91.5t-89.5 -28.5q-99 0 -99 160q0 158 91.5 280.5t221.5 122.5q57 0 90 -7l-61 -582q-7 -69 -45 -113.5t-86.5 -61.5t-106.5 -17zM158 42q34 0 97 47t100 84l35 325
q-10 2 -41 2q-69 0 -127 -53t-88.5 -131.5t-30.5 -159.5q0 -66 14.5 -90t40.5 -24zM431 807l-46 -201h-54l54 201h46z" />
    <glyph glyph-name="Hcircumflex" unicode="&#x124;" horiz-adv-x="742" 
d="M75 0l75 707h59l-34 -327h398l34 328h60l-74 -708h-60l35 329h-398l-35 -329h-60zM554 737l-135 73l-156 -72l-16 42l177 85l155 -86z" />
    <glyph glyph-name="hcircumflex" unicode="&#x125;" horiz-adv-x="544" 
d="M69 0l80 755h56l-32 -307q1 1 18.5 16t25 21t26 20t32 21.5t31.5 16.5t35.5 13t34.5 4q52 0 71.5 -20.5t19.5 -66.5q0 -17 -6 -79l-43 -394h-56l42 381q7 59 7 78q0 28 -12 39t-44 11q-16 0 -45.5 -16.5t-55 -34.5t-54.5 -40.5t-33 -25.5l-42 -392h-56zM320 737l-135 73
l-156 -72l-16 42l177 85l155 -86z" />
    <glyph glyph-name="Hbar" unicode="&#x126;" horiz-adv-x="742" 
d="M75 0l53 502h-64l5 48h64l17 157h59l-17 -157h398l17 158h60l-17 -158h73l-5 -48h-73l-52 -502h-60l35 329h-398l-35 -329h-60zM175 380h398l12 122h-398z" />
    <glyph glyph-name="hbar" unicode="&#x127;" horiz-adv-x="544" 
d="M69 0l66 623h-85l5 45h85l9 87h56l-9 -87h141l-5 -45h-141l-18 -175q1 1 18.5 16t25 21t26 20t32 21.5t31.5 16.5t35.5 13t34.5 4q52 0 71.5 -20.5t19.5 -66.5q0 -17 -6 -79l-43 -394h-56l42 381q7 59 7 78q0 28 -12 39t-44 11q-16 0 -45.5 -16.5t-55 -34.5t-54.5 -40.5
t-33 -25.5l-42 -392h-56z" />
    <glyph glyph-name="Itilde" unicode="&#x128;" horiz-adv-x="285" 
d="M75 0l75 707h59l-74 -707h-60zM244 748q-20 0 -62.5 18t-60.5 18q-37 0 -71 -24l-20 35q46 38 96 38q24 0 63.5 -18t59.5 -18q38 0 70 28l20 -36q-47 -41 -95 -41z" />
    <glyph glyph-name="itilde" unicode="&#x129;" horiz-adv-x="264" 
d="M70 0l57 546h56l-57 -546h-56zM240 649q-19 0 -62 18t-61 18q-37 0 -71 -24l-20 35q1 1 6 5t9.5 7.5t13 8.5t17.5 8.5t22.5 6t27.5 2.5q24 0 63.5 -18t59.5 -18q38 0 70 28l20 -36q-41 -41 -95 -41z" />
    <glyph glyph-name="Imacron" unicode="&#x12a;" horiz-adv-x="285" 
d="M75 0l75 707h59l-74 -707h-60zM50 765l5 48h271l-5 -48h-271z" />
    <glyph glyph-name="imacron" unicode="&#x12b;" horiz-adv-x="264" 
d="M70 0l57 546h56l-57 -546h-56zM40 675l5 48h271l-5 -48h-271z" />
    <glyph glyph-name="Ibreve" unicode="&#x12c;" horiz-adv-x="285" 
d="M75 0l75 707h59l-74 -707h-60zM180 753q-102 0 -148 78l35 29q5 -8 16 -19.5t40.5 -25.5t64.5 -14q79 0 132 58l27 -26q-3 -6 -8 -12t-19.5 -19.5t-32 -23t-46 -17.5t-61.5 -8z" />
    <glyph glyph-name="ibreve" unicode="&#x12d;" horiz-adv-x="264" 
d="M70 0l57 546h56l-57 -546h-56zM162 652q-102 0 -148 78l35 29q5 -8 16 -19.5t40.5 -25.5t64.5 -14q79 0 132 58l27 -26q-3 -6 -8 -12t-19.5 -19.5t-32 -23t-46 -17.5t-61.5 -8z" />
    <glyph glyph-name="Iogonek" unicode="&#x12e;" horiz-adv-x="285" 
d="M61 -217q-107 0 -97 100q7 65 112 128l74 696h59l-76 -708q-108 -64 -113 -113q-4 -31 12.5 -42.5t51.5 -11.5q27 0 39 8l11 -44q-22 -13 -73 -13z" />
    <glyph glyph-name="iogonek" unicode="&#x12f;" horiz-adv-x="264" 
d="M134 -160l11 -44q-30 -12 -63 -12q-49 0 -78 23t-29 68q0 33 29.5 72.5t66.5 65.5l56 533h56l-57 -546q-32 -18 -63.5 -55t-31.5 -66q0 -46 59 -46q26 0 44 7zM166 663l-49 53l61 52l51 -52z" />
    <glyph glyph-name="Idotaccent" unicode="&#x130;" horiz-adv-x="285" 
d="M75 0l75 707h59l-74 -707h-60zM183 752l-49 53l61 52l51 -52z" />
    <glyph glyph-name="dotlessi" unicode="&#x131;" horiz-adv-x="264" 
d="M70 0l57 546h56l-57 -546h-56z" />
    <glyph glyph-name="IJ" unicode="&#x132;" horiz-adv-x="555" 
d="M75 0l75 707h59l-74 -707h-60zM214 -184l-23 44q91 48 127 112t48 179l59 556h59l-58 -554q-13 -128 -61.5 -209t-150.5 -128z" />
    <glyph glyph-name="ij" unicode="&#x133;" horiz-adv-x="504" 
d="M70 0l57 546h56l-57 -546h-56zM164 663l-49 53l61 52l51 -52zM176 -220q-35 0 -62 10l13 51q32 -10 60 -10q63 0 87.5 37t32.5 111l60 567h56l-60 -568q-11 -108 -59.5 -153t-127.5 -45zM404 663l-49 53l61 52l51 -52z" />
    <glyph glyph-name="Jcircumflex" unicode="&#x134;" horiz-adv-x="284" 
d="M-57 -184l-23 44q91 48 127 112t48 179l59 556h59l-58 -554q-13 -128 -61.5 -209t-150.5 -128zM333 737l-135 73l-156 -72l-16 42l177 85l155 -86z" />
    <glyph glyph-name="jcircumflex" unicode="&#x135;" horiz-adv-x="264" 
d="M-64 -220q-35 0 -62 10l13 51q33 -10 60 -10q63 0 87.5 37t32.5 111l60 567h56l-60 -568q-11 -108 -59.5 -153t-127.5 -45zM21 626l-23 39l185 111l154 -111l-25 -39l-136 90z" />
    <glyph glyph-name="Kcommaaccent" unicode="&#x136;" horiz-adv-x="588" 
d="M483 -21l-274 386l2 20l308 322h77l-320 -326l258 -367zM75 0l75 707h59l-74 -707h-60zM201 -259l46 201h54l-54 -201h-46z" />
    <glyph glyph-name="kcommaaccent" unicode="&#x137;" horiz-adv-x="478" 
d="M389 -17l-201 308l203 255h70l-205 -255l186 -278zM69 0l79 754h57l-80 -754h-56zM163 -259l46 201h54l-54 -201h-46z" />
    <glyph glyph-name="Lacute" unicode="&#x139;" horiz-adv-x="478" 
d="M75 0l75 707h59l-68 -653h307l-6 -54h-367zM169 737l-13 43l221 78l14 -57z" />
    <glyph glyph-name="lacute" unicode="&#x13a;" horiz-adv-x="258" 
d="M69 0l79 754h57l-80 -754h-56zM150 771l-13 43l221 78l14 -57z" />
    <glyph glyph-name="Lcommaaccent" unicode="&#x13b;" horiz-adv-x="478" 
d="M75 0l75 707h59l-68 -653h307l-6 -54h-367zM189 -259l46 201h54l-54 -201h-46z" />
    <glyph glyph-name="lcommaaccent" unicode="&#x13c;" horiz-adv-x="258" 
d="M29 -259l46 201h54l-54 -201h-46zM69 0l79 754h57l-80 -754h-56z" />
    <glyph glyph-name="Lcaron" unicode="&#x13d;" horiz-adv-x="478" 
d="M75 0l75 707h59l-68 -653h307l-6 -54h-367zM268 556l46 201h54l-54 -201h-46z" />
    <glyph glyph-name="lcaron" unicode="&#x13e;" horiz-adv-x="258" 
d="M69 0l79 754h57l-80 -754h-56zM232 553l46 201h54l-54 -201h-46z" />
    <glyph glyph-name="Ldot" unicode="&#x13f;" horiz-adv-x="478" 
d="M75 0l75 707h59l-68 -653h307l-6 -54h-367zM333 301l-49 53l61 52l51 -52z" />
    <glyph glyph-name="ldot" unicode="&#x140;" horiz-adv-x="292" 
d="M69 0l79 754h57l-80 -754h-56zM269 299l-49 53l61 52l51 -52z" />
    <glyph glyph-name="Lslash" unicode="&#x141;" horiz-adv-x="464" 
d="M68 0l33 315l-66 -35l5 51l66 36l36 340h60l-32 -306l158 86l-5 -51l-159 -86l-31 -295h307l-5 -55h-367z" />
    <glyph glyph-name="lslash" unicode="&#x142;" horiz-adv-x="258" 
d="M68 0l35 339l-81 -44l6 52l81 43l38 364h56l-35 -332l94 50l-5 -50l-94 -51l-39 -371h-56z" />
    <glyph glyph-name="Nacute" unicode="&#x143;" horiz-adv-x="726" 
d="M75 0l76 707h99l272 -685l70 685h59l-77 -707h-105l-264 668l-70 -668h-60zM364 737l-13 43l221 78l14 -57z" />
    <glyph glyph-name="nacute" unicode="&#x144;" horiz-adv-x="544" 
d="M69 0l57 546h57l-10 -98q1 1 18.5 16t25 21t26 20t32 21.5t31.5 16.5t35.5 13t34.5 4q52 0 71.5 -20.5t19.5 -66.5q0 -17 -6 -79l-43 -394h-56l42 381q7 59 7 78q0 28 -12 39t-44 11q-15 0 -45 -16.5t-55 -34.5t-54.5 -40.5t-33.5 -25.5l-42 -392h-56zM280 622l-27 37
l174 137l34 -46z" />
    <glyph glyph-name="Ncommaaccent" unicode="&#x145;" horiz-adv-x="726" 
d="M75 0l76 707h99l272 -685l70 685h59l-77 -707h-105l-264 668l-70 -668h-60zM244 -259l46 201h54l-54 -201h-46z" />
    <glyph glyph-name="ncommaaccent" unicode="&#x146;" horiz-adv-x="544" 
d="M69 0l57 546h57l-10 -98q1 1 18.5 16t25 21t26 20t32 21.5t31.5 16.5t35.5 13t34.5 4q52 0 71.5 -20.5t19.5 -66.5q0 -17 -6 -79l-43 -394h-56l42 381q7 59 7 78q0 28 -12 39t-44 11q-15 0 -45 -16.5t-55 -34.5t-54.5 -40.5t-33.5 -25.5l-42 -392h-56zM183 -259l46 201
h54l-54 -201h-46z" />
    <glyph glyph-name="Ncaron" unicode="&#x147;" horiz-adv-x="726" 
d="M75 0l76 707h99l272 -685l70 685h59l-77 -707h-105l-264 668l-70 -668h-60zM408 737l-155 86l25 42l135 -73l155 72l17 -42z" />
    <glyph glyph-name="ncaron" unicode="&#x148;" horiz-adv-x="544" 
d="M69 0l57 546h57l-10 -98q1 1 18.5 16t25 21t26 20t32 21.5t31.5 16.5t35.5 13t34.5 4q52 0 71.5 -20.5t19.5 -66.5q0 -17 -6 -79l-43 -394h-56l42 381q7 59 7 78q0 28 -12 39t-44 11q-15 0 -45 -16.5t-55 -34.5t-54.5 -40.5t-33.5 -25.5l-42 -392h-56zM321 626l-155 111
l26 39l135 -93l156 93l22 -39z" />
    <glyph glyph-name="napostrophe" unicode="&#x149;" horiz-adv-x="544" 
d="M69 0l57 546h57l-10 -98q1 1 18.5 16t25 21t26 20t32 21.5t31.5 16.5t35.5 13t34.5 4q52 0 71.5 -20.5t19.5 -66.5q0 -17 -6 -79l-43 -394h-56l42 381q7 59 7 78q0 28 -12 39t-44 11q-15 0 -45 -16.5t-55 -34.5t-54.5 -40.5t-33.5 -25.5l-42 -392h-56zM12 572
q37 91 44 193h65q-1 -20 -3 -38t-7 -35.5t-8 -29t-11 -27.5t-10.5 -22t-12 -22.5t-10.5 -18.5h-47z" />
    <glyph glyph-name="Eng" unicode="&#x14a;" horiz-adv-x="726" 
d="M384 -220q-35 0 -62 10l13 51q33 -10 60 -10q63 0 87.5 37t32.5 111l2 21h-48l-264 668l-70 -668h-60l76 707h99l272 -685l70 685h59l-81 -739q-11 -102 -55 -145t-131 -43z" />
    <glyph glyph-name="eng" unicode="&#x14b;" horiz-adv-x="544" 
d="M228 -220q-35 0 -62 10l13 51q32 -10 60 -10q63 0 87.5 37t32.5 111l45 402q7 59 7 78q0 28 -12 39t-44 11q-15 0 -45 -16.5t-55 -34.5t-54.5 -40.5t-33.5 -25.5l-42 -392h-56l57 546h57l-10 -98q1 1 18.5 16t25 21t26 20t32 21.5t31.5 16.5t35.5 13t34.5 4
q52 0 71.5 -20.5t19.5 -66.5q0 -17 -6 -79l-46 -416q-11 -108 -59.5 -153t-127.5 -45z" />
    <glyph glyph-name="Omacron" unicode="&#x14c;" horiz-adv-x="779" 
d="M343 -11q-141 0 -216 87t-75 234q0 180 102.5 294t278.5 114q141 0 218 -87.5t77 -233.5q0 -181 -103.5 -294.5t-281.5 -113.5zM352 40q149 0 231 102t82 256q0 122 -62 194.5t-179 72.5q-146 0 -228.5 -100.5t-82.5 -252.5q0 -122 60.5 -197t178.5 -75zM296 765l5 48
h271l-5 -48h-271z" />
    <glyph glyph-name="omacron" unicode="&#x14d;" horiz-adv-x="501" 
d="M195 -12q-68 0 -108 54.5t-40 132.5q0 176 73.5 280.5t190.5 104.5q69 0 107 -54.5t38 -126.5t-14.5 -138.5t-44 -124.5t-82 -93t-120.5 -35zM212 38q77 0 131.5 93t54.5 230q0 77 -25 113.5t-84 36.5q-75 0 -129 -94t-54 -224q0 -155 106 -155zM172 675l5 48h271l-5 -48
h-271z" />
    <glyph glyph-name="Obreve" unicode="&#x14e;" horiz-adv-x="779" 
d="M343 -11q-141 0 -216 87t-75 234q0 180 102.5 294t278.5 114q141 0 218 -87.5t77 -233.5q0 -181 -103.5 -294.5t-281.5 -113.5zM352 40q149 0 231 102t82 256q0 122 -62 194.5t-179 72.5q-146 0 -228.5 -100.5t-82.5 -252.5q0 -122 60.5 -197t178.5 -75zM430 753
q-102 0 -148 78l35 29q5 -8 16 -19.5t40.5 -25.5t64.5 -14q79 0 132 58l27 -26q-3 -6 -8 -12t-19.5 -19.5t-32 -23t-46 -17.5t-61.5 -8z" />
    <glyph glyph-name="obreve" unicode="&#x14f;" horiz-adv-x="501" 
d="M195 -12q-68 0 -108 54.5t-40 132.5q0 176 73.5 280.5t190.5 104.5q69 0 107 -54.5t38 -126.5t-14.5 -138.5t-44 -124.5t-82 -93t-120.5 -35zM212 38q77 0 131.5 93t54.5 230q0 77 -25 113.5t-84 36.5q-75 0 -129 -94t-54 -224q0 -155 106 -155zM294 652q-102 0 -148 78
l35 29q5 -8 16 -19.5t40.5 -25.5t64.5 -14q79 0 132 58l27 -26q-3 -6 -8 -12t-19.5 -19.5t-32 -23t-46 -17.5t-61.5 -8z" />
    <glyph glyph-name="Ohungarumlaut" unicode="&#x150;" horiz-adv-x="779" 
d="M343 -11q-141 0 -216 87t-75 234q0 180 102.5 294t278.5 114q141 0 218 -87.5t77 -233.5q0 -181 -103.5 -294.5t-281.5 -113.5zM352 40q149 0 231 102t82 256q0 122 -62 194.5t-179 72.5q-146 0 -228.5 -100.5t-82.5 -252.5q0 -122 60.5 -197t178.5 -75zM296 738l-26 37
l188 141l30 -50zM471 737l-13 43l221 78l14 -57z" />
    <glyph glyph-name="ohungarumlaut" unicode="&#x151;" horiz-adv-x="501" 
d="M195 -12q-68 0 -108 54.5t-40 132.5q0 176 73.5 280.5t190.5 104.5q69 0 107 -54.5t38 -126.5t-14.5 -138.5t-44 -124.5t-82 -93t-120.5 -35zM212 38q77 0 131.5 93t54.5 230q0 77 -25 113.5t-84 36.5q-75 0 -129 -94t-54 -224q0 -155 106 -155zM178 619l-20 39l195 131
l28 -51zM405 624l-25 36l194 136l32 -47z" />
    <glyph glyph-name="OE" unicode="&#x152;" horiz-adv-x="1068" 
d="M343 -11q-141 0 -216 87t-75 234q0 180 102.5 294t278.5 114q137 0 215 -84l8 73h377l-5 -50h-318l-29 -276h296l-5 -52h-296l-30 -279h342l-5 -50h-402l8 69q-99 -80 -246 -80zM352 42q161 0 247 122l39 373q-58 126 -214 126q-146 0 -228.5 -99.5t-82.5 -251.5
q0 -122 60.5 -196t178.5 -74z" />
    <glyph glyph-name="oe" unicode="&#x153;" horiz-adv-x="773" 
d="M195 -12q-68 0 -108 54.5t-40 132.5q0 176 73.5 280.5t190.5 104.5q52 0 86.5 -32t49.5 -83q70 116 192 116q63 0 94.5 -33.5t31.5 -85.5q0 -88 -132 -138l-188 -72q-1 -10 -1 -31q0 -160 68 -160q65 0 173 54l20 -45q-84 -44 -130 -54q-35 -8 -70 -8q-89 0 -112 120
q-71 -120 -198 -120zM212 38q77 0 131.5 93t54.5 230q0 77 -25 113.5t-84 36.5q-72 0 -127.5 -93t-55.5 -225q0 -155 106 -155zM450 286l168 67q91 36 91 87q0 37 -21 53.5t-52 16.5q-149 0 -186 -224z" />
    <glyph glyph-name="Racute" unicode="&#x154;" horiz-adv-x="612" 
d="M530 -17l-202 331q-34 -4 -94 -4h-64l-34 -310h-61l75 707h206q91 0 145.5 -44.5t54.5 -122.5q0 -76 -43 -134t-123 -78l195 -314zM175 362h101q102 0 158.5 44t56.5 133q0 119 -161 119h-125zM270 737l-13 43l221 78l14 -57z" />
    <glyph glyph-name="racute" unicode="&#x155;" horiz-adv-x="345" 
d="M69 0l57 546h56l-10 -101q29 29 46 45t60 41t77 25q9 0 23 -2l-11 -51q-3 1 -16 1q-10 0 -22 -4t-22.5 -9t-25.5 -14.5t-25 -16.5t-26 -20t-23 -18.5t-22.5 -19t-18.5 -15.5l-41 -387h-56zM215 622l-27 37l174 137l34 -46z" />
    <glyph glyph-name="Rcommaaccent" unicode="&#x156;" horiz-adv-x="612" 
d="M530 -17l-202 331q-34 -4 -94 -4h-64l-34 -310h-61l75 707h206q91 0 145.5 -44.5t54.5 -122.5q0 -76 -43 -134t-123 -78l195 -314zM175 362h101q102 0 158.5 44t56.5 133q0 119 -161 119h-125zM223 -259l46 201h54l-54 -201h-46z" />
    <glyph glyph-name="rcommaaccent" unicode="&#x157;" horiz-adv-x="345" 
d="M69 0l57 546h56l-10 -101q29 29 46 45t60 41t77 25q9 0 23 -2l-11 -51q-3 1 -16 1q-10 0 -22 -4t-22.5 -9t-25.5 -14.5t-25 -16.5t-26 -20t-23 -18.5t-22.5 -19t-18.5 -15.5l-41 -387h-56zM31 -259l46 201h54l-54 -201h-46z" />
    <glyph glyph-name="Rcaron" unicode="&#x158;" horiz-adv-x="612" 
d="M530 -17l-202 331q-34 -4 -94 -4h-64l-34 -310h-61l75 707h206q91 0 145.5 -44.5t54.5 -122.5q0 -76 -43 -134t-123 -78l195 -314zM175 362h101q102 0 158.5 44t56.5 133q0 119 -161 119h-125zM328 737l-155 86l25 42l135 -73l155 72l17 -42z" />
    <glyph glyph-name="rcaron" unicode="&#x159;" horiz-adv-x="345" 
d="M69 0l57 546h56l-10 -101q29 29 46 45t60 41t77 25q9 0 23 -2l-11 -51q-3 1 -16 1q-10 0 -22 -4t-22.5 -9t-25.5 -14.5t-25 -16.5t-26 -20t-23 -18.5t-22.5 -19t-18.5 -15.5l-41 -387h-56zM253 626l-155 111l26 39l135 -93l156 93l22 -39z" />
    <glyph glyph-name="Sacute" unicode="&#x15a;" horiz-adv-x="466" 
d="M182 -11q-45 0 -102 14.5t-86 33.5l25 53q94 -46 167 -46q174 0 174 146q0 38 -29.5 70.5t-72 58t-85 54t-72 72t-29.5 97.5q0 82 61.5 126t153.5 44q49 0 96.5 -11t71.5 -26l-19 -50q-72 34 -153 34q-153 0 -153 -119q0 -33 21.5 -62.5t53 -51t69 -47.5t69 -50.5t53 -61
t21.5 -79.5q0 -94 -65.5 -146.5t-169.5 -52.5zM228 737l-13 43l221 78l14 -57z" />
    <glyph glyph-name="sacute" unicode="&#x15b;" horiz-adv-x="423" 
d="M168 -9q-87 0 -139 23l17 52q67 -24 126 -24q19 0 38.5 3.5t43 12t38 28t14.5 46.5q0 33 -22 61.5t-53 51t-62 46t-53 56t-22 71.5q0 74 48 105.5t124 31.5q72 0 132 -29l-19 -45q-80 26 -128 26q-104 0 -104 -78q0 -33 22 -61t53.5 -50t62.5 -46t53 -58.5t22 -77.5
q0 -73 -57 -109t-135 -36zM232 622l-27 37l174 137l34 -46z" />
    <glyph glyph-name="Scircumflex" unicode="&#x15c;" horiz-adv-x="466" 
d="M182 -11q-45 0 -102 14.5t-86 33.5l25 53q94 -46 167 -46q174 0 174 146q0 38 -29.5 70.5t-72 58t-85 54t-72 72t-29.5 97.5q0 82 61.5 126t153.5 44q49 0 96.5 -11t71.5 -26l-19 -50q-72 34 -153 34q-153 0 -153 -119q0 -33 21.5 -62.5t53 -51t69 -47.5t69 -50.5t53 -61
t21.5 -79.5q0 -94 -65.5 -146.5t-169.5 -52.5zM434 737l-135 73l-156 -72l-16 42l177 85l155 -86z" />
    <glyph glyph-name="scircumflex" unicode="&#x15d;" horiz-adv-x="423" 
d="M168 -9q-87 0 -139 23l17 52q67 -24 126 -24q19 0 38.5 3.5t43 12t38 28t14.5 46.5q0 33 -22 61.5t-53 51t-62 46t-53 56t-22 71.5q0 74 48 105.5t124 31.5q72 0 132 -29l-19 -45q-80 26 -128 26q-104 0 -104 -78q0 -33 22 -61t53.5 -50t62.5 -46t53 -58.5t22 -77.5
q0 -73 -57 -109t-135 -36zM119 626l-23 39l185 111l154 -111l-25 -39l-136 90z" />
    <glyph glyph-name="Scedilla" unicode="&#x15e;" horiz-adv-x="466" 
d="M182 -11q-45 0 -102 14.5t-86 33.5l25 53q94 -46 167 -46q174 0 174 146q0 38 -29.5 70.5t-72 58t-85 54t-72 72t-29.5 97.5q0 82 61.5 126t153.5 44q49 0 96.5 -11t71.5 -26l-19 -50q-72 34 -153 34q-153 0 -153 -119q0 -33 21.5 -62.5t53 -51t69 -47.5t69 -50.5t53 -61
t21.5 -79.5q0 -94 -65.5 -146.5t-169.5 -52.5zM127 -229l-15 31q56 33 62 79q2 25 -18 68h62q16 -30 13 -63q-6 -75 -104 -115z" />
    <glyph glyph-name="scedilla" unicode="&#x15f;" horiz-adv-x="423" 
d="M168 -9q-87 0 -139 23l17 52q67 -24 126 -24q19 0 38.5 3.5t43 12t38 28t14.5 46.5q0 33 -22 61.5t-53 51t-62 46t-53 56t-22 71.5q0 74 48 105.5t124 31.5q72 0 132 -29l-19 -45q-80 26 -128 26q-104 0 -104 -78q0 -33 22 -61t53.5 -50t62.5 -46t53 -58.5t22 -77.5
q0 -73 -57 -109t-135 -36zM110 -229l-15 31q56 33 62 79q2 25 -18 68h62q16 -30 13 -63q-6 -75 -104 -115z" />
    <glyph glyph-name="Scaron" unicode="&#x160;" horiz-adv-x="466" 
d="M182 -11q-45 0 -102 14.5t-86 33.5l25 53q94 -46 167 -46q174 0 174 146q0 38 -29.5 70.5t-72 58t-85 54t-72 72t-29.5 97.5q0 82 61.5 126t153.5 44q49 0 96.5 -11t71.5 -26l-19 -50q-72 34 -153 34q-153 0 -153 -119q0 -33 21.5 -62.5t53 -51t69 -47.5t69 -50.5t53 -61
t21.5 -79.5q0 -94 -65.5 -146.5t-169.5 -52.5zM274 737l-155 86l25 42l135 -73l155 72l17 -42z" />
    <glyph glyph-name="scaron" unicode="&#x161;" horiz-adv-x="423" 
d="M168 -9q-87 0 -139 23l17 52q67 -24 126 -24q19 0 38.5 3.5t43 12t38 28t14.5 46.5q0 33 -22 61.5t-53 51t-62 46t-53 56t-22 71.5q0 74 48 105.5t124 31.5q72 0 132 -29l-19 -45q-80 26 -128 26q-104 0 -104 -78q0 -33 22 -61t53.5 -50t62.5 -46t53 -58.5t22 -77.5
q0 -73 -57 -109t-135 -36zM273 626l-155 111l26 39l135 -93l156 93l22 -39z" />
    <glyph glyph-name="Tcommaaccent" unicode="&#x162;" horiz-adv-x="541" 
d="M212 0l68 654h-246l6 53h552l-6 -53h-246l-69 -654h-59zM171 -259l46 201h54l-54 -201h-46z" />
    <glyph glyph-name="tcommaaccent" unicode="&#x163;" horiz-adv-x="374" 
d="M174 -12q-46 0 -64 14q-30 23 -30 87q0 24 2 38l41 368h-80l5 51h80l11 112h56l-11 -112h177l-5 -51h-177l-40 -363q-3 -27 -3 -44q0 -28 10 -38t36 -10q51 0 119 34l15 -47q-19 -12 -60 -25.5t-82 -13.5zM114 -259l46 201h54l-54 -201h-46z" />
    <glyph glyph-name="Tcaron" unicode="&#x164;" horiz-adv-x="541" 
d="M212 0l68 654h-246l6 53h552l-6 -53h-246l-69 -654h-59zM314 737l-155 86l25 42l135 -73l155 72l17 -42z" />
    <glyph glyph-name="tcaron" unicode="&#x165;" horiz-adv-x="374" 
d="M174 -12q-46 0 -64 14q-30 23 -30 87q0 24 2 38l41 368h-80l5 51h80l11 112h56l-11 -112h177l-5 -51h-177l-40 -363q-3 -27 -3 -44q0 -28 10 -38t36 -10q51 0 119 34l15 -47q-19 -12 -60 -25.5t-82 -13.5zM266 606l46 201h54l-54 -201h-46z" />
    <glyph glyph-name="Tbar" unicode="&#x166;" horiz-adv-x="541" 
d="M212 0l36 353h-156l5 45h156l27 256h-246l6 53h552l-6 -53h-246l-27 -256h157l-5 -45h-157l-37 -353h-59z" />
    <glyph glyph-name="tbar" unicode="&#x167;" horiz-adv-x="374" 
d="M174 -12q-46 0 -64 14q-30 23 -30 87q0 24 2 38l19 177h-61l5 45h61l17 146h-80l5 51h80l11 112h56l-11 -112h177l-5 -51h-177l-16 -146h163l-5 -45h-163l-19 -172q-3 -27 -3 -44q0 -28 10 -38t36 -10q51 0 119 34l15 -47q-19 -12 -60 -25.5t-82 -13.5z" />
    <glyph glyph-name="Utilde" unicode="&#x168;" horiz-adv-x="714" 
d="M330 -12q-50 0 -91 9.5t-77.5 31.5t-57 64t-20.5 101q0 11 2 39l50 474h61l-49 -467q-2 -26 -2 -36q0 -164 181 -164q92 0 151.5 50t72.5 175l46 442h56l-47 -445q-8 -79 -35.5 -135.5t-68 -85.5t-82.5 -41t-90 -12zM471 748q-20 0 -62.5 18t-60.5 18q-36 0 -71 -24
l-20 35q46 38 96 38q24 0 63.5 -18t59.5 -18q38 0 70 28l20 -36q-47 -41 -95 -41z" />
    <glyph glyph-name="utilde" unicode="&#x169;" horiz-adv-x="543" 
d="M177 -11q-53 0 -75.5 26.5t-22.5 82.5q0 22 3 47l43 401h56l-42 -379q-5 -47 -5 -68q0 -35 11.5 -49t41.5 -14q11 0 23 2.5t25 8.5t23.5 11.5t24 16t21.5 16t22 18t18.5 16.5t17.5 17l14 13l42 391h56l-58 -546h-56l10 98q-29 -30 -50 -48.5t-62.5 -39.5t-80.5 -21z
M403 649q-19 0 -62 18t-61 18q-36 0 -71 -24l-20 35q1 1 6 5t9.5 7.5t13 8.5t17.5 8.5t22.5 6t27.5 2.5q24 0 63.5 -18t59.5 -18q38 0 70 28l20 -36q-41 -41 -95 -41z" />
    <glyph glyph-name="Umacron" unicode="&#x16a;" horiz-adv-x="714" 
d="M330 -12q-50 0 -91 9.5t-77.5 31.5t-57 64t-20.5 101q0 11 2 39l50 474h61l-49 -467q-2 -26 -2 -36q0 -164 181 -164q92 0 151.5 50t72.5 175l46 442h56l-47 -445q-8 -79 -35.5 -135.5t-68 -85.5t-82.5 -41t-90 -12zM265 765l5 48h271l-5 -48h-271z" />
    <glyph glyph-name="umacron" unicode="&#x16b;" horiz-adv-x="543" 
d="M177 -11q-53 0 -75.5 26.5t-22.5 82.5q0 22 3 47l43 401h56l-42 -379q-5 -47 -5 -68q0 -35 11.5 -49t41.5 -14q11 0 23 2.5t25 8.5t23.5 11.5t24 16t21.5 16t22 18t18.5 16.5t17.5 17l14 13l42 391h56l-58 -546h-56l10 98q-29 -30 -50 -48.5t-62.5 -39.5t-80.5 -21z
M179 675l5 48h271l-5 -48h-271z" />
    <glyph glyph-name="Ubreve" unicode="&#x16c;" horiz-adv-x="714" 
d="M330 -12q-50 0 -91 9.5t-77.5 31.5t-57 64t-20.5 101q0 11 2 39l50 474h61l-49 -467q-2 -26 -2 -36q0 -164 181 -164q92 0 151.5 50t72.5 175l46 442h56l-47 -445q-8 -79 -35.5 -135.5t-68 -85.5t-82.5 -41t-90 -12zM403 742q-103 0 -148 78l35 29q5 -8 16 -19.5
t40.5 -25.5t64.5 -14q79 0 132 58l27 -26q-3 -6 -8 -12t-19.5 -19.5t-32 -23t-46 -17.5t-61.5 -8z" />
    <glyph glyph-name="ubreve" unicode="&#x16d;" horiz-adv-x="543" 
d="M177 -11q-53 0 -75.5 26.5t-22.5 82.5q0 22 3 47l43 401h56l-42 -379q-5 -47 -5 -68q0 -35 11.5 -49t41.5 -14q11 0 23 2.5t25 8.5t23.5 11.5t24 16t21.5 16t22 18t18.5 16.5t17.5 17l14 13l42 391h56l-58 -546h-56l10 98q-29 -30 -50 -48.5t-62.5 -39.5t-80.5 -21z
M318 652q-102 0 -148 78l35 29q5 -8 16 -19.5t40.5 -25.5t64.5 -14q79 0 132 58l27 -26q-3 -6 -8 -12t-19.5 -19.5t-32 -23t-46 -17.5t-61.5 -8z" />
    <glyph glyph-name="Uring" unicode="&#x16e;" horiz-adv-x="714" 
d="M330 -12q-50 0 -91 9.5t-77.5 31.5t-57 64t-20.5 101q0 11 2 39l50 474h61l-49 -467q-2 -26 -2 -36q0 -164 181 -164q92 0 151.5 50t72.5 175l46 442h56l-47 -445q-8 -79 -35.5 -135.5t-68 -85.5t-82.5 -41t-90 -12zM397 702q-43 0 -73 23.5t-30 62.5q0 51 35.5 83.5
t86.5 32.5q41 0 71 -25t30 -63q0 -51 -34 -82.5t-86 -31.5zM399 737q32 0 53 20t21 52q0 26 -17.5 42.5t-43.5 16.5q-32 0 -53 -20t-21 -52q0 -27 17 -43t44 -16z" />
    <glyph glyph-name="uring" unicode="&#x16f;" horiz-adv-x="543" 
d="M177 -11q-53 0 -75.5 26.5t-22.5 82.5q0 22 3 47l43 401h56l-42 -379q-5 -47 -5 -68q0 -35 11.5 -49t41.5 -14q11 0 23 2.5t25 8.5t23.5 11.5t24 16t21.5 16t22 18t18.5 16.5t17.5 17l14 13l42 391h56l-58 -546h-56l10 98q-29 -30 -50 -48.5t-62.5 -39.5t-80.5 -21z
M316 613q-43 0 -73 23.5t-30 62.5q0 51 35.5 83.5t86.5 32.5q41 0 71 -25t30 -63q0 -51 -34 -82.5t-86 -31.5zM318 648q32 0 53 20t21 52q0 26 -17.5 42.5t-43.5 16.5q-32 0 -53 -20t-21 -52q0 -27 17 -43t44 -16z" />
    <glyph glyph-name="Uhungarumlaut" unicode="&#x170;" horiz-adv-x="714" 
d="M330 -12q-50 0 -91 9.5t-77.5 31.5t-57 64t-20.5 101q0 11 2 39l50 474h61l-49 -467q-2 -26 -2 -36q0 -164 181 -164q92 0 151.5 50t72.5 175l46 442h56l-47 -445q-8 -79 -35.5 -135.5t-68 -85.5t-82.5 -41t-90 -12zM266 738l-26 37l188 141l30 -50zM441 737l-13 43
l221 78l14 -57z" />
    <glyph glyph-name="uhungarumlaut" unicode="&#x171;" horiz-adv-x="543" 
d="M177 -11q-53 0 -75.5 26.5t-22.5 82.5q0 22 3 47l43 401h56l-42 -379q-5 -47 -5 -68q0 -35 11.5 -49t41.5 -14q11 0 23 2.5t25 8.5t23.5 11.5t24 16t21.5 16t22 18t18.5 16.5t17.5 17l14 13l42 391h56l-58 -546h-56l10 98q-29 -30 -50 -48.5t-62.5 -39.5t-80.5 -21z
M193 619l-20 39l195 131l28 -51zM420 624l-25 36l194 136l32 -47z" />
    <glyph glyph-name="Uogonek" unicode="&#x172;" horiz-adv-x="714" 
d="M346 -217q-107 0 -97 100q5 52 77 105q-242 2 -242 205q0 26 2 40l50 474h61l-49 -467q-2 -26 -2 -36q0 -164 181 -164q92 0 151.5 50t72.5 175l46 442h56l-47 -445q-22 -217 -186 -262q-110 -66 -115 -114q-4 -31 12.5 -42.5t51.5 -11.5q27 0 39 8l11 -44
q-22 -13 -73 -13z" />
    <glyph glyph-name="uogonek" unicode="&#x173;" horiz-adv-x="543" 
d="M342 -217q-107 0 -97 100q6 66 116 130l9 85q-29 -30 -50 -48.5t-62.5 -39.5t-80.5 -21q-53 0 -75.5 26.5t-22.5 82.5q0 22 3 47l43 401h56l-42 -379q-5 -47 -5 -68q0 -35 11.5 -49t41.5 -14q11 0 23 2.5t25 8.5t23.5 11.5t24 16t21.5 16t22 18t18.5 16.5t17.5 17l14 13
l42 391h56l-59 -546q-40 -23 -75.5 -54.5t-38.5 -59.5q-4 -31 12.5 -42.5t51.5 -11.5q27 0 39 8l11 -44q-22 -13 -73 -13z" />
    <glyph glyph-name="Wcircumflex" unicode="&#x174;" horiz-adv-x="873" 
d="M139 0l-101 707h61l89 -661l245 515l-28 146h62l125 -665l260 665h59l-278 -707h-88l-97 475l-226 -475h-83zM582 737l-135 73l-156 -72l-16 42l177 85l155 -86z" />
    <glyph glyph-name="wcircumflex" unicode="&#x175;" horiz-adv-x="757" 
d="M145 0l-97 546h62l82 -516l190 322l-34 194h62l79 -516l158 333q46 97 46 169q0 10 -1 14h57v-12q0 -75 -48 -175l-171 -359h-89l-47 281l-164 -281h-85zM257 626l-23 39l185 111l154 -111l-25 -39l-136 90z" />
    <glyph glyph-name="Ycircumflex" unicode="&#x176;" horiz-adv-x="495" 
d="M173 0l29 284l-177 423h65l149 -371l243 371h63l-283 -423l-30 -284h-59zM430 737l-135 73l-156 -72l-16 42l177 85l155 -86z" />
    <glyph glyph-name="ycircumflex" unicode="&#x177;" horiz-adv-x="457" 
d="M70 -220l106 220h-41l-87 546h62l77 -517l160 334q20 42 33.5 91t13.5 80q0 2 -0.5 6t-0.5 6h57v-12q0 -76 -47 -175l-275 -579h-58zM107 626l-23 39l185 111l154 -111l-25 -39l-136 90z" />
    <glyph glyph-name="Ydieresis" unicode="&#x178;" horiz-adv-x="495" 
d="M173 0l29 284l-177 423h65l149 -371l243 371h63l-283 -423l-30 -284h-59zM184 751l-42 50l52 48l43 -48zM381 751l-42 50l52 48l44 -48z" />
    <glyph glyph-name="Zacute" unicode="&#x179;" horiz-adv-x="514" 
d="M-10 0l6 60l443 590h-355l6 57h422l-5 -53l-446 -598h404l-6 -56h-469zM238 737l-13 43l221 78l14 -57z" />
    <glyph glyph-name="zacute" unicode="&#x17a;" horiz-adv-x="426" 
d="M-6 0l6 56l353 439h-280l5 51h343l-5 -53l-361 -443h319l-5 -50h-375zM218 622l-27 37l174 137l34 -46z" />
    <glyph glyph-name="Zdotaccent" unicode="&#x17b;" horiz-adv-x="514" 
d="M-10 0l6 60l443 590h-355l6 57h422l-5 -53l-446 -598h404l-6 -56h-469zM302 752l-49 53l61 52l51 -52z" />
    <glyph glyph-name="zdotaccent" unicode="&#x17c;" horiz-adv-x="426" 
d="M-6 0l6 56l353 439h-280l5 51h343l-5 -53l-361 -443h319l-5 -50h-375zM260 663l-49 53l61 52l51 -52z" />
    <glyph glyph-name="Zcaron" unicode="&#x17d;" horiz-adv-x="514" 
d="M-10 0l6 60l443 590h-355l6 57h422l-5 -53l-446 -598h404l-6 -56h-469zM300 737l-155 86l25 42l135 -73l155 72l17 -42z" />
    <glyph glyph-name="zcaron" unicode="&#x17e;" horiz-adv-x="426" 
d="M-6 0l6 56l353 439h-280l5 51h343l-5 -53l-361 -443h319l-5 -50h-375zM257 626l-155 111l26 39l135 -93l156 93l22 -39z" />
    <glyph glyph-name="uni018F" unicode="&#x18f;" horiz-adv-x="745" 
d="M331 -12q-137 0 -206 81t-69 220q0 19 8 93h575q7 128 -53 206t-184 78q-116 0 -265 -69l-11 47q149 73 291 73t212 -82t70 -221q0 -185 -96.5 -305.5t-271.5 -120.5zM340 39q133 0 203.5 78.5t89.5 213.5h-517q-1 -11 -1 -32q0 -117 54 -188.5t171 -71.5z" />
    <glyph glyph-name="florin" unicode="&#x192;" horiz-adv-x="432" 
d="M-32 -9l2 47q6 0 18 1q30 2 44.5 3.5t38 6t36.5 13.5t28 24t23.5 39t12.5 57l10 79h-104l5 50h106l6 45q8 61 32 102t61.5 60.5t74.5 26.5t86 7l-2 -48q-86 -8 -112 -18q-67 -25 -82 -121q-1 -5 -2 -11l-6 -43h111l-5 -50h-113l-11 -82q-6 -42 -20 -74.5t-36 -52.5
t-44.5 -33t-53 -18.5t-53 -7.5t-51.5 -2z" />
    <glyph glyph-name="uni01D3" unicode="&#x1d3;" horiz-adv-x="714" 
d="M330 -12q-50 0 -91 9.5t-77.5 31.5t-57 64t-20.5 101q0 11 2 39l50 474h61l-49 -467q-2 -26 -2 -36q0 -164 181 -164q92 0 151.5 50t72.5 175l46 442h56l-47 -445q-8 -79 -35.5 -135.5t-68 -85.5t-82.5 -41t-90 -12zM390 737l-155 86l25 42l135 -73l155 72l17 -42z" />
    <glyph glyph-name="uni01D4" unicode="&#x1d4;" horiz-adv-x="630" 
d="M177 -11q-53 0 -75.5 26.5t-22.5 82.5q0 22 3 47l43 401h56l-42 -379q-5 -47 -5 -68q0 -35 11.5 -49t41.5 -14q11 0 23 2.5t25 8.5t23.5 11.5t24 16t21.5 16t22 18t18.5 16.5t17.5 17l14 13l42 391h56l-58 -546h-56l10 98q-29 -30 -50 -48.5t-62.5 -39.5t-80.5 -21z
M304 626l-155 111l26 39l135 -93l156 93l22 -39z" />
    <glyph glyph-name="AEmacron" unicode="&#x1e2;" horiz-adv-x="889" 
d="M-48 0l474 707h428l-5 -50h-318l-29 -276h297l-6 -52h-296l-30 -279h342l-5 -50h-401l35 329h-204l-214 -329h-68zM268 381h175l29 276h-24zM508 765l5 48h271l-5 -48h-271z" />
    <glyph glyph-name="aemacron" unicode="&#x1e3;" horiz-adv-x="742" 
d="M146 -13q-49 0 -74 49t-25 128q0 165 89.5 275.5t222.5 110.5q42 0 90 -8l-9 -70q66 89 168 89q126 0 126 -119q0 -88 -132 -138l-188 -72q0 -6 -0.5 -16.5t-0.5 -15.5q0 -159 69 -159q54 0 171 54l21 -45q-2 -1 -15.5 -8t-17 -9t-16.5 -8.5t-18.5 -8.5t-18.5 -7t-21 -7
t-20.5 -5.5t-23 -5t-23.5 -2.5t-26 -1q-95 0 -112 129q-135 -130 -216 -130zM158 42q34 0 95.5 46.5t99.5 84.5l35 324l-49 2q-63 2 -118.5 -45.5t-86.5 -120.5t-31 -148q0 -84 14 -113.5t41 -29.5zM420 286l167 67q91 36 91 87q0 37 -21 53.5t-52 16.5q-44 0 -78.5 -19.5
t-55 -54t-32.5 -71t-19 -79.5zM335 675l5 48h271l-5 -48h-271z" />
    <glyph glyph-name="AEacute" unicode="&#x1fc;" horiz-adv-x="889" 
d="M-48 0l474 707h428l-5 -50h-318l-29 -276h297l-6 -52h-296l-30 -279h342l-5 -50h-401l35 329h-204l-214 -329h-68zM268 381h175l29 276h-24zM557 737l-13 43l221 78l14 -57z" />
    <glyph glyph-name="aeacute" unicode="&#x1fd;" horiz-adv-x="742" 
d="M146 -13q-49 0 -74 49t-25 128q0 165 89.5 275.5t222.5 110.5q42 0 90 -8l-9 -70q66 89 168 89q126 0 126 -119q0 -88 -132 -138l-188 -72q0 -6 -0.5 -16.5t-0.5 -15.5q0 -159 69 -159q54 0 171 54l21 -45q-2 -1 -15.5 -8t-17 -9t-16.5 -8.5t-18.5 -8.5t-18.5 -7t-21 -7
t-20.5 -5.5t-23 -5t-23.5 -2.5t-26 -1q-95 0 -112 129q-135 -130 -216 -130zM158 42q34 0 95.5 46.5t99.5 84.5l35 324l-49 2q-63 2 -118.5 -45.5t-86.5 -120.5t-31 -148q0 -84 14 -113.5t41 -29.5zM420 286l167 67q91 36 91 87q0 37 -21 53.5t-52 16.5q-44 0 -78.5 -19.5
t-55 -54t-32.5 -71t-19 -79.5zM416 622l-27 37l174 137l34 -46z" />
    <glyph glyph-name="Oslashacute" unicode="&#x1fe;" horiz-adv-x="779" 
d="M62 -25l-36 31l85 90q-59 83 -59 214q0 180 102.5 294t278.5 114q122 0 198 -68l76 80l37 -33l-79 -84q63 -85 63 -216q0 -181 -103.5 -294.5t-281.5 -113.5q-127 0 -201 71zM154 142l436 464q-64 59 -166 59q-146 0 -228.5 -100.5t-82.5 -252.5q0 -103 41 -170zM352 40
q149 0 231 102t82 256q0 100 -43 169l-438 -463q62 -64 168 -64zM322 737l-13 43l221 78l14 -57z" />
    <glyph glyph-name="oslashacute" unicode="&#x1ff;" horiz-adv-x="501" 
d="M11 -28l-34 29l82 96q-12 41 -12 78q0 174 74 279.5t190 105.5q63 0 104 -51l55 63l34 -28l-65 -77q17 -42 17 -88q0 -72 -14.5 -138.5t-44 -124.5t-82 -93t-120.5 -35q-73 0 -115 64zM109 154l269 312q-26 45 -89 45q-73 0 -128 -91.5t-55 -226.5zM212 38q77 0 131.5 93
t54.5 230q0 24 -4 54l-274 -317q23 -60 92 -60zM225 622l-27 37l174 137l34 -46z" />
    <glyph glyph-name="Scommaaccent" unicode="&#x218;" horiz-adv-x="466" 
d="M182 -11q-45 0 -102 14.5t-86 33.5l25 53q94 -46 167 -46q174 0 174 146q0 38 -29.5 70.5t-72 58t-85 54t-72 72t-29.5 97.5q0 82 61.5 126t153.5 44q49 0 96.5 -11t71.5 -26l-19 -50q-72 34 -153 34q-153 0 -153 -119q0 -33 21.5 -62.5t53 -51t69 -47.5t69 -50.5t53 -61
t21.5 -79.5q0 -94 -65.5 -146.5t-169.5 -52.5zM120 -259l46 201h54l-54 -201h-46z" />
    <glyph glyph-name="scommaaccent" unicode="&#x219;" horiz-adv-x="423" 
d="M168 -9q-87 0 -139 23l17 52q67 -24 126 -24q19 0 38.5 3.5t43 12t38 28t14.5 46.5q0 33 -22 61.5t-53 51t-62 46t-53 56t-22 71.5q0 74 48 105.5t124 31.5q72 0 132 -29l-19 -45q-80 26 -128 26q-104 0 -104 -78q0 -33 22 -61t53.5 -50t62.5 -46t53 -58.5t22 -77.5
q0 -73 -57 -109t-135 -36zM104 -259l46 201h54l-54 -201h-46z" />
    <glyph glyph-name="uni021A" unicode="&#x21a;" horiz-adv-x="541" 
d="M212 0l68 654h-246l6 53h552l-6 -53h-246l-69 -654h-59zM171 -259l46 201h54l-54 -201h-46z" />
    <glyph glyph-name="uni021B" unicode="&#x21b;" horiz-adv-x="374" 
d="M174 -12q-46 0 -64 14q-30 23 -30 87q0 24 2 38l41 368h-80l5 51h80l11 112h56l-11 -112h177l-5 -51h-177l-40 -363q-3 -27 -3 -44q0 -28 10 -38t36 -10q51 0 119 34l15 -47q-19 -12 -60 -25.5t-82 -13.5zM114 -259l46 201h54l-54 -201h-46z" />
    <glyph glyph-name="Ymacron" unicode="&#x232;" horiz-adv-x="495" 
d="M173 0l29 284l-177 423h65l149 -371l243 371h63l-283 -423l-30 -284h-59zM148 765l5 48h271l-5 -48h-271z" />
    <glyph glyph-name="ymacron" unicode="&#x233;" horiz-adv-x="457" 
d="M70 -220l106 220h-41l-87 546h62l77 -517l160 334q20 42 33.5 91t13.5 80q0 2 -0.5 6t-0.5 6h57v-12q0 -76 -47 -175l-275 -579h-58zM134 675l5 48h251l-5 -48h-251z" />
    <glyph glyph-name="schwa" unicode="&#x259;" horiz-adv-x="435" 
d="M279 560q63 0 91 -56.5t28 -145.5q0 -159 -67.5 -265t-185.5 -106q-63 0 -94.5 33.5t-31.5 85.5q0 88 132 138l188 72q1 10 1 31q0 160 -68 160q-65 0 -173 -54l-20 45q84 44 130 54q35 8 70 8zM334 262l-168 -67q-91 -36 -91 -87q0 -37 21 -53.5t52 -16.5q149 0 186 224
z" />
    <glyph glyph-name="h.superior" unicode="&#x2b0;" horiz-adv-x="384" 
d="M42 416l52 498h49l-20 -197q90 69 140 69q41 0 57 -18t16 -58q0 -10 -2 -34l-29 -260h-49l27 249q2 13 2 33q0 24 -8.5 32.5t-31.5 8.5q-31 0 -127 -68l-28 -255h-48z" />
    <glyph glyph-name="j.superior" unicode="&#x2b2;" horiz-adv-x="176" 
d="M-40 271q-28 0 -49 8l12 43q24 -8 43 -8q38 0 53.5 22.5t20.5 68.5l39 371h50l-40 -372q-8 -73 -41.5 -103t-87.5 -30zM110 846l-39 43l48 41l39 -41z" />
    <glyph glyph-name="r.superior" unicode="&#x2b3;" horiz-adv-x="233" 
d="M41 416l38 360h49l-6 -60q1 1 8 7t10 9t10.5 9.5t13 10.5t13.5 9.5t15 8.5t15 6.5t15.5 5t15.5 1.5q4 0 9 -0.5t8 -0.5l-9 -47q-7 2 -16 2q-6 0 -13.5 -2t-14 -5t-15.5 -9l-15 -10t-16 -11.5t-14 -11t-13.5 -11.5t-11.5 -9l-27 -252h-49z" />
    <glyph glyph-name="w.superior" unicode="&#x2b7;" horiz-adv-x="507" 
d="M88 416l-60 360h53l48 -325l119 207l-20 118h53l47 -325l97 203q29 61 29 109q0 9 -1 13h51q2 -8 2 -12q0 -49 -33 -115l-113 -233h-73l-30 181l-103 -181h-66z" />
    <glyph glyph-name="y.superior" unicode="&#x2b8;" horiz-adv-x="307" 
d="M40 271l72 145h-28l-56 360h53l46 -326l98 204q30 64 30 110q0 8 -1 12h52v-12q0 -49 -31 -115l-183 -378h-52z" />
    <glyph glyph-name="circumflex" unicode="&#x2c6;" horiz-adv-x="536" 
d="M147 626l-23 39l185 111l154 -111l-25 -39l-136 90z" />
    <glyph glyph-name="caron" unicode="&#x2c7;" horiz-adv-x="536" 
d="M330 626l-155 111l26 39l135 -93l156 93l22 -39z" />
    <glyph glyph-name="breve" unicode="&#x2d8;" horiz-adv-x="496" 
d="M335 652q-103 0 -148 78l35 29q5 -8 16 -19.5t40.5 -25.5t64.5 -14q79 0 132 58l27 -26q-3 -6 -8 -12t-19.5 -19.5t-32 -23t-46 -17.5t-61.5 -8z" />
    <glyph glyph-name="dotaccent" unicode="&#x2d9;" horiz-adv-x="273" 
d="M170 663l-49 53l61 52l51 -52z" />
    <glyph glyph-name="ring" unicode="&#x2da;" horiz-adv-x="532" 
d="M333 613q-43 0 -73 23.5t-30 62.5q0 51 35.5 83.5t86.5 32.5q41 0 71 -25t30 -63q0 -51 -34 -82.5t-86 -31.5zM335 648q32 0 53 20t21 52q0 26 -17.5 42.5t-43.5 16.5q-32 0 -53 -20t-21 -52q0 -27 17 -43t44 -16z" />
    <glyph glyph-name="ogonek" unicode="&#x2db;" horiz-adv-x="561" 
d="M438 -160l11 -44q-32 -13 -78 -13t-69.5 24t-23.5 65q0 89 168 169l23 -31q-135 -75 -135 -129q0 -50 53 -50q22 0 51 9z" />
    <glyph glyph-name="tilde" unicode="&#x2dc;" horiz-adv-x="536" 
d="M400 649q-19 0 -62 18t-61 18q-37 0 -71 -24l-20 35q1 1 6 5t9.5 7.5t13 8.5t17.5 8.5t22.5 6t27.5 2.5q24 0 63.5 -18t59.5 -18q38 0 70 28l20 -36q-41 -41 -95 -41z" />
    <glyph glyph-name="hungarumlaut" unicode="&#x2dd;" horiz-adv-x="549" 
d="M144 619l-20 39l195 131l28 -51zM371 624l-25 36l194 136l32 -47z" />
    <glyph glyph-name="x.superior" unicode="&#x2e3;" horiz-adv-x="322" 
d="M-10 416l152 190l-83 170h53l63 -134l103 134h54l-136 -171l93 -189h-54l-72 152l-118 -152h-55z" />
    <glyph glyph-name="Sigma" unicode="&#x3a3;" horiz-adv-x="556" 
d="M8 0l6 63l241 288l-176 302l6 54h451l-5 -49h-386l178 -308l-247 -295h396l-6 -55h-458z" />
    <glyph glyph-name="alpha" unicode="&#x3b1;" horiz-adv-x="521" 
d="M146 -13q-50 0 -76 44t-26 115q0 65 16 133.5t45.5 130t78.5 101t108 39.5q70 0 96 -82l9 78h54l-57 -546h-57l13 123q-37 -59 -93.5 -97.5t-110.5 -38.5zM158 42q45 0 101 40.5t97 108.5l25 209q-38 99 -95 99q-55 0 -99.5 -59.5t-65 -137.5t-20.5 -150
q0 -49 14.5 -79.5t42.5 -30.5z" />
    <glyph glyph-name="beta" unicode="&#x3b2;" horiz-adv-x="507" 
d="M219 -12q-149 0 -149 225q0 38 5 91l24 237q11 108 72.5 170.5t146.5 62.5q139 0 139 -130q0 -111 -113 -185q57 -7 87.5 -51.5t30.5 -115.5q0 -123 -68 -213.5t-175 -90.5zM225 36q78 0 128.5 72.5t50.5 171.5q0 72 -22 105t-81 33q-18 0 -43 -7.5t-39 -13.5t-48.5 -23
t-37.5 -18l-5 -48q-5 -55 -5 -91q0 -181 102 -181zM138 403q64 28 84 36q177 79 177 201q0 46 -24 66t-73 20q-60 0 -99 -49t-50 -134z" />
    <glyph glyph-name="gamma" unicode="&#x3b3;" horiz-adv-x="435" 
d="M111 -220q2 76 20 221q-5 153 -36.5 301.5t-62.5 243.5h60q74 -240 88 -463q171 300 193 463h54q-9 -63 -40.5 -145.5t-58.5 -135.5t-79 -148.5t-65 -119.5q2 -110 -16 -217h-57z" />
    <glyph glyph-name="delta" unicode="&#x3b4;" horiz-adv-x="503" 
d="M206 -12q-72 0 -115.5 50t-43.5 137q0 128 56.5 215t149.5 123q-37 24 -59.5 51.5t-22.5 67.5q0 73 50.5 107.5t131.5 34.5q75 0 140 -28l-16 -46q-74 26 -136 26q-56 0 -86.5 -21.5t-30.5 -61.5q0 -20 5.5 -35.5t20.5 -30t24 -22t35 -24t34 -21.5q50 -34 79 -78t29 -117
q0 -156 -74.5 -241.5t-170.5 -85.5zM218 38q53 0 95 45t61.5 105t19.5 118q0 73 -25 110t-78 70q-90 -38 -138 -120t-48 -180q0 -70 25.5 -109t87.5 -39z" />
    <glyph glyph-name="pi" unicode="&#x3c0;" horiz-adv-x="537" 
d="M77 0l52 490h-69l6 56h453l-5 -56h-61l-53 -490h-56l53 490h-212l-52 -490h-56z" />
    <glyph glyph-name="omega" unicode="&#x3c9;" horiz-adv-x="661" 
d="M176 -8q-59 0 -94 46t-35 121q0 244 164 387h65q-169 -137 -169 -371q0 -132 82 -132q40 0 70 42t38 117l17 158h55l-15 -154q-2 -30 -2 -48q0 -115 60 -115q40 0 70.5 30t45.5 76t22 88t7 77q0 138 -78 232h67q70 -107 70 -214q0 -84 -22 -159.5t-71.5 -128
t-115.5 -52.5q-37 0 -66 29.5t-30 80.5q-22 -54 -60 -82t-75 -28z" />
    <glyph glyph-name="i.inferior" unicode="&#x1d62;" horiz-adv-x="176" 
d="M42 0l37 360h50l-38 -360h-49zM111 430l-38 43l47 41l40 -41z" />
    <glyph glyph-name="r.inferior" unicode="&#x1d63;" horiz-adv-x="233" 
d="M41 0l38 360h49l-6 -60q1 1 8 7t10 9t10.5 9.5t13 10.5t13.5 9.5t15 8.5t15 6.5t15.5 5t15.5 1.5q4 0 9 -0.5t8 -0.5l-9 -47q-7 2 -16 2q-6 0 -13.5 -2t-14 -5t-15.5 -9l-15 -10t-16 -11.5t-14 -11t-13.5 -11.5t-11.5 -9l-27 -252h-49z" />
    <glyph glyph-name="u.inferior" unicode="&#x1d64;" horiz-adv-x="382" 
d="M126 -7q-45 0 -63.5 24.5t-12.5 80.5l27 262h50l-28 -249q-4 -42 5 -58.5t34 -16.5q45 0 127 68l27 256h49l-38 -360h-49l6 59q-71 -66 -134 -66z" />
    <glyph glyph-name="v.inferior" unicode="&#x1d65;" horiz-adv-x="326" 
d="M98 0l-70 360h53l58 -325l106 203q30 64 30 110q0 8 -1 12h51q1 -4 1 -12q0 -49 -33 -115l-123 -233h-72z" />
    <glyph glyph-name="uni1E46" unicode="&#x1e46;" horiz-adv-x="726" 
d="M75 0l76 707h99l272 -685l70 685h59l-77 -707h-105l-264 668l-70 -668h-60zM298 -221l-49 53l61 52l51 -52z" />
    <glyph glyph-name="uni1E47" unicode="&#x1e47;" horiz-adv-x="544" 
d="M69 0l57 546h57l-10 -98q1 1 18.5 16t25 21t26 20t32 21.5t31.5 16.5t35.5 13t34.5 4q52 0 71.5 -20.5t19.5 -66.5q0 -17 -6 -79l-43 -394h-56l42 381q7 59 7 78q0 28 -12 39t-44 11q-15 0 -45 -16.5t-55 -34.5t-54.5 -40.5t-33.5 -25.5l-42 -392h-56zM228 -204l-49 53
l61 52l51 -52z" />
    <glyph glyph-name="uni1E62" unicode="&#x1e62;" horiz-adv-x="466" 
d="M182 -11q-45 0 -102 14.5t-86 33.5l25 53q94 -46 167 -46q174 0 174 146q0 38 -29.5 70.5t-72 58t-85 54t-72 72t-29.5 97.5q0 82 61.5 126t153.5 44q49 0 96.5 -11t71.5 -26l-19 -50q-72 34 -153 34q-153 0 -153 -119q0 -33 21.5 -62.5t53 -51t69 -47.5t69 -50.5t53 -61
t21.5 -79.5q0 -94 -65.5 -146.5t-169.5 -52.5zM173 -220l-49 53l61 52l51 -52z" />
    <glyph glyph-name="uni1E63" unicode="&#x1e63;" horiz-adv-x="423" 
d="M168 -9q-87 0 -139 23l17 52q67 -24 126 -24q19 0 38.5 3.5t43 12t38 28t14.5 46.5q0 33 -22 61.5t-53 51t-62 46t-53 56t-22 71.5q0 74 48 105.5t124 31.5q72 0 132 -29l-19 -45q-80 26 -128 26q-104 0 -104 -78q0 -33 22 -61t53.5 -50t62.5 -46t53 -58.5t22 -77.5
q0 -73 -57 -109t-135 -36zM156 -204l-49 53l61 52l51 -52z" />
    <glyph glyph-name="Wgrave" unicode="&#x1e80;" horiz-adv-x="873" 
d="M139 0l-101 707h61l89 -661l245 515l-28 146h62l125 -665l260 665h59l-278 -707h-88l-97 475l-226 -475h-83zM530 736l-207 66l25 58l198 -80z" />
    <glyph glyph-name="wgrave" unicode="&#x1e81;" horiz-adv-x="757" 
d="M145 0l-97 546h62l82 -516l190 322l-34 194h62l79 -516l158 333q46 97 46 169q0 10 -1 14h57v-12q0 -75 -48 -175l-171 -359h-89l-47 281l-164 -281h-85zM446 619l-168 122l34 45l162 -129z" />
    <glyph glyph-name="Wacute" unicode="&#x1e82;" horiz-adv-x="873" 
d="M139 0l-101 707h61l89 -661l245 515l-28 146h62l125 -665l260 665h59l-278 -707h-88l-97 475l-226 -475h-83zM404 737l-13 43l221 78l14 -57z" />
    <glyph glyph-name="wacute" unicode="&#x1e83;" horiz-adv-x="757" 
d="M145 0l-97 546h62l82 -516l190 322l-34 194h62l79 -516l158 333q46 97 46 169q0 10 -1 14h57v-12q0 -75 -48 -175l-171 -359h-89l-47 281l-164 -281h-85zM359 622l-27 37l174 137l34 -46z" />
    <glyph glyph-name="Wdieresis" unicode="&#x1e84;" horiz-adv-x="873" 
d="M139 0l-101 707h61l89 -661l245 515l-28 146h62l125 -665l260 665h59l-278 -707h-88l-97 475l-226 -475h-83zM368 757l-43 47l53 48l43 -48zM555 757l-42 47l52 48l43 -48z" />
    <glyph glyph-name="wdieresis" unicode="&#x1e85;" horiz-adv-x="757" 
d="M145 0l-97 546h62l82 -516l190 322l-34 194h62l79 -516l158 333q46 97 46 169q0 10 -1 14h57v-12q0 -75 -48 -175l-171 -359h-89l-47 281l-164 -281h-85zM302 668l-43 47l53 48l43 -48zM489 668l-42 47l52 48l43 -48z" />
    <glyph glyph-name="uni1EBC" unicode="&#x1ebc;" horiz-adv-x="562" 
d="M75 0l75 707h377l-5 -50h-318l-29 -276h296l-5 -52h-296l-30 -279h342l-5 -50h-402zM411 748q-20 0 -62.5 18t-60.5 18q-36 0 -71 -24l-20 35q46 38 96 38q24 0 63.5 -18t59.5 -18q38 0 70 28l20 -36q-47 -41 -95 -41z" />
    <glyph glyph-name="uni1EBD" unicode="&#x1ebd;" horiz-adv-x="461" 
d="M165 -12q-63 0 -91 56.5t-28 145.5q0 159 67.5 265t185.5 106q63 0 94.5 -33.5t31.5 -85.5q0 -88 -132 -138l-188 -72q-1 -10 -1 -31q0 -160 68 -160q65 0 173 54l20 -45q-84 -44 -130 -54q-35 -8 -70 -8zM110 286l168 67q91 36 91 87q0 37 -21 53.5t-52 16.5
q-149 0 -186 -224zM358 649q-19 0 -62 18t-61 18q-37 0 -71 -24l-20 35q1 1 6 5t9.5 7.5t13 8.5t17.5 8.5t22.5 6t27.5 2.5q24 0 63.5 -18t59.5 -18q38 0 70 28l20 -36q-41 -41 -95 -41z" />
    <glyph glyph-name="Ygrave" unicode="&#x1ef2;" horiz-adv-x="495" 
d="M173 0l29 284l-177 423h65l149 -371l243 371h63l-283 -423l-30 -284h-59zM344 736l-207 66l25 58l198 -80z" />
    <glyph glyph-name="ygrave" unicode="&#x1ef3;" horiz-adv-x="457" 
d="M70 -220l106 220h-41l-87 546h62l77 -517l160 334q20 42 33.5 91t13.5 80q0 2 -0.5 6t-0.5 6h57v-12q0 -76 -47 -175l-275 -579h-58zM303 619l-168 122l34 45l162 -129z" />
    <glyph glyph-name="uni2012" unicode="&#x2012;" horiz-adv-x="400" 
d="M-2 276l4 49h400l-5 -49h-399z" />
    <glyph glyph-name="endash" unicode="&#x2013;" horiz-adv-x="500" 
d="M27 261l5 54h440l-5 -54h-440z" />
    <glyph glyph-name="emdash" unicode="&#x2014;" horiz-adv-x="810" 
d="M28 261l4 54h750l-5 -54h-749z" />
    <glyph glyph-name="quoteleft" unicode="&#x2018;" horiz-adv-x="150" 
d="M42 572q1 20 3 38t7 35.5t8 29t11 27.5t10.5 22t12 22.5t10.5 18.5h47q-37 -91 -44 -193h-65z" />
    <glyph glyph-name="quoteright" unicode="&#x2019;" horiz-adv-x="150" 
d="M49 572q37 91 44 193h65q-1 -20 -3 -38t-7 -35.5t-8 -29t-11 -27.5t-10.5 -22t-12 -22.5t-10.5 -18.5h-47z" />
    <glyph glyph-name="quotesinglbase" unicode="&#x201a;" horiz-adv-x="278" 
d="M31 -121q40 97 44 192h66q-1 -17 -3 -34.5t-4.5 -29.5t-7.5 -28t-7.5 -23.5t-10 -22.5l-9.5 -19t-10.5 -19t-9.5 -16h-48z" />
    <glyph glyph-name="quotedblleft" unicode="&#x201c;" horiz-adv-x="280" 
d="M35 572q1 20 3 38t7 35.5t8 29t11 27.5t10.5 22t12 22.5t10.5 18.5h47q-37 -91 -44 -193h-65zM176 572q1 20 3.5 38.5t7 35.5t8 28.5t11 27.5t10.5 22t12.5 22t10.5 19h47q-40 -97 -44 -193h-66z" />
    <glyph glyph-name="quotedblright" unicode="&#x201d;" horiz-adv-x="280" 
d="M35 572q40 97 44 193h66q-1 -20 -3.5 -38.5t-7 -35.5t-8 -28.5t-11 -27.5t-10.5 -22t-12.5 -22t-10.5 -19h-47zM177 572q37 91 44 193h65q-1 -20 -3 -38t-7 -35.5t-8 -29t-11 -27.5t-10.5 -22t-12 -22.5t-10.5 -18.5h-47z" />
    <glyph glyph-name="quotedblbase" unicode="&#x201e;" horiz-adv-x="271" 
d="M-10 -121q40 93 44 192h66q-1 -17 -3 -34.5t-4.5 -29.5t-7.5 -28t-7.5 -23.5t-10 -22.5l-9.5 -19t-10.5 -19t-9.5 -16h-48zM135 -121q37 91 44 192h65q-1 -17 -3 -34.5t-4.5 -29.5t-7.5 -28t-7.5 -23.5t-10 -22.5l-9.5 -19t-10.5 -19t-9.5 -16h-47z" />
    <glyph glyph-name="dagger" unicode="&#x2020;" horiz-adv-x="461" 
d="M144 0l62 529l-168 -6l6 54l166 -6l13 183h58l-24 -183l168 6l-6 -54l-165 6l-51 -529h-59z" />
    <glyph glyph-name="daggerdbl" unicode="&#x2021;" horiz-adv-x="471" 
d="M166 0l24 181l-166 -5l6 55l165 -6l32 303l-167 -5l6 54l165 -5l15 182h58l-25 -182l168 5l-6 -54l-166 5l-32 -303l168 6l-6 -55l-167 5l-14 -181h-58z" />
    <glyph glyph-name="bullet" unicode="&#x2022;" horiz-adv-x="520" 
d="M264 208q-62 0 -105.5 43.5t-43.5 104.5q0 59 41.5 100t100.5 41q61 0 104.5 -44t43.5 -105q0 -58 -41 -99t-100 -41z" />
    <glyph glyph-name="ellipsis" unicode="&#x2026;" horiz-adv-x="699" 
d="M118 0l8 76h71l-8 -76h-71zM310 0l8 76h71l-8 -76h-71zM514 0l8 76h71l-8 -76h-71z" />
    <glyph glyph-name="perthousand" unicode="&#x2030;" horiz-adv-x="1100" 
d="M192 396q-61 0 -94.5 33t-33.5 94q0 77 44.5 134t119.5 57q129 0 129 -127q0 -79 -44 -135t-121 -56zM196 440q55 0 83.5 41t28.5 98q0 43 -20.5 68.5t-63.5 25.5q-54 0 -81.5 -45t-27.5 -102q0 -86 81 -86zM522 -8q-61 0 -94 33t-33 94q0 78 44 134.5t119 56.5
q130 0 130 -127q0 -79 -44.5 -135t-121.5 -56zM527 36q54 0 82.5 41.5t28.5 97.5q0 43 -20.5 68.5t-63.5 25.5q-53 0 -80.5 -45t-27.5 -102q0 -86 81 -86zM870 -8q-61 0 -94 33t-33 94q0 78 44 134.5t119 56.5q130 0 130 -127q0 -79 -44.5 -135t-121.5 -56zM875 36
q54 0 82.5 41.5t28.5 97.5q0 43 -20.5 68.5t-63.5 25.5q-53 0 -80.5 -45t-27.5 -102q0 -86 81 -86zM89 64l-27 34l577 532l27 -33z" />
    <glyph glyph-name="guilsinglleft" unicode="&#x2039;" horiz-adv-x="258" 
d="M136 54l-79 218l125 218l44 -17l-107 -201l64 -198z" />
    <glyph glyph-name="guilsinglright" unicode="&#x203a;" horiz-adv-x="258" 
d="M74 54l-44 20l106 198l-64 201l48 18l78 -219z" />
    <glyph glyph-name="fraction" unicode="&#x2044;" horiz-adv-x="114" 
d="M-215 80l-31 34l577 533l29 -33z" />
    <glyph glyph-name="fraction" unicode="&#x2215;" horiz-adv-x="114" 
d="M-215 80l-31 34l577 533l29 -33z" />
    <glyph glyph-name="zerosuperior" unicode="&#x2070;" horiz-adv-x="355" 
d="M155 410q-128 0 -128 143q0 12 2 40q9 84 49.5 138.5t123.5 54.5q126 0 126 -141q0 -13 -2 -41q-20 -194 -171 -194zM161 454q98 0 113 146q2 22 2 34q0 108 -80 108q-99 0 -115 -149q-2 -22 -2 -32q0 -107 82 -107z" />
    <glyph glyph-name="i.superior" unicode="&#x2071;" horiz-adv-x="176" 
d="M42 416l37 360h50l-38 -360h-49zM111 846l-38 43l47 41l40 -41z" />
    <glyph glyph-name="foursuperior" unicode="&#x2074;" horiz-adv-x="330" 
d="M175 415l10 91h-171l5 49l164 225h84l-25 -231h65l-4 -43h-65l-10 -91h-53zM63 549h126l21 201z" />
    <glyph glyph-name="fivesuperior" unicode="&#x2075;" horiz-adv-x="317" 
d="M128 407q-51 0 -99 13l19 44q45 -12 84 -12q35 0 58.5 19.5t26.5 49.5q4 35 -14.5 53t-54.5 18q-20 0 -87 -5l20 193h209l-4 -42h-159l-11 -104q1 0 17 0.5t28 0.5q55 0 85.5 -30t25.5 -79q-5 -54 -45.5 -86.5t-98.5 -32.5z" />
    <glyph glyph-name="sixsuperior" unicode="&#x2076;" horiz-adv-x="330" 
d="M154 408q-60 0 -89.5 28t-29.5 95q0 11 2 37q11 100 64.5 159t130.5 59q35 0 68 -11l-17 -42q-34 9 -60 9q-43 0 -75.5 -30.5t-45.5 -85.5q37 16 80 16q57 0 86.5 -29.5t23.5 -82.5q-6 -57 -45.5 -89.5t-92.5 -32.5zM161 450q30 0 51 21t25 54q4 36 -13.5 55.5
t-48.5 19.5q-37 0 -80 -15q-3 -31 -3 -55q0 -46 15.5 -63t53.5 -17z" />
    <glyph glyph-name="sevensuperior" unicode="&#x2077;" horiz-adv-x="270" 
d="M59 402l-46 20l202 311h-197l5 47h254l-4 -39z" />
    <glyph glyph-name="eightsuperior" unicode="&#x2078;" horiz-adv-x="332" 
d="M144 409q-60 0 -94.5 23.5t-28.5 72.5q5 58 83 106q-56 33 -50 84q4 40 42 65.5t92 25.5q58 0 87 -23.5t25 -61.5q-6 -57 -84 -93q81 -40 75 -96q-5 -52 -45 -77.5t-102 -25.5zM149 448q35 0 60 17.5t29 51.5q1 6 -0.5 11.5t-5 10.5t-7 9t-10 8.5t-12 7.5t-14.5 7.5
t-15 7t-16.5 7.5t-16.5 7q-62 -34 -68 -81q-3 -33 17.5 -48.5t58.5 -15.5zM177 625q64 33 68 69q5 50 -63 50q-73 0 -79 -55q-2 -19 16.5 -32.5t57.5 -31.5z" />
    <glyph glyph-name="ninesuperior" unicode="&#x2079;" horiz-adv-x="329" 
d="M109 408q-35 0 -68 11l17 42q34 -9 60 -9q42 0 75 30.5t45 85.5q-35 -16 -79 -16q-57 0 -86.5 29.5t-23.5 82.5q6 57 45.5 89.5t92.5 32.5q60 0 89.5 -28t29.5 -95q0 -11 -2 -37q-11 -100 -64.5 -159t-130.5 -59zM166 594q35 0 80 15q3 30 3 52q0 47 -15.5 65t-53.5 18
q-30 0 -51 -21t-25 -54q-4 -36 13.5 -55.5t48.5 -19.5z" />
    <glyph glyph-name="plussuperior" unicode="&#x207a;" horiz-adv-x="399" 
d="M154 453l15 140h-141l5 45h141l15 144h47l-15 -144h149l-5 -45h-149l-15 -140h-47z" />
    <glyph glyph-name="minussuperior" unicode="&#x207b;" horiz-adv-x="395" 
d="M28 591l5 45h333l-5 -45h-333z" />
    <glyph glyph-name="equalsuperior" unicode="&#x207c;" horiz-adv-x="398" 
d="M22 529l4 45h333l-4 -45h-333zM34 651l5 45h333l-5 -45h-333z" />
    <glyph glyph-name="parenleftsuperior" unicode="&#x207d;" horiz-adv-x="233" 
d="M167 269q-5 4 -12 11t-26.5 33t-34 55.5t-26.5 79t-12 102.5q0 70 18 135t46 111t57.5 78t58.5 50l26 -35q-57 -36 -106.5 -126.5t-49.5 -206.5q0 -47 10 -90.5t24 -71.5t27.5 -49.5t23.5 -30.5l10 -10z" />
    <glyph glyph-name="parenrightsuperior" unicode="&#x207e;" horiz-adv-x="233" 
d="M34 269l-26 35q54 41 105.5 137t51.5 212q0 46 -10 87t-24 67t-28 45.5t-24 27.5l-10 9l34 35q5 -3 12.5 -9.5t26.5 -30t34 -51.5t27 -75t12 -100q0 -133 -53 -230.5t-128 -158.5z" />
    <glyph glyph-name="n.superior" unicode="&#x207f;" horiz-adv-x="384" 
d="M41 416l38 360h50l-7 -59q90 69 141 69q40 0 56 -17.5t16 -56.5q0 -10 -2 -36l-28 -260h-49l27 249q2 24 2 30q0 25 -9 34.5t-31 9.5q-32 0 -128 -68l-27 -255h-49z" />
    <glyph glyph-name="zeroinferior" unicode="&#x2080;" horiz-adv-x="355" 
d="M155 -5q-128 0 -128 143q0 12 2 40q9 84 49.5 138.5t123.5 54.5q126 0 126 -141q0 -13 -2 -41q-20 -194 -171 -194zM161 39q98 0 113 146q2 22 2 34q0 108 -80 108q-99 0 -115 -149q-2 -22 -2 -32q0 -107 82 -107z" />
    <glyph glyph-name="oneinferior" unicode="&#x2081;" horiz-adv-x="256" 
d="M103 0l34 323h-93l4 42l147 4l-39 -369h-53z" />
    <glyph glyph-name="twoinferior" unicode="&#x2082;" horiz-adv-x="307" 
d="M-1 0l4 45q18 12 55.5 37.5t53.5 37t42 32.5t38 35.5t22.5 34t12.5 38.5q4 32 -14 49t-48 17q-57 0 -97 -37l-22 31q23 23 58 37t68 14q49 0 80.5 -27.5t26.5 -79.5q-2 -17 -7 -33t-15 -31.5t-18 -27t-25 -26t-26 -23t-30 -22.5l-28.5 -19t-31 -19.5t-28.5 -17.5h192
l-5 -45h-258z" />
    <glyph glyph-name="threeinferior" unicode="&#x2083;" horiz-adv-x="300" 
d="M115 -5q-58 0 -103 16l17 41q49 -14 85 -14q93 0 100 60q4 40 -22.5 55t-86.5 20l4 36q100 9 107 70q2 24 -16 37t-48 13q-33 0 -71 -17l-11 33q47 26 96 26q46 0 75 -24t25 -61q-7 -64 -75 -90q40 -7 59.5 -33.5t16.5 -60.5q-6 -55 -50 -81t-102 -26z" />
    <glyph glyph-name="fourinferior" unicode="&#x2084;" horiz-adv-x="330" 
d="M175 0l10 91h-171l5 49l164 225h84l-25 -231h65l-4 -43h-65l-10 -91h-53zM63 134h126l21 201z" />
    <glyph glyph-name="fiveinferior" unicode="&#x2085;" horiz-adv-x="317" 
d="M128 -8q-51 0 -99 13l19 44q45 -12 84 -12q35 0 58.5 19.5t26.5 49.5q4 35 -14.5 53t-54.5 18q-20 0 -87 -5l20 193h209l-4 -42h-159l-11 -104q1 0 17 0.5t28 0.5q55 0 85.5 -30t25.5 -79q-5 -54 -45.5 -86.5t-98.5 -32.5z" />
    <glyph glyph-name="sixinferior" unicode="&#x2086;" horiz-adv-x="330" 
d="M154 -7q-60 0 -89.5 28t-29.5 95q0 11 2 37q11 100 64.5 159t130.5 59q35 0 68 -11l-17 -42q-34 9 -60 9q-43 0 -75.5 -30.5t-45.5 -85.5q37 16 80 16q57 0 86.5 -29.5t23.5 -82.5q-6 -57 -45.5 -89.5t-92.5 -32.5zM161 35q30 0 51 21t25 54q4 36 -13.5 55.5t-48.5 19.5
q-37 0 -80 -15q-3 -32 -3 -55q0 -46 15.5 -63t53.5 -17z" />
    <glyph glyph-name="seveninferior" unicode="&#x2087;" horiz-adv-x="270" 
d="M59 -13l-46 20l202 311h-197l5 47h254l-4 -39z" />
    <glyph glyph-name="eightinferior" unicode="&#x2088;" horiz-adv-x="332" 
d="M144 -6q-60 0 -94.5 23.5t-28.5 72.5q5 58 83 106q-56 33 -50 84q4 40 42 65.5t92 25.5q58 0 87 -23.5t25 -61.5q-6 -57 -84 -93q81 -40 75 -96q-5 -52 -45 -77.5t-102 -25.5zM149 33q35 0 60 17.5t29 51.5q1 6 -0.5 11.5t-5 10.5t-7 9t-10 8.5t-12 7.5t-14.5 7.5t-15 7
t-16.5 7.5t-16.5 7q-62 -34 -68 -81q-3 -33 17.5 -48.5t58.5 -15.5zM177 210q64 33 68 69q5 50 -63 50q-73 0 -79 -55q-2 -19 16.5 -32.5t57.5 -31.5z" />
    <glyph glyph-name="nineinferior" unicode="&#x2089;" horiz-adv-x="329" 
d="M109 -7q-35 0 -68 11l17 42q34 -9 60 -9q42 0 75 30.5t45 85.5q-35 -16 -79 -16q-57 0 -86.5 29.5t-23.5 82.5q6 57 45.5 89.5t92.5 32.5q60 0 89.5 -28t29.5 -95q0 -11 -2 -37q-11 -100 -64.5 -159t-130.5 -59zM166 179q35 0 80 15q3 30 3 52q0 47 -15.5 65t-53.5 18
q-30 0 -51 -21t-25 -54q-4 -36 13.5 -55.5t48.5 -19.5z" />
    <glyph glyph-name="plus.inferior" unicode="&#x208a;" horiz-adv-x="399" 
d="M154 37l15 140h-141l5 45h141l15 144h47l-15 -144h149l-5 -45h-149l-15 -140h-47z" />
    <glyph glyph-name="minus.inferior" unicode="&#x208b;" horiz-adv-x="395" 
d="M28 175l5 45h333l-5 -45h-333z" />
    <glyph glyph-name="equal.inferior" unicode="&#x208c;" horiz-adv-x="398" 
d="M22 113l4 45h333l-4 -45h-333zM34 235l5 45h333l-5 -45h-333z" />
    <glyph glyph-name="parenleft.inferior" unicode="&#x208d;" horiz-adv-x="233" 
d="M167 -147q-5 4 -12 11t-26.5 33t-34 55.5t-26.5 79t-12 102.5q0 70 18 135t46 111t57.5 78t58.5 50l26 -35q-57 -36 -106.5 -126.5t-49.5 -206.5q0 -47 10 -90.5t24 -71.5t27.5 -49.5t23.5 -30.5l10 -10z" />
    <glyph glyph-name="parenright.inferior" unicode="&#x208e;" horiz-adv-x="233" 
d="M34 -147l-26 35q54 41 105.5 137t51.5 212q0 46 -10 87t-24 67t-28 45.5t-24 27.5l-10 9l34 35q5 -3 12.5 -9.5t26.5 -30t34 -51.5t27 -75t12 -100q0 -133 -53 -230.5t-128 -158.5z" />
    <glyph glyph-name="colonsign" unicode="&#x20a1;" horiz-adv-x="712" 
d="M47 -75l82 160q-77 86 -77 227q0 179 103 290t280 111h16l45 87h55l-47 -92q50 -6 91 -24l59 116h58l-385 -751q25 -4 60 -4q84 0 150 22l12 -52q-80 -25 -187 -25q-30 0 -63 5l-36 -70h-58l42 82q-43 14 -81 43l-64 -125h-55zM275 62l295 574q-49 17 -92 22l-283 -552
q35 -29 80 -44zM160 145l264 514q-149 -2 -229.5 -96.5t-80.5 -249.5q0 -102 46 -168z" />
    <glyph glyph-name="cruzeiro" unicode="&#x20a2;" horiz-adv-x="613" 
d="M362 -10q-143 0 -226.5 88t-83.5 234q0 179 103 290t280 111q97 0 158 -27l-22 -49q-63 23 -139 23q-152 0 -235 -95t-83 -252q0 -99 43.5 -163.5t122.5 -89.5l42 406h56l-10 -101q29 29 46 45t60 41t77 25q9 0 23 -2l-11 -51q-3 1 -16 1q-10 0 -22 -4t-22.5 -9
t-25.5 -14.5t-25 -16.5t-26 -20t-23 -18.5t-22.5 -19t-18.5 -15.5l-27 -259q25 -3 52 -3q84 0 150 22l12 -52q-80 -25 -187 -25z" />
    <glyph glyph-name="franc" unicode="&#x20a3;" horiz-adv-x="640" 
d="M75 0l75 707h321l-5 -50h-262l-25 -236h265l-10 -101q29 29 46 45t60 41t77 25q9 0 23 -2l-11 -51q-3 1 -16 1q-10 0 -22 -4t-22.5 -9t-25.5 -14.5t-25 -16.5t-26 -20t-23 -18.5t-22.5 -19t-18.5 -15.5l-27 -262h-56l37 368h-209l-38 -368h-60z" />
    <glyph glyph-name="lira" unicode="&#x20a4;" horiz-adv-x="453" 
d="M4 0l6 53q41 13 70.5 87t35.5 119h-99l6 47h104q4 25 10 78h-106l6 47h105q2 29 8 81q4 37 15.5 67.5t25 50t36 34.5t38.5 22.5t43 12.5t39 6.5t37 2.5t27 1l-3 -53q-3 0 -24 -1.5t-27 -2t-25 -3t-26 -5.5t-22.5 -9t-22.5 -13t-18.5 -18t-17 -24.5t-11 -31.5t-7.5 -40
q-3 -24 -7 -77h186l-6 -47h-184q-4 -38 -11 -78h187l-6 -47h-190q-30 -147 -92 -206h335l-6 -53h-409z" />
    <glyph glyph-name="mill" unicode="&#x20a5;" horiz-adv-x="799" 
d="M118 -134l279 544q4 42 4 51q0 26 -11.5 36t-43.5 10q-12 0 -39.5 -16t-52 -34t-53.5 -40t-34 -25l-42 -392h-56l57 546h57l-10 -97q2 1 16 13.5t20.5 18t22.5 17.5t26 18.5t26.5 16.5t29 14.5t27.5 8.5t28 4q69 0 83 -42l115 223h55l-129 -252q90 71 157 71
q51 0 69.5 -20t18.5 -64q0 -18 -6 -82l-43 -394h-55l41 381q7 60 7 79q0 28 -11.5 38.5t-44.5 10.5q-26 0 -88.5 -43.5t-86.5 -65.5l-43 -400h-56l30 273l-209 -407h-55z" />
    <glyph glyph-name="naira" unicode="&#x20a6;" horiz-adv-x="765" 
d="M93 0l27 253h-120l5 50h120l14 128h-120l5 50h121l24 226h99l89 -226h229l24 226h59l-25 -226h121l-5 -50h-121l-14 -128h121l-5 -50h-122l-27 -253h-105l-100 253h-208l-26 -253h-60zM184 303h183l-50 128h-119zM428 303h140l13 128h-204zM203 481h94l-74 187zM540 22
l23 231h-115z" />
    <glyph glyph-name="pesetas" unicode="&#x20a7;" horiz-adv-x="1311" 
d="M75 0l75 707h219q92 0 145 -46.5t53 -137.5q0 -126 -80.5 -188.5t-209.5 -60.5h-14l6 51q233 -2 233 195q0 138 -160 138h-137l-69 -658h-61zM735 -12q-46 0 -64 14q-30 23 -30 87q0 24 2 38l41 368h-80l5 51h80l11 112h56l-11 -112h177l-5 -51h-177l-40 -363
q-3 -27 -3 -44q0 -28 10 -38t36 -10q51 0 119 34l15 -47q-19 -12 -60 -25.5t-82 -13.5zM1056 -9q-87 0 -139 23l17 52q67 -24 126 -24q19 0 38.5 3.5t43 12t38 28t14.5 46.5q0 33 -22 61.5t-53 51t-62 46t-53 56t-22 71.5q0 74 48 105.5t124 31.5q72 0 132 -29l-19 -45
q-80 26 -128 26q-104 0 -104 -78q0 -33 22 -61t53.5 -50t62.5 -46t53 -58.5t22 -77.5q0 -73 -57 -109t-135 -36z" />
    <glyph glyph-name="rupee" unicode="&#x20a8;" horiz-adv-x="942" 
d="M693 -12q-91 0 -149.5 35t-110.5 119l-105 172q-34 -4 -94 -4h-64l-34 -310h-61l75 707h206q91 0 145.5 -44.5t54.5 -122.5q0 -76 -43 -134t-123 -78l88 -149q48 -82 95 -111.5t124 -30.5q25 0 51.5 6.5t51.5 29.5t25 59q0 33 -22 61.5t-53 51t-62 46t-53 56t-22 71.5
q0 74 48 105.5t124 31.5q72 0 132 -29l-19 -45q-80 26 -128 26q-104 0 -104 -78q0 -33 22 -61t53 -50t62.5 -46t53.5 -58.5t22 -77.5q0 -74 -55 -111t-131 -37zM175 362h101q102 0 158.5 44t56.5 133q0 119 -161 119h-125z" />
    <glyph glyph-name="won" unicode="&#x20a9;" horiz-adv-x="1005" 
d="M202 0l-42 290h-160l5 50h148l-20 139h-112l5 50h100l-25 178h61l24 -178h295l15 32l-28 146h62l33 -178h282l70 178h59l-71 -178h102l-5 -50h-116l-55 -139h155l-5 -50h-169l-114 -290h-88l-60 290h-125l-138 -290h-83zM211 340h180l66 139h-265zM599 340h172l55 139
h-253zM251 46l116 244h-149zM447 340h91l-27 135zM655 42l97 248h-144z" />
    <glyph glyph-name="sheqel" unicode="&#x20aa;" horiz-adv-x="838" 
d="M260 0l48 466h58l-43 -415h159q53 0 90 12t57.5 31t33 53t18 68t11.5 86q1 9 1 13l41 393h58l-41 -388q-5 -44 -7.5 -67t-8.5 -57.5t-12.5 -52t-17.5 -42.5t-25 -37t-34 -26.5t-45.5 -21t-59 -11t-74.5 -4.5h-207zM60 0l74 707h207q133 0 180 -42.5t47 -137.5
q0 -51 -10 -139l-15 -147h-58l16 152q9 81 9 120q0 73 -34.5 108t-130.5 35h-159l-68 -656h-58z" />
    <glyph glyph-name="dong" unicode="&#x20ab;" horiz-adv-x="562" 
d="M210 87q-107 0 -107 147q0 82 26 146t70 101t97 55t112 16q5 0 11 -0.5t9 -0.5l8 74h-151l5 45h151l9 87h56l-9 -87h91l-5 -45h-91l-54 -525h-56l11 107q-108 -120 -183 -120zM222 142q17 0 38 10t43 28.5t38 33.5t35.5 35t22.5 23l22 231q-15 1 -41 1q-86 0 -152 -70.5
t-66 -178.5q0 -62 14 -87.5t46 -25.5zM92 0v42h371v-42h-371z" />
    <glyph glyph-name="Euro" unicode="&#x20ac;" horiz-adv-x="561" 
d="M313 -11q-96 0 -164 48t-86 139h-65l5 51h55v11q-1 40 12 87h-56l5 51h68q37 87 111.5 133.5t171.5 46.5q82 0 159 -30l-23 -50q-78 27 -140 27q-72 0 -130 -32t-89 -95h267l-5 -51h-280q-11 -46 -11 -90v-8h280l-5 -51h-267q18 -69 74.5 -102.5t132.5 -33.5q60 0 134 24
l11 -48q-63 -27 -165 -27z" />
    <glyph glyph-name="uni20AD" unicode="&#x20ad;" horiz-adv-x="588" 
d="M483 -21l-266 375h-45l-37 -354h-60l37 354h-102l5 50h103l32 303h59l-32 -303h52l290 303h77l-298 -303h233l-5 -50h-231l239 -340z" />
    <glyph glyph-name="uni20AE" unicode="&#x20ae;" horiz-adv-x="553" 
d="M209 0l23 214l-148 -81l7 62l147 81l12 110l-148 -81l6 58l148 81l22 210h-247l6 53h553l-6 -53h-247l-18 -175l145 80l-6 -58l-145 -80l-12 -110l145 80l-6 -62l-146 -80l-26 -249h-59z" />
    <glyph glyph-name="uni20B1" unicode="&#x20b1;" horiz-adv-x="643" 
d="M663 582l-5 -50h-91v-9q0 -35 -8 -69h90l-5 -50h-102q-33 -67 -103 -99.5t-162 -30.5h-14l6 51q150 -2 203 79h-294l-42 -404h-61l43 404h-111l5 50h111l8 78h-110l5 50h111l13 125h219q75 0 125 -31.5t66 -93.5h103zM183 454h311q8 30 8 66q0 2 -0.5 6t-0.5 6h-310z
M197 582h294q-30 76 -149 76h-137z" />
    <glyph glyph-name="afii61289" unicode="&#x2113;" 
d="M191 -12q-49 0 -71.5 28t-22.5 86q0 20 17 179q-23 -17 -60 -41l-23 35q50 35 90 67l19 185q14 129 47 176t104 47q40 0 64 -22t24 -68q0 -77 -54.5 -166t-151.5 -175q-20 -189 -20 -211q0 -39 11.5 -54t39.5 -15q43 0 75 40l28 -25q-44 -66 -116 -66zM180 388
q138 140 138 253q0 36 -10 49t-32 13q-33 0 -51 -34.5t-26 -108.5z" />
    <glyph glyph-name="afii61352" unicode="&#x2116;" horiz-adv-x="932" 
d="M732 227q-48 0 -76.5 30.5t-28.5 75.5q0 69 38.5 113.5t104.5 44.5q53 0 78.5 -30t25.5 -74q0 -26 -7 -52t-22 -51.5t-44.5 -41t-68.5 -15.5zM739 272q41 0 63 33.5t22 73.5q0 29 -14 48t-44 19q-43 0 -66 -33t-23 -70q0 -71 62 -71zM90 0l60 546h85l223 -501l52 501h57
l-61 -546h-89l-217 488l-53 -488h-57zM594 85l6 48h258l-7 -48h-257z" />
    <glyph glyph-name="uni2117" unicode="&#x2117;" horiz-adv-x="813" 
d="M760 353q0 -166 -97 -266.5t-265 -100.5q-161 0 -253 101.5t-92 267.5q0 167 100.5 266t263.5 99q165 0 254 -102t89 -265zM704 354q0 139 -78.5 227.5t-217.5 88.5q-143 0 -220.5 -87.5t-77.5 -226.5q0 -87 31 -158t98.5 -116.5t161.5 -45.5q148 0 225.5 88.5
t77.5 229.5zM562 440q0 -69 -44.5 -100t-114.5 -31h-55v-159h-49v418h134q62 0 95.5 -32.5t33.5 -95.5zM513 436q0 47 -21.5 68.5t-70.5 21.5h-73v-172h59q106 0 106 82z" />
    <glyph glyph-name="servicemark" unicode="&#x2120;" horiz-adv-x="821" 
d="M137 348q-71 0 -117 20l18 43q50 -21 94 -21q49 0 79.5 16.5t30.5 42.5q0 24 -18.5 39.5t-45 25t-53.5 20t-45.5 32t-18.5 53.5q0 48 40.5 74t97.5 26q63 0 95 -14l-14 -38q-46 13 -91 13q-34 0 -58.5 -15t-24.5 -38q0 -29 28.5 -47.5t63 -27.5t63 -32.5t28.5 -61.5
q0 -55 -48.5 -82.5t-103.5 -27.5zM327 353l68 354h54l81 -317l163 317h51l-8 -354h-49l9 272l-138 -272h-63l-72 275l-50 -275h-46z" />
    <glyph glyph-name="trademark" unicode="&#x2122;" horiz-adv-x="819" 
d="M294 353l68 354h54l81 -317l163 317h51l-8 -354h-49l9 272l-138 -272h-63l-72 275l-50 -275h-46zM127 353l33 311h-120l5 43h286l-5 -43h-119l-33 -311h-47z" />
    <glyph glyph-name="Omega" unicode="&#x2126;" horiz-adv-x="796" 
d="M41 0l5 55h182q-66 34 -115 108t-49 177q0 166 106 272t274 106q146 0 221 -87t75 -224q0 -114 -64 -211.5t-168 -140.5h190l-5 -55h-263l5 55q242 133 242 349q0 119 -61 190t-181 71q-146 0 -228.5 -95t-82.5 -235q0 -164 180 -280l-5 -55h-258z" />
    <glyph glyph-name="estimated" unicode="&#x212e;" horiz-adv-x="621" 
d="M320 -8q-120 0 -198 72t-78 199t77.5 211t203.5 84q112 0 182 -64t70 -176v-50h-443v-67q0 -55 57 -107t134 -52q64 0 108.5 24.5t82.5 73.5l36 -28q-83 -120 -232 -120zM134 313h353v30q0 80 -41.5 126.5t-120.5 46.5q-83 0 -137 -47.5t-54 -125.5v-30z" />
    <glyph glyph-name="uni2139" unicode="&#x2139;" horiz-adv-x="800" 
d="M400 -8q-149 0 -255.5 106t-106.5 256q0 149 106.5 255.5t255.5 106.5t255.5 -106.5t106.5 -255.5q0 -150 -106.5 -256t-255.5 -106zM400 42q130 0 220.5 91t91.5 221q0 130 -91 221t-221 91t-221 -91t-91 -221t91 -221t221 -91zM400 455q-31 0 -53.5 22t-22.5 54
q0 30 23 51t53 21t53 -21t23 -51q0 -32 -22.5 -54t-53.5 -22zM327 138v283h145v-283h-145z" />
    <glyph glyph-name="uni213B" unicode="&#x213b;" horiz-adv-x="804" 
d="M754 0h-704v309h111v344h309l175 -175v-169h109v-309zM585 483l-109 110v-110h109zM606 309v135h-170v170h-236v-305h406zM715 39l-1 231h-625v-231h626zM390 529h-144v39h144v-39zM560 360h-314v38h314v-38zM390 444h-144v39h144v-39zM390 80h-144v39h144v-39z" />
    <glyph glyph-name="onethird" unicode="&#x2153;" horiz-adv-x="700" 
d="M103 415l34 323h-93l4 42l147 4l-39 -369h-53zM53 80l-31 34l577 533l29 -33zM509 -5q-58 0 -103 16l17 41q49 -14 85 -14q93 0 100 60q4 40 -22.5 55t-86.5 20l4 36q100 9 107 70q2 24 -16 37t-48 13q-33 0 -71 -17l-11 33q47 26 96 26q46 0 75 -24t25 -61
q-7 -64 -75 -90q40 -7 59.5 -33.5t16.5 -60.5q-6 -55 -50 -81t-102 -26z" />
    <glyph glyph-name="twothirds" unicode="&#x2154;" horiz-adv-x="686" 
d="M-1 415l4 45q18 12 55.5 37.5t53.5 37t42 32.5t38 35.5t22.5 34t12.5 38.5q4 32 -14 49t-48 17q-57 0 -97 -37l-22 31q23 23 58 37t68 14q49 0 80.5 -27.5t26.5 -79.5q-2 -17 -7 -33t-15 -31.5t-18 -27t-25 -26t-26 -23t-30 -22.5l-28.5 -19t-31 -19.5t-28.5 -17.5h192
l-5 -45h-258zM59 80l-31 34l577 533l29 -33zM495 -5q-58 0 -103 16l17 41q49 -14 85 -14q93 0 100 60q4 40 -22.5 55t-86.5 20l4 36q100 9 107 70q2 24 -16 37t-48 13q-33 0 -71 -17l-11 33q47 26 96 26q46 0 75 -24t25 -61q-7 -64 -75 -90q40 -7 59.5 -33.5t16.5 -60.5
q-6 -55 -50 -81t-102 -26z" />
    <glyph glyph-name="uni215B" unicode="&#x215b;" horiz-adv-x="725" 
d="M117 415l34 323h-93l4 42l147 4l-39 -369h-53zM61 80l-31 34l577 533l29 -33zM530 -6q-60 0 -94.5 23.5t-28.5 72.5q5 58 83 106q-56 33 -50 84q4 40 42 65.5t92 25.5q58 0 87 -23.5t25 -61.5q-6 -57 -84 -93q81 -40 75 -96q-5 -52 -45 -77.5t-102 -25.5zM535 33
q35 0 60 17.5t29 51.5q1 6 -0.5 11.5t-5 10.5t-7 9t-10 8.5t-12 7.5t-14.5 7.5t-15 7t-16.5 7.5t-16.5 7q-62 -34 -68 -81q-3 -33 17.5 -48.5t58.5 -15.5zM563 210q64 33 68 69q5 50 -63 50q-73 0 -79 -55q-2 -19 16.5 -32.5t57.5 -31.5z" />
    <glyph glyph-name="threesup_fraction_eightinf" unicode="&#x215c;" horiz-adv-x="725" 
d="M129 410q-58 0 -103 16l17 41q49 -14 85 -14q93 0 100 60q4 40 -22.5 55t-86.5 20l4 36q100 9 107 70q2 24 -16 37t-48 13q-33 0 -71 -17l-11 33q47 26 96 26q46 0 75 -24t25 -61q-7 -64 -75 -90q40 -7 59.5 -33.5t16.5 -60.5q-6 -55 -50 -81t-102 -26zM61 80l-31 34
l577 533l29 -33zM530 -6q-60 0 -94.5 23.5t-28.5 72.5q5 58 83 106q-56 33 -50 84q4 40 42 65.5t92 25.5q58 0 87 -23.5t25 -61.5q-6 -57 -84 -93q81 -40 75 -96q-5 -52 -45 -77.5t-102 -25.5zM535 33q35 0 60 17.5t29 51.5q1 6 -0.5 11.5t-5 10.5t-7 9t-10 8.5t-12 7.5
t-14.5 7.5t-15 7t-16.5 7.5t-16.5 7q-62 -34 -68 -81q-3 -33 17.5 -48.5t58.5 -15.5zM563 210q64 33 68 69q5 50 -63 50q-73 0 -79 -55q-2 -19 16.5 -32.5t57.5 -31.5z" />
    <glyph glyph-name="fivesup_fraction_eightinf" unicode="&#x215d;" horiz-adv-x="725" 
d="M142 407q-51 0 -99 13l19 44q45 -12 84 -12q35 0 58.5 19.5t26.5 49.5q4 35 -14.5 53t-54.5 18q-20 0 -87 -5l20 193h209l-4 -42h-159l-11 -104q1 0 17 0.5t28 0.5q55 0 85.5 -30t25.5 -79q-5 -54 -45.5 -86.5t-98.5 -32.5zM61 80l-31 34l577 533l29 -33zM530 -6
q-60 0 -94.5 23.5t-28.5 72.5q5 58 83 106q-56 33 -50 84q4 40 42 65.5t92 25.5q58 0 87 -23.5t25 -61.5q-6 -57 -84 -93q81 -40 75 -96q-5 -52 -45 -77.5t-102 -25.5zM535 33q35 0 60 17.5t29 51.5q1 6 -0.5 11.5t-5 10.5t-7 9t-10 8.5t-12 7.5t-14.5 7.5t-15 7t-16.5 7.5
t-16.5 7q-62 -34 -68 -81q-3 -33 17.5 -48.5t58.5 -15.5zM563 210q64 33 68 69q5 50 -63 50q-73 0 -79 -55q-2 -19 16.5 -32.5t57.5 -31.5z" />
    <glyph glyph-name="sevensup_fraction_eightinf" unicode="&#x215e;" horiz-adv-x="725" 
d="M143 402l-46 20l202 311h-197l5 47h254l-4 -39zM61 80l-31 34l577 533l29 -33zM530 -6q-60 0 -94.5 23.5t-28.5 72.5q5 58 83 106q-56 33 -50 84q4 40 42 65.5t92 25.5q58 0 87 -23.5t25 -61.5q-6 -57 -84 -93q81 -40 75 -96q-5 -52 -45 -77.5t-102 -25.5zM535 33
q35 0 60 17.5t29 51.5q1 6 -0.5 11.5t-5 10.5t-7 9t-10 8.5t-12 7.5t-14.5 7.5t-15 7t-16.5 7.5t-16.5 7q-62 -34 -68 -81q-3 -33 17.5 -48.5t58.5 -15.5zM563 210q64 33 68 69q5 50 -63 50q-73 0 -79 -55q-2 -19 16.5 -32.5t57.5 -31.5z" />
    <glyph glyph-name="arrowleft" unicode="&#x2190;" horiz-adv-x="745" 
d="M247 74l-193 226l240 227l31 -34l-176 -168h543l-5 -49h-543l141 -169z" />
    <glyph glyph-name="arrowup" unicode="&#x2191;" horiz-adv-x="745" 
d="M314 -16l57 543l-186 -159l-29 35l249 216l204 -216l-37 -34l-152 158l-57 -543h-49z" />
    <glyph glyph-name="arrowright" unicode="&#x2192;" horiz-adv-x="745" 
d="M450 74l-31 34l176 168h-543l5 49h543l-141 169l38 33l193 -226z" />
    <glyph glyph-name="arrowdown" unicode="&#x2193;" horiz-adv-x="745" 
d="M339 -40l-204 216l37 34l152 -158l57 543h49l-57 -543l185 159l30 -35z" />
    <glyph glyph-name="uni2196" unicode="&#x2196;" horiz-adv-x="745" 
d="M546 47l-343 384l-23 -232h-50l33 314l314 1l-5 -48h-231l344 -384z" />
    <glyph glyph-name="uni2197" unicode="&#x2197;" horiz-adv-x="745" 
d="M149 48l-31 35l424 383l-232 -1l5 50h314l-32 -314h-48l24 231z" />
    <glyph glyph-name="uni2198" unicode="&#x2198;" horiz-adv-x="745" 
d="M267 49l5 48h231l-344 384l39 35l343 -384l23 232h50l-33 -314z" />
    <glyph glyph-name="uni2199" unicode="&#x2199;" horiz-adv-x="745" 
d="M115 50l32 314h48l-24 -231l424 384l31 -35l-424 -383l232 1l-5 -50h-314z" />
    <glyph glyph-name="home" unicode="&#x21b8;" horiz-adv-x="780" 
d="M730 400h-92v-400h-491v400h-97l340 270zM623 436l-234 183l-236 -183h470zM599 39v361h-413v-361h231v253h116v-253h66zM353 176h-116v116h116v-116z" />
    <glyph glyph-name="partialdiff" unicode="&#x2202;" horiz-adv-x="552" 
d="M182 -13q-131 0 -131 176q0 114 59 189t169 75q64 0 145 -25q-11 215 -197 271l22 45q232 -61 232 -340q0 -64 -19 -130.5t-54 -126t-94.5 -97t-131.5 -37.5zM185 34q59 0 105.5 31t73 81t41 103t17.5 107q-114 22 -157 22q-79 0 -118.5 -64t-39.5 -150q0 -130 78 -130z
" />
    <glyph glyph-name="Delta" unicode="&#x2206;" horiz-adv-x="635" 
d="M53 52h464l-132 585l-9 44l-21 -45zM-35 0l365 707h97l163 -707h-625z" />
    <glyph glyph-name="product" unicode="&#x220f;" horiz-adv-x="674" 
d="M51 -220l92 878h-100l5 49h674l-5 -49h-101l-92 -878h-60l92 878h-353l-92 -878h-60z" />
    <glyph glyph-name="summation" unicode="&#x2211;" horiz-adv-x="479" 
d="M-18 -220l6 60l269 413l-186 393l6 61h430l-5 -51h-373l192 -404l-277 -418h371l-5 -54h-428z" />
    <glyph glyph-name="minus" unicode="&#x2212;" horiz-adv-x="466" 
d="M38 326l5 54h375l-6 -54h-374z" />
    <glyph glyph-name="radical" unicode="&#x221a;" horiz-adv-x="587" 
d="M258 0l-73 492h-133l5 54h181l71 -500l311 791h55l-329 -837h-88z" />
    <glyph glyph-name="infinity" unicode="&#x221e;" horiz-adv-x="959" 
d="M233 197q-65 0 -104.5 34.5t-39.5 98.5q0 76 51.5 125.5t128.5 49.5q27 0 52.5 -6t55 -23t42.5 -25.5t48.5 -36.5t41.5 -32q8 5 46.5 31t55.5 35.5t49.5 26.5t60 23.5t55.5 6.5q64 0 105 -34.5t41 -97.5q0 -75 -54 -124.5t-130 -49.5q-20 0 -39 3.5t-39 12t-33.5 15
t-35.5 22t-30.5 21.5t-33 26t-29.5 24q-8 -5 -38 -25.5t-44 -29.5t-42.5 -25.5t-48 -24.5t-45 -14.5t-47.5 -6.5zM244 245q17 0 38 6t36 12t41 21.5t35.5 21.5t37.5 25t30 20q-4 3 -23 18t-28 21.5l-27 19.5t-30.5 19.5t-29.5 14.5t-32 11.5t-30 3.5q-52 0 -86 -34.5
t-34 -86.5q0 -45 28 -69t74 -24zM748 245q52 0 86 34.5t34 86.5q0 45 -28.5 69t-73.5 24q-15 0 -31 -3.5t-35 -11.5t-32 -14t-34.5 -19.5t-30 -19t-31.5 -21t-26 -17.5q1 -1 23.5 -19t28.5 -22t26.5 -19t31.5 -20t28.5 -13.5t33 -11.5t30.5 -3z" />
    <glyph glyph-name="integral" unicode="&#x222b;" horiz-adv-x="438" 
d="M-81 -231l1 47q6 0 31.5 2t33 3t29.5 5t30 9.5t23.5 16t22.5 24.5t14 35t10 47l59 565q5 46 17.5 80t33 55t41 34t52 18.5t54 7t57.5 1.5l-1 -49q-11 -1 -35.5 -2.5t-37 -3.5t-33.5 -6.5t-32.5 -13.5t-25 -23.5t-21 -37t-10.5 -52.5l-60 -567q-6 -54 -24 -91.5
t-39.5 -57.5t-57 -30.5t-63 -13t-69.5 -2.5z" />
    <glyph glyph-name="approxequal" unicode="&#x2248;" horiz-adv-x="600" 
d="M394 145q-55 0 -118 31.5t-101 31.5q-43 0 -95 -30l-23 41q64 46 130 46q53 0 111 -31.5t103 -31.5q37 0 91 33l29 -37q-63 -53 -127 -53zM416 348q-55 0 -118.5 31.5t-101.5 31.5q-43 0 -95 -30l-22 41q64 46 129 46q54 0 112 -31.5t103 -31.5q36 0 90 33l29 -37
q-63 -53 -126 -53z" />
    <glyph glyph-name="notequal" unicode="&#x2260;" horiz-adv-x="600" 
d="M14 11l153 169h-133l6 50h173l135 149h-293l5 50h333l139 152h57l-138 -152h114l-5 -50h-154l-134 -149h273l-6 -50h-313l-152 -169h-60z" />
    <glyph glyph-name="lessequal" unicode="&#x2264;" horiz-adv-x="600" 
d="M496 151l-404 159l9 87l438 159l-6 -57l-414 -146l383 -145zM53 0l6 52h433l-6 -52h-433z" />
    <glyph glyph-name="greaterequal" unicode="&#x2265;" horiz-adv-x="600" 
d="M75 151l6 57l414 145l-383 146l6 57l404 -159l-9 -87zM53 0l6 52h433l-6 -52h-433z" />
    <glyph glyph-name="uni231A" unicode="&#x231a;" horiz-adv-x="786" 
d="M753 354q0 -150 -105.5 -255t-254.5 -105t-254.5 105t-105.5 255q0 149 105.5 254.5t254.5 105.5t254.5 -105.5t105.5 -254.5zM711 354q0 133 -92.5 225.5t-225.5 92.5t-225.5 -92.5t-92.5 -225.5t92.5 -225.5t225.5 -92.5t225.5 92.5t92.5 225.5zM557 601l-20 -25
l-26 15l15 30zM659 488l-31 -15l-15 27l26 20zM689 341h-30v31h30v-31zM277 591l-26 -16l-20 26l31 20zM658 225l-20 -31l-26 20l15 26zM410 340h-200v33h167v262h33v-295zM175 500l-15 -27l-30 15l19 32zM557 112l-32 -18l-15 29l27 15zM409 62h-30v32h30v-32zM130 341h-31
v31h31v-31zM176 214l-27 -20l-19 31l31 15zM277 123l-15 -29l-31 18l20 26z" />
    <glyph glyph-name="uni235F" unicode="&#x235f;" horiz-adv-x="666" 
d="M616 333q0 -115 -81.5 -196.5t-196.5 -81.5t-196.5 81.5t-81.5 196.5t81.5 196.5t196.5 81.5q116 0 197 -81.5t81 -196.5zM489 385l-132 -17l-24 130l-24 -130l-131 17l117 -63l-58 -120l96 92l97 -92l-58 120z" />
    <glyph glyph-name="uni24BB" unicode="&#x24bb;" horiz-adv-x="793" 
d="M761 354q0 -151 -107 -258t-257 -107q-151 0 -258 107t-107 258t107 258t257 107q151 0 258 -107t107 -258zM711 354q0 131 -92 223t-222 92q-131 0 -223 -92t-92 -223t92 -223t222 -92q131 0 223 92t92 223zM488 466h-139v-103h130v-34h-130v-124h-45v297h184v-36z" />
    <glyph glyph-name="uni24C2" unicode="&#x24c2;" horiz-adv-x="793" 
d="M236 205v297h64l93 -264l104 264h60v-297h-45v196l2 43l-93 -239h-60l-84 240l4 -39v-201h-45zM397 -11q-151 0 -258 107t-107 258t107 258t257 107q151 0 258 -107t107 -258t-107 -258t-257 -107zM396 39q131 0 223 92t92 223t-92 223t-222 92q-131 0 -223 -92t-92 -223
t92 -223t222 -92z" />
    <glyph glyph-name="uni24C9" unicode="&#x24c9;" horiz-adv-x="793" 
d="M761 353q0 -151 -107 -258t-257 -107q-151 0 -258 107t-107 258t107 258t257 107q151 0 258 -107t107 -258zM711 353q0 131 -92 223t-222 92q-131 0 -223 -92t-92 -223t92 -223t222 -92q131 0 223 92t92 223zM518 464h-99v-260h-44v260h-100v37h243v-37z" />
    <glyph glyph-name="uni24CC" unicode="&#x24cc;" horiz-adv-x="793" 
d="M761 351q0 -151 -107 -258t-257 -107q-151 0 -258 107t-107 258t107 258t257 107q151 0 258 -107t107 -258zM711 351q0 131 -92 223t-222 92q-131 0 -223 -92t-92 -223t92 -223t222 -92q131 0 223 92t92 223zM607 499l-94 -297h-60l-45 127l-14 48l-18 -47l-50 -128h-61
l-79 297h44l54 -210l13 -62l24 63l55 135l-25 74h44l70 -211l18 -60l19 63l63 208h42z" />
    <glyph glyph-name="uni25A0" unicode="&#x25a0;" horiz-adv-x="800" 
d="M24 13l71 681h680l-71 -681h-680z" />
    <glyph glyph-name="uni25A1" unicode="&#x25a1;" horiz-adv-x="800" 
d="M24 13l71 681h680l-71 -681h-680zM80 65h578l61 577h-578z" />
    <glyph glyph-name="uni25AA" unicode="&#x25aa;" horiz-adv-x="766" 
d="M81 0l57 547h546l-57 -547h-546z" />
    <glyph glyph-name="uni25AB" unicode="&#x25ab;" horiz-adv-x="766" 
d="M81 0l57 547h546l-57 -547h-546zM137 52h444l47 444h-444z" />
    <glyph glyph-name="uni25B6" unicode="&#x25b6;" horiz-adv-x="665" 
d="M74 -36l71 670l500 -335z" />
    <glyph glyph-name="uni25B7" unicode="&#x25b7;" horiz-adv-x="665" 
d="M74 -36l71 670l500 -335zM137 60l423 238l-372 244z" />
    <glyph glyph-name="uni25B8" unicode="&#x25b8;" horiz-adv-x="465" 
d="M444 273l-370 -335l71 670z" />
    <glyph glyph-name="uni25B9" unicode="&#x25b9;" horiz-adv-x="465" 
d="M444 273l-370 -335l71 670zM346 273l-151 169l-35 -338z" />
    <glyph glyph-name="uni25BA" unicode="&#x25ba;" horiz-adv-x="1013" 
d="M1013 273l-939 -335l71 670z" />
    <glyph glyph-name="uni25BB" unicode="&#x25bb;" horiz-adv-x="1013" 
d="M1013 273l-939 -335l71 670zM848 273l-655 249l-53 -499z" />
    <glyph glyph-name="uni25C0" unicode="&#x25c0;" horiz-adv-x="665" 
d="M519 -36l-499 335l570 335z" />
    <glyph glyph-name="uni25C1" unicode="&#x25c1;" horiz-adv-x="665" 
d="M519 -36l-499 335l570 335zM476 60l51 482l-424 -244z" />
    <glyph glyph-name="uni25C2" unicode="&#x25c2;" horiz-adv-x="464" 
d="M318 -62l-298 336l369 334z" />
    <glyph glyph-name="uni25C3" unicode="&#x25c3;" horiz-adv-x="464" 
d="M318 -62l-298 336l369 334zM269 104l35 338l-186 -169z" />
    <glyph glyph-name="uni25C4" unicode="&#x25c4;" horiz-adv-x="1013" 
d="M867 -62l-867 334l938 336z" />
    <glyph glyph-name="uni25C5" unicode="&#x25c5;" horiz-adv-x="1013" 
d="M867 -62l-867 334l938 336zM819 23l53 499l-708 -250z" />
    <glyph glyph-name="uni25C6" unicode="&#x25c6;" horiz-adv-x="510" 
d="M236 172l-156 175l192 174l1 1l157 -175z" />
    <glyph glyph-name="uni25C9" unicode="&#x25c9;" horiz-adv-x="891" 
d="M801 351q0 -146 -105 -250q-104 -105 -250 -105q-148 0 -251 105q-105 103 -105 250t105 251q103 105 251 105q147 0 250 -105q105 -104 105 -251zM748 351q0 126 -89 214q-87 88 -213 88q-127 0 -214 -88q-88 -87 -88 -214q0 -126 88 -213q89 -89 214 -89q126 0 213 89
q89 86 89 213zM602 351q0 -64 -46 -110t-110 -46q-65 0 -111 46t-46 110q0 65 46 111t111 46q64 0 110 -46t46 -111z" />
    <glyph glyph-name="lozenge" unicode="&#x25ca;" horiz-adv-x="536" 
d="M180 0l-146 357l226 351h91l146 -354l-228 -354h-89zM227 36l204 314l-128 322l-204 -314z" />
    <glyph glyph-name="uni25CB" unicode="&#x25cb;" horiz-adv-x="729" 
d="M364 -7q-118 0 -201 83.5t-83 200.5q0 118 83 201t201 83q119 0 202 -83t83 -201q0 -117 -83.5 -200.5t-201.5 -83.5zM364 48q96 0 163.5 67t67.5 162q0 96 -67.5 163.5t-163.5 67.5q-95 0 -162.5 -67.5t-67.5 -163.5q0 -95 67.5 -162t162.5 -67z" />
    <glyph glyph-name="uni25CE" unicode="&#x25ce;" horiz-adv-x="891" 
d="M797 361q0 -145 -103 -248t-248 -103q-146 0 -249 103t-103 248q0 146 103 249t249 103q145 0 248 -103t103 -249zM745 361q0 124 -88 212q-87 87 -211 87q-125 0 -212 -87t-87 -212q0 -124 87 -211q90 -88 212 -88q123 0 211 88q88 87 88 211zM653 361q0 -83 -61 -146
q-60 -60 -146 -60t-146 60q-61 61 -61 146q0 86 61 147q60 60 146 60t146 -60q61 -63 61 -147zM600 361q0 65 -45 110t-109 45q-65 0 -110 -45t-45 -110q0 -64 45 -109t110 -45q64 0 109 45t45 109zM508 361q0 -26 -18 -44t-44 -18t-44 18q-18 19 -18 44q0 26 18 44
q18 19 44 19q25 0 44 -19q18 -18 18 -44z" />
    <glyph glyph-name="uni25CF" unicode="&#x25cf;" horiz-adv-x="766" 
d="M382 -5q-115 0 -197 81.5t-82 196.5t81.5 196.5t197.5 81.5q115 0 196.5 -81.5t81.5 -196.5t-81.5 -196.5t-196.5 -81.5z" />
    <glyph glyph-name="uni25EF" unicode="&#x25ef;" horiz-adv-x="877" 
d="M439 -5q-149 0 -254 105t-105 254t105 254t254 105q148 0 253 -105t105 -254t-105 -254t-253 -105zM439 51q125 0 214 88.5t89 214.5q0 125 -89 214t-214 89q-126 0 -215 -89t-89 -214q0 -126 89 -214.5t215 -88.5z" />
    <glyph glyph-name="star" unicode="&#x2605;" horiz-adv-x="585" 
d="M103 107l105 197l-172 111l212 -18l70 209l27 -209l216 18l-196 -111l63 -197l-148 140z" />
    <glyph glyph-name="uni260F" unicode="&#x260f;" horiz-adv-x="658" 
d="M608 125q-89 -85 -126 -97q-16 -6 -42 4q-117 45 -250 231q-78 112 -107 182q-30 74 -33 129q5 32 10 40q12 19 57 51t72 45l102 -178l-64 -47l186 -259l58 50zM542 129l-73 80l-50 -44q-13 -13 -29 11l-219 305q-8 9 -6.5 17.5t8.5 11.5l51 43l-56 90
q-22 -12 -45.5 -41.5t-20.5 -52.5q19 -113 125 -258q125 -166 211 -207q20 -9 51 7.5t53 37.5z" />
    <glyph glyph-name="uni2612" unicode="&#x2612;" horiz-adv-x="766" 
d="M110 0v547h546v-547h-546zM383 310l183 183h-366zM202 54h369l-188 181zM164 91l182 182l-182 182v-364zM602 97v358l-182 -182z" />
    <glyph glyph-name="uni261C" unicode="&#x261c;" horiz-adv-x="765" 
d="M715 97h-67q-11 0 -38.5 -21t-54.5 -21h-188q-39 0 -60.5 20.5t-21.5 51.5q0 9 3 18q-21 7 -34 26t-13 41q0 14 8 32q-15 16 -15 42q0 11 6 27h-116q-35 0 -54.5 21t-19.5 50q0 30 21.5 52.5t60.5 22.5h263l-45 42q-30 29 -30 59q0 43 59 100l237 -190h98v-38h-112
l-222 178q-20 -20 -20 -43q0 -29 29 -53l108 -93h-365q-21 0 -32.5 -10.5t-11.5 -25.5q0 -14 9.5 -24t26.5 -10h334v-38h-178q-8 -14 -8 -22q0 -9 7 -17.5t22 -8.5h157v-38h-175q-5 -6 -5 -22q0 -26 47 -26h133v-38h-131q-4 -4 -4 -16q0 -14 14 -23t30 -9h188q18 0 44 21
t49 21h67v-38z" />
    <glyph glyph-name="uni261D" unicode="&#x261d;" horiz-adv-x="705" 
d="M655 361l-190 -237v-124h-38v138l178 222q-20 20 -43 20q-29 0 -53 -29l-93 -108v365q0 21 -10.5 32.5t-25.5 11.5q-14 0 -24 -9.5t-10 -26.5v-334h-38v178q-14 8 -22 8q-9 0 -17.5 -7t-8.5 -22v-157h-38v175q-6 5 -22 5q-26 0 -26 -47v-133h-38v130q-4 5 -16 5
q-14 0 -23 -14t-9 -30v-188q0 -18 21 -44t21 -49v-93h-38v93q0 11 -21 38.5t-21 54.5v188q0 39 20.5 60.5t51.5 21.5q9 0 18 -3q7 21 26 34t41 13q14 0 32 -8q18 15 42 15q11 0 27 -6v116q0 35 21 54.5t50 19.5q30 0 52.5 -21.5t22.5 -60.5v-263l42 45q28 30 59 30
q43 0 100 -59z" />
    <glyph glyph-name="uni261E" unicode="&#x261e;" horiz-adv-x="765" 
d="M715 384q0 -29 -19.5 -50t-54.5 -21h-116q6 -16 6 -27q0 -24 -15 -42q8 -18 8 -32q0 -22 -13 -41t-34 -26q3 -9 3 -18q0 -31 -21.5 -51.5t-60.5 -20.5h-188q-27 0 -54.5 21t-38.5 21h-67v38h67q23 0 49 -21t44 -21h188q16 0 30 9t14 23q0 12 -5 16h-130v38h133
q47 0 47 26q0 16 -5 22h-175v38h157q15 0 22 8.5t7 17.5q0 8 -8 22h-178v38h334q17 0 26.5 10t9.5 24q0 15 -11.5 25.5t-32.5 10.5h-365l108 93q29 24 29 53q0 23 -20 43l-222 -178h-112v38h98l237 190q59 -57 59 -100q0 -30 -30 -59l-45 -42h263q39 0 60.5 -22.5
t21.5 -52.5z" />
    <glyph glyph-name="uni261F" unicode="&#x261f;" horiz-adv-x="705" 
d="M655 361l-190 -237v-124h-38v138l178 222q-20 20 -43 20q-29 0 -53 -29l-93 -108v160q0 44 -26 44q-14 0 -24 -9.5t-10 -26.5v-129h-38v337q0 17 -9.5 27.5t-21.5 10.5t-19.5 -10.5t-7.5 -27.5v-337h-38v161q-6 5 -22 5q-15 0 -20.5 -6t-5.5 -27v-133h-38v130q-4 5 -16 5
q-14 0 -23 -14t-9 -30v-188q0 -18 21 -44t21 -49v-93h-38v93q0 11 -21 38.5t-21 54.5v188q0 39 20.5 60.5t51.5 21.5q9 0 18 -3q20 33 58 33q10 0 24 -7v153q0 28 22.5 47.5t47.5 19.5q26 0 45.5 -19t19.5 -44v-156q14 6 32 6q29 0 47 -21t18 -61v-58l42 45q27 28 67 28
q22 0 42 -13t50 -44z" />
    <glyph glyph-name="smileface" unicode="&#x263a;" horiz-adv-x="837" 
d="M419 116q-85 0 -150.5 53.5t-82.5 135.5l52 8q14 -63 64.5 -103.5t116.5 -40.5q68 0 119 43t63 109l51 -15q-17 -82 -82 -136t-151 -54zM291 404q-22 0 -37 14.5t-15 35.5t15 35.5t37 14.5q21 0 37 -14.5t16 -35.5t-16 -35.5t-37 -14.5zM419 -5q-149 0 -254 105t-105 254
t105 254t254 105q148 0 253 -105t105 -254t-105 -254t-253 -105zM419 51q125 0 214 88.5t89 214.5q0 125 -89 214t-214 89q-126 0 -215 -89t-89 -214q0 -126 89 -214.5t215 -88.5zM546 404q-22 0 -37 14.5t-15 35.5t15 35.5t37 14.5q21 0 37 -14.5t16 -35.5t-16 -35.5
t-37 -14.5z" />
    <glyph glyph-name="earth" unicode="&#x2641;" horiz-adv-x="786" 
d="M753 354q0 -150 -105.5 -255t-254.5 -105t-254.5 105t-105.5 255q0 149 105.5 254.5t254.5 105.5t254.5 -105.5t105.5 -254.5zM202 561l-29 -21l-16 25l1 1h-2l1 -1q-82 -88 -82 -211q0 -133 92.5 -225.5t225.5 -92.5t225.5 92.5t92.5 225.5q0 33 -7 69l-5 -49l-49 -32
l17 -20l-28 -14l-10 18l-5 -1l5 -26l21 -12l-8 -7l-13 4l3 -10l11 -1l10 -19l30 -11l2 -10l-36 6l-48 51l19 -2l-27 64v16h-8l-3 -15l-27 -20v-19l-25 -6l-13 36l-9 3l1 21l-81 14l13 -21l18 5l14 -14l-14 -18l-39 -12l-34 67h-10l-1 -13l23 -48l18 -13l32 2l-54 -76l6 -6
l2 -24l-15 -15l-1 -18l-38 -46l-35 2l-27 77l8 11v19l-22 27l9 6l-22 14l-49 2l-26 27l-1 49l62 54l32 3l8 -9l-2 -13l25 -8l13 16l9 -14h40l6 6v24l-14 -24l-24 30l8 -30l-22 18l-3 19l-21 24l-4 -4l17 -20l-11 -19l-2 16l-22 17l-11 -10l-6 4l-41 -34l-14 35l26 -1l9 11
l-14 9l21 13l10 1l17 16l-5 18l10 4l6 -14l32 4l1 12l40 13l-6 7l-27 -7l-7 14l16 12l-9 10l-21 -27l8 -6l-2 -16l-20 -6l-5 12l-22 -3l2 19l36 49l44 9l60 -14l-11 -16l-23 2l15 -16l46 30h35l-20 27l23 26l33 14q-52 19 -111 19q-146 0 -235 -106l30 8zM564 625
q-40 20 -60 28l5 -11l-31 -11l-18 -23l36 -23l-6 11l22 24l45 -15zM438 219l-14 -51l-21 14l6 26l21 16zM702 277l-13 -25l-23 6l1 19l21 21zM251 496l-1 -13h-27l6 13l-15 21l12 11l6 -18zM218 491l-10 -11l-11 10l9 18zM296 419l-9 4l6 9z" />
    <glyph glyph-name="uni2661" unicode="&#x2661;" horiz-adv-x="673" 
d="M623 375q0 -74 -98 -188l-189 -223l-154 175q-58 65 -95 130t-37 106q0 82 49.5 132t112.5 50t125 -56q58 56 124 56q63 0 112.5 -50t49.5 -132zM564 375q0 59 -32.5 91t-70.5 32q-24 0 -43.5 -8.5t-35.5 -27.5t-24 -32t-22 -39q-22 42 -37 61q-39 46 -87 46
q-38 0 -70.5 -33t-32.5 -90q0 -29 31.5 -81.5t73.5 -101.5l123 -142l143 169q37 44 60.5 88t23.5 68z" />
    <glyph glyph-name="uni2665" unicode="&#x2665;" horiz-adv-x="673" 
d="M623 375q0 -74 -98 -188l-189 -223l-154 175q-58 65 -95 130t-37 106q0 82 49.5 132t112.5 50t125 -56q58 56 124 56q63 0 112.5 -50t49.5 -132z" />
    <glyph glyph-name="uni2708" unicode="&#x2708;" horiz-adv-x="786" 
d="M753 354q0 -149 -105.5 -254.5t-254.5 -105.5t-254.5 105.5t-105.5 254.5t105.5 254.5t254.5 105.5t254.5 -105.5t105.5 -254.5zM711 354q0 133 -92.5 225.5t-225.5 92.5t-225.5 -92.5t-92.5 -225.5t92.5 -225.5t225.5 -92.5t225.5 92.5t92.5 225.5zM572 512
q0 -15 -8 -25l-79 -87l85 -187l-43 -45l-115 161l-74 -76l14 -103l-36 -12l-44 96l-97 41l5 37l109 -13l74 77l-163 108l43 45l188 -78l86 81q10 10 23 10q14 0 23 -9t9 -21z" />
    <glyph glyph-name="uni2709" unicode="&#x2709;" horiz-adv-x="756" 
d="M706 51h-656v484h656v-484zM665 116v351l-186 -168zM642 495h-524l263 -227zM637 89l-190 182l-32 -31q-13 -13 -38 -13q-19 0 -37 17l-33 29l-190 -184h520zM278 300l-189 163v-351z" />
    <glyph glyph-name="uni270E" unicode="&#x270e;" horiz-adv-x="764" 
d="M714 498l-377 -380l-287 -108l111 278l383 380zM586 571l-45 41l-316 -320l45 -42zM657 496l-45 45l-316 -320l45 -46zM316 148l-121 118l-53 -123l43 -46z" />
    <glyph glyph-name="uni2740" unicode="&#x2740;" horiz-adv-x="434" 
d="M384 211l-137 -206v-5h-59v3l-138 208q16 4 37 4q29 0 50 -11q41 -24 51 -108v156q-42 12 -66 43.5t-24 72.5q0 22 0.5 102t0.5 102l71 -45l44 47l47 -48l74 46v-204q0 -41 -23.5 -72t-64.5 -43v-149q9 76 50 100q21 11 50 11zM282 368v112l-20 -20l-47 48l-45 -49
l-19 20v-111q0 -27 19 -46t46 -19t46.5 19t19.5 46z" />
    <glyph glyph-name="uni2780" unicode="&#x2780;" horiz-adv-x="840" 
d="M420 -5q-149 0 -254.5 105t-105.5 254t105.5 254t254.5 105t254.5 -105t105.5 -254q0 -148 -105.5 -253.5t-254.5 -105.5zM420 41q130 0 221.5 91.5t91.5 221.5t-91.5 221.5t-221.5 91.5t-221.5 -91.5t-91.5 -221.5t91.5 -221.5t221.5 -91.5zM409 182v323h-93v42l146 4
v-369h-53z" />
    <glyph glyph-name="uni2781" unicode="&#x2781;" horiz-adv-x="840" 
d="M289 192v45q16 12 51.5 37.5t50 37t39 32.5t34.5 35.5t18.5 34t8.5 38.5q0 32 -19.5 49t-49.5 17q-58 0 -93 -37l-26 31q21 23 54.5 37t66.5 14q49 0 83.5 -27.5t34.5 -79.5q0 -17 -3 -33t-12 -31.5t-15.5 -27t-22.5 -26.5t-23 -22.5t-28 -22.5t-26.5 -19t-29 -19.5
t-26.5 -17.5h192v-45h-259zM420 -5q-149 0 -254.5 105t-105.5 254t105.5 254t254.5 105t254.5 -105t105.5 -254q0 -148 -105.5 -253.5t-254.5 -105.5zM420 41q130 0 221.5 91.5t91.5 221.5t-91.5 221.5t-221.5 91.5t-221.5 -91.5t-91.5 -221.5t91.5 -221.5t221.5 -91.5z" />
    <glyph glyph-name="uni2782" unicode="&#x2782;" horiz-adv-x="840" 
d="M409 174q-59 0 -104 16l12 41q51 -14 87 -14q93 0 93 60q0 40 -28 55t-88 20v36q99 9 99 70q0 24 -19.5 37t-49.5 13q-33 0 -69 -17l-15 33q45 26 94 26q45 0 77 -24t32 -61q0 -29 -17 -53.5t-49 -36.5q41 -7 63.5 -34t22.5 -60q0 -55 -41.5 -81t-99.5 -26zM420 -5
q-149 0 -254.5 105t-105.5 254t105.5 254t254.5 105t254.5 -105t105.5 -254q0 -148 -105.5 -253.5t-254.5 -105.5zM420 41q130 0 221.5 91.5t91.5 221.5t-91.5 221.5t-221.5 91.5t-221.5 -91.5t-91.5 -221.5t91.5 -221.5t221.5 -91.5z" />
    <glyph glyph-name="uni2783" unicode="&#x2783;" horiz-adv-x="840" 
d="M420 -5q-149 0 -254.5 105t-105.5 254t105.5 254t254.5 105t254.5 -105t105.5 -254q0 -148 -105.5 -253.5t-254.5 -105.5zM420 41q130 0 221.5 91.5t91.5 221.5t-91.5 221.5t-221.5 91.5t-221.5 -91.5t-91.5 -221.5t91.5 -221.5t221.5 -91.5zM425 182v91h-171v49l140 225
h84v-231h65v-43h-65v-91h-53zM299 316h126v201z" />
    <glyph glyph-name="uni2784" unicode="&#x2784;" horiz-adv-x="840" 
d="M411 164q-50 0 -100 13l14 44q47 -12 85 -12q35 0 56.5 19.5t21.5 49.5q0 35 -20 53t-56 18q-20 0 -87 -5v193h209v-42h-159v-104q1 0 17 0.5t28 0.5q55 0 89 -30t34 -79q0 -54 -37 -86.5t-95 -32.5zM420 -5q-149 0 -254.5 105t-105.5 254t105.5 254t254.5 105
t254.5 -105t105.5 -254q0 -148 -105.5 -253.5t-254.5 -105.5zM420 41q130 0 221.5 91.5t91.5 221.5t-91.5 221.5t-221.5 91.5t-221.5 -91.5t-91.5 -221.5t91.5 -221.5t221.5 -91.5z" />
    <glyph glyph-name="uni2785" unicode="&#x2785;" horiz-adv-x="840" 
d="M420 -5q-149 0 -254.5 105t-105.5 254t105.5 254t254.5 105t254.5 -105t105.5 -254q0 -148 -105.5 -253.5t-254.5 -105.5zM420 41q130 0 221.5 91.5t91.5 221.5t-91.5 221.5t-221.5 91.5t-221.5 -91.5t-91.5 -221.5t91.5 -221.5t221.5 -91.5zM414 172q-67 0 -100 36.5
t-33 123.5q0 100 47.5 159t124.5 59q34 0 69 -11l-13 -42q-34 9 -61 9q-43 0 -72 -30.5t-37 -85.5q37 16 79 16q57 0 89.5 -29.5t32.5 -82.5q0 -57 -36 -89.5t-90 -32.5zM417 214q30 0 49 21t19 54q0 36 -19.5 55.5t-50.5 19.5q-36 0 -78 -15q0 -80 16.5 -107.5t63.5 -27.5z
" />
    <glyph glyph-name="uni2786" unicode="&#x2786;" horiz-adv-x="840" 
d="M420 -5q-149 0 -254.5 105t-105.5 254t105.5 254t254.5 105t254.5 -105t105.5 -254q0 -148 -105.5 -253.5t-254.5 -105.5zM420 41q130 0 221.5 91.5t91.5 221.5t-91.5 221.5t-221.5 91.5t-221.5 -91.5t-91.5 -221.5t91.5 -221.5t221.5 -91.5zM375 149l-48 20l170 311
h-197v47h254v-39z" />
    <glyph glyph-name="uni2787" unicode="&#x2787;" horiz-adv-x="840" 
d="M415 166q-60 0 -96.5 23.5t-36.5 72.5q0 58 72 106q-59 32 -59 84q0 41 36 66t89 25q58 0 89.5 -23.5t31.5 -61.5q0 -56 -75 -93q86 -40 86 -96q0 -52 -37.5 -77.5t-99.5 -25.5zM416 205q36 0 59 17.5t23 51.5q0 6 -1.5 11.5t-5.5 10.5t-8.5 9t-11.5 8.5t-12.5 8
t-15.5 7.5t-16 6.5t-17 7t-17 7.5q-59 -34 -59 -81q0 -64 82 -64zM420 -5q-149 0 -254.5 105t-105.5 254t105.5 254t254.5 105t254.5 -105t105.5 -254q0 -148 -105.5 -253.5t-254.5 -105.5zM420 41q130 0 221.5 91.5t91.5 221.5t-91.5 221.5t-221.5 91.5t-221.5 -91.5
t-91.5 -221.5t91.5 -221.5t221.5 -91.5zM426 382q60 33 60 69q0 50 -68 50q-73 0 -73 -55q0 -19 20 -32.5t61 -31.5z" />
    <glyph glyph-name="uni2788" unicode="&#x2788;" horiz-adv-x="840" 
d="M420 -5q-149 0 -254.5 105t-105.5 254t105.5 254t254.5 105t254.5 -105t105.5 -254q0 -148 -105.5 -253.5t-254.5 -105.5zM420 41q130 0 221.5 91.5t91.5 221.5t-91.5 221.5t-221.5 91.5t-221.5 -91.5t-91.5 -221.5t91.5 -221.5t221.5 -91.5zM380 165q-34 0 -69 11l13 42
q34 -9 61 -9q42 0 71.5 30.5t36.5 85.5q-34 -16 -78 -16q-57 0 -89.5 29.5t-32.5 82.5q0 57 36 89.5t90 32.5q67 0 100 -36.5t33 -123.5q0 -100 -47.5 -159t-124.5 -59zM418 351q35 0 78 15q-1 79 -17.5 107t-62.5 28q-30 0 -49 -21t-19 -54q0 -36 19.5 -55.5t50.5 -19.5z
" />
    <glyph glyph-name="uni278A" unicode="&#x278a;" horiz-adv-x="840" 
d="M420 -5q-149 0 -254.5 105t-105.5 254t105.5 254t254.5 105t254.5 -105t105.5 -254q0 -148 -105.5 -253.5t-254.5 -105.5zM409 182h53v369l-146 -4v-42h93v-323z" />
    <glyph glyph-name="uni278B" unicode="&#x278b;" horiz-adv-x="840" 
d="M289 192h259v45h-192q3 2 26.5 17.5t29 19.5t26.5 19t28 22.5t23 22.5t22.5 26.5t15.5 27t12 31.5t3 33q0 52 -34.5 79.5t-83.5 27.5q-33 0 -66.5 -14t-54.5 -37l26 -31q35 37 93 37q30 0 49.5 -17t19.5 -49q0 -19 -8.5 -38.5t-18.5 -34t-34.5 -35.5t-39 -32.5t-50 -37
t-51.5 -37.5v-45zM420 -5q-149 0 -254.5 105t-105.5 254t105.5 254t254.5 105t254.5 -105t105.5 -254q0 -148 -105.5 -253.5t-254.5 -105.5z" />
    <glyph glyph-name="uni278C" unicode="&#x278c;" horiz-adv-x="840" 
d="M409 174q58 0 99.5 26t41.5 81q0 33 -22.5 60t-63.5 34q32 12 49 36.5t17 53.5q0 37 -32 61t-77 24q-49 0 -94 -26l15 -33q36 17 69 17q30 0 49.5 -13t19.5 -37q0 -61 -99 -70v-36q60 -5 88 -20t28 -55q0 -60 -93 -60q-36 0 -87 14l-12 -41q45 -16 104 -16zM420 -5
q-149 0 -254.5 105t-105.5 254t105.5 254t254.5 105t254.5 -105t105.5 -254q0 -148 -105.5 -253.5t-254.5 -105.5z" />
    <glyph glyph-name="uni278D" unicode="&#x278d;" horiz-adv-x="840" 
d="M420 -5q-149 0 -254.5 105t-105.5 254t105.5 254t254.5 105t254.5 -105t105.5 -254q0 -148 -105.5 -253.5t-254.5 -105.5zM425 182h53v91h65v43h-65v231h-84l-140 -225v-49h171v-91zM299 316l126 201v-201h-126z" />
    <glyph glyph-name="uni278E" unicode="&#x278e;" horiz-adv-x="840" 
d="M411 164q58 0 95 32.5t37 86.5q0 49 -34 79t-89 30q-12 0 -28 -0.5t-17 -0.5v104h159v42h-209v-193q67 5 87 5q36 0 56 -18t20 -53q0 -30 -21.5 -49.5t-56.5 -19.5q-38 0 -85 12l-14 -44q50 -13 100 -13zM420 -5q-149 0 -254.5 105t-105.5 254t105.5 254t254.5 105
t254.5 -105t105.5 -254q0 -148 -105.5 -253.5t-254.5 -105.5z" />
    <glyph glyph-name="uni278F" unicode="&#x278f;" horiz-adv-x="840" 
d="M420 -5q-149 0 -254.5 105t-105.5 254t105.5 254t254.5 105t254.5 -105t105.5 -254q0 -148 -105.5 -253.5t-254.5 -105.5zM414 172q54 0 90 32.5t36 89.5q0 53 -32.5 82.5t-89.5 29.5q-42 0 -79 -16q8 55 37 85.5t72 30.5q27 0 61 -9l13 42q-35 11 -69 11
q-77 0 -124.5 -59t-47.5 -159q0 -87 33 -123.5t100 -36.5zM417 214q-47 0 -63.5 27.5t-16.5 107.5q42 15 78 15q31 0 50.5 -19.5t19.5 -55.5q0 -33 -19 -54t-49 -21z" />
    <glyph glyph-name="uni2790" unicode="&#x2790;" horiz-adv-x="840" 
d="M420 -5q-149 0 -254.5 105t-105.5 254t105.5 254t254.5 105t254.5 -105t105.5 -254q0 -148 -105.5 -253.5t-254.5 -105.5zM375 149l179 339v39h-254v-47h197l-170 -311z" />
    <glyph glyph-name="uni2791" unicode="&#x2791;" horiz-adv-x="840" 
d="M415 166q62 0 99.5 25.5t37.5 77.5q0 56 -86 96q75 37 75 93q0 38 -31.5 61.5t-89.5 23.5q-53 0 -89 -25t-36 -66q0 -52 59 -84q-72 -48 -72 -106q0 -49 36.5 -72.5t96.5 -23.5zM416 205q-82 0 -82 64q0 47 59 81q6 -3 17 -7.5t17 -7t16 -6.5t15.5 -7.5t12.5 -8
t11.5 -8.5t8.5 -9t5.5 -10.5t1.5 -11.5q0 -34 -23 -51.5t-59 -17.5zM420 -5q-149 0 -254.5 105t-105.5 254t105.5 254t254.5 105t254.5 -105t105.5 -254q0 -148 -105.5 -253.5t-254.5 -105.5zM426 382q-27 12 -41.5 19.5t-27 19.5t-12.5 25q0 55 73 55q68 0 68 -50
q0 -36 -60 -69z" />
    <glyph glyph-name="uni2792" unicode="&#x2792;" horiz-adv-x="840" 
d="M380 165q77 0 124.5 59t47.5 159q0 87 -33 123.5t-100 36.5q-54 0 -90 -32.5t-36 -89.5q0 -53 32.5 -82.5t89.5 -29.5q44 0 78 16q-7 -55 -36.5 -85.5t-71.5 -30.5q-27 0 -61 9l-13 -42q35 -11 69 -11zM416 501q46 0 62.5 -28t17.5 -107q-43 -15 -78 -15
q-31 0 -50.5 19.5t-19.5 55.5q0 33 19 54t49 21zM780 354q0 -148 -105.5 -253.5t-254.5 -105.5t-254.5 105t-105.5 254t105.5 254t254.5 105t254.5 -105t105.5 -254z" />
    <glyph glyph-name="apple" unicode="&#xf8ff;" horiz-adv-x="1241" 
d="M1141 357h-10v-10h-11v10h-10v11h10v10h11v-10h10v-11zM1081 377h-11v11h11v-11zM1081 338h-11v10h11v-10zM1041 377h-11v11h11v-11zM1071 357h-10v-10h-11v10h-10v11h10v10h11v-10h10v-11zM1041 338h-11v10h11v-10zM1001 387h-10v-10h-11v11h10v10h11v-11zM1001 328h-11
v10h-10v10h11v-10h10v-10zM951 377h-11v10h-10v11h11v-10h10v-11zM981 357h-10v-10h-11v10h-10v11h10v10h11v-10h10v-11zM951 338h-10v-10h-11v10h10v10h11v-10zM911 338h-31v9h-10v31h10v10h21v-10h10v-21h-30v-9h30v-10zM900 368v9h-19v-9h19zM851 338h-31v9h-10v41h11
v-40h19v40h11v-50zM791 318h-11v20h-20v9h-10v31h10v10h31v-70zM780 348v29h-19v-29h19zM731 338h-31v9h-10v31h10v10h21v-10h10v-21h-30v-9h30v-10zM720 368v9h-19v-9h19zM671 338h-11v39h-19v-39h-11v70h11v-20h20v-10h10v-40zM611 338h-21v9h-10v30h-10v11h10v10h11v-10
h20v-11h-20v-29h20v-10zM551 347h-10v-9h-21v9h-10v31h10v10h21v-10h10v-31zM540 348v29h-19v-29h19zM491 347h-10v-9h-20v-20h-11v70h31v-10h10v-31zM480 348v29h-19v-29h19zM431 347h-10v-9h-10v-10h-10v-10h-11v11h10v18h-10v41h11v-40h19v40h11v-41zM371 338h-21v9h-10
v30h-10v11h10v10h11v-10h20v-11h-20v-29h20v-10zM311 387h-10v-10h-11v11h10v10h11v-11zM311 328h-11v10h-10v10h11v-10h10v-10zM261 377h-11v10h-10v11h11v-10h10v-11zM291 357h-10v-10h-11v10h-10v11h10v10h11v-10h10v-11zM261 338h-10v-10h-11v10h10v10h11v-10zM211 377
h-11v11h11v-11zM211 338h-11v10h11v-10zM171 377h-11v11h11v-11zM201 357h-10v-10h-11v10h-10v11h10v10h11v-10h10v-11zM171 338h-11v10h11v-10zM131 357h-10v-10h-11v10h-10v11h10v10h11v-10h10v-11z" />
    <glyph glyph-name="comma.inferior" unicode="&#xfe50;" horiz-adv-x="203" 
d="M46 -51q23 65 25 84l4 38h47l-2 -17q-3 -25 -11 -46.5t-13.5 -30.5t-18.5 -28h-31z" />
    <glyph glyph-name="period.inferior" unicode="&#xfe52;" horiz-adv-x="205" 
d="M70 0l7 61h59l-7 -61h-59z" />
    <glyph glyph-name="dollar.inferior" unicode="&#xfe69;" horiz-adv-x="330" 
d="M130 -43l6 50q-64 4 -107 27l21 39q55 -25 104 -25q89 0 89 57q0 17 -26.5 34t-59 30.5t-59 38t-26.5 54.5q0 35 29.5 58t70.5 28l6 64h45l-8 -63q52 -1 89 -19l-17 -36q-3 1 -21.5 6t-34 7.5t-34.5 2.5q-33 0 -55.5 -12t-22.5 -35q0 -17 27 -34t59 -30t59 -37.5
t27 -53.5q0 -44 -33 -69t-79 -30l-4 -52h-45z" />
    <glyph glyph-name="ampersand.alt" horiz-adv-x="596" 
d="M617 372q-59 -36 -143 -49q15 -33 15 -87q0 -98 -75.5 -172t-194.5 -74q-86 0 -144.5 41t-58.5 105q0 81 41 138t123 99q-50 39 -73 75t-23 95q0 79 57 125t145 46q58 0 101.5 -30t51.5 -81l-55 -10q-6 36 -38 55.5t-76 19.5q-56 0 -94 -33t-38 -86q0 -91 76 -138
t185 -47q115 0 195 44zM232 37q53 0 93 18.5t62 48.5t33 63.5t11 68.5q0 52 -15 83q-102 -2 -189 34q-75 -38 -114.5 -85.5t-39.5 -120.5q0 -52 42 -81t117 -29z" />
    <glyph glyph-name="Acute" horiz-adv-x="684" 
d="M275 737l-13 43l221 78l14 -57z" />
    <glyph glyph-name="Circumflex" horiz-adv-x="684" 
d="M488 737l-135 73l-156 -72l-16 42l177 85l155 -86z" />
    <glyph glyph-name="Caron" horiz-adv-x="684" 
d="M336 737l-155 86l25 42l135 -73l155 72l17 -42z" />
    <glyph glyph-name="Grave" horiz-adv-x="684" 
d="M457 736l-207 66l25 58l198 -80z" />
    <glyph glyph-name="Dieresis" horiz-adv-x="562" 
d="M245 751l-42 50l52 48l43 -48zM442 751l-42 50l52 48l44 -48z" />
    <glyph glyph-name="Macron" horiz-adv-x="536" 
d="M244 765l5 48h271l-5 -48h-271z" />
    <glyph glyph-name="dotlessj" horiz-adv-x="264" 
d="M-64 -220q-35 0 -62 10l13 51q33 -10 60 -10q63 0 87.5 37t32.5 111l60 567h56l-60 -568q-11 -108 -59.5 -153t-127.5 -45z" />
    <glyph glyph-name="a.smcp" horiz-adv-x="472" 
d="M-39 0l288 546h82l124 -546h-59l-45 201h-224l-105 -201h-61zM153 251h187l-55 252z" />
    <glyph glyph-name="b.smcp" horiz-adv-x="557" 
d="M90 0l59 546h164q67 0 110.5 -28.5t43.5 -94.5q0 -42 -21.5 -79.5t-60.5 -53.5q41 -9 66.5 -41.5t25.5 -75.5q0 -86 -53.5 -129.5t-144.5 -43.5h-189zM153 49h116q73 0 111 25.5t38 94.5q0 31 -13.5 50t-41 26.5t-48.5 9.5t-57 2h-83zM181 306h97q64 0 96 26t32 88
q0 48 -28.5 63.5t-84.5 15.5h-92z" />
    <glyph glyph-name="c.smcp" horiz-adv-x="530" 
d="M315 -8q-114 0 -184.5 68.5t-70.5 180.5q0 137 85.5 223t225.5 86q88 0 139 -23l-21 -46q-53 19 -120 19q-116 0 -183 -71t-67 -187q0 -94 58.5 -145.5t156.5 -51.5q76 0 130 18l12 -50q-68 -21 -161 -21z" />
    <glyph glyph-name="d.smcp" horiz-adv-x="637" 
d="M90 0l59 546h158q122 0 196 -60.5t74 -181.5q0 -149 -83.5 -226.5t-236.5 -77.5h-167zM152 49h115q122 0 187 64t65 189q0 99 -57.5 146.5t-160.5 47.5h-100z" />
    <glyph glyph-name="e.smcp" horiz-adv-x="531" 
d="M90 0l59 546h322l-5 -49h-265l-22 -198h249l-5 -50h-249l-22 -200h284l-5 -49h-341z" />
    <glyph glyph-name="f.smcp" horiz-adv-x="458" 
d="M90 0l59 546h279l-5 -49h-222l-23 -213h205l-5 -51h-206l-25 -233h-57z" />
    <glyph glyph-name="g.smcp" horiz-adv-x="578" 
d="M316 -8q-114 0 -185 69t-71 181q0 136 85 222t225 86q89 0 138 -21l-22 -47q-52 18 -119 18q-115 0 -181.5 -71t-66.5 -187q0 -95 59 -146t157 -51q51 0 85 9l19 181h57l-23 -217q-72 -26 -157 -26z" />
    <glyph glyph-name="h.smcp" horiz-adv-x="669" 
d="M90 0l59 546h57l-27 -248h317l26 249h57l-58 -547h-57l27 249h-317l-27 -249h-57z" />
    <glyph glyph-name="i.smcp" horiz-adv-x="296" 
d="M90 0l59 546h57l-59 -546h-57z" />
    <glyph glyph-name="j.smcp" horiz-adv-x="296" 
d="M-11 -144l-23 43q72 37 99.5 84.5t37.5 134.5l46 428h57l-46 -427q-10 -99 -48.5 -162t-122.5 -101z" />
    <glyph glyph-name="k.smcp" horiz-adv-x="541" 
d="M430 -18l-236 298l2 19l261 247h74l-273 -253l220 -279zM90 0l59 546h57l-59 -546h-57z" />
    <glyph glyph-name="l.smcp" horiz-adv-x="450" 
d="M90 0l59 546h57l-53 -494h257l-6 -52h-314z" />
    <glyph glyph-name="m.smcp" horiz-adv-x="746" 
d="M20 0l187 546h77l43 -501l232 501h77l-7 -546h-58l7 463l-214 -463h-90l-40 465l-157 -465h-57z" />
    <glyph glyph-name="n.smcp" horiz-adv-x="657" 
d="M90 0l60 546h85l223 -501l52 501h57l-61 -546h-89l-217 488l-53 -488h-57z" />
    <glyph glyph-name="o.smcp" horiz-adv-x="673" 
d="M300 -8q-112 0 -176 68t-64 180q0 137 85 225.5t225 88.5q112 0 177.5 -68.5t65.5 -179.5q0 -137 -86 -225.5t-227 -88.5zM307 41q113 0 179.5 76t66.5 190q0 88 -50.5 142t-139.5 54q-111 0 -178 -75t-67 -187q0 -89 50 -144.5t139 -55.5z" />
    <glyph glyph-name="p.smcp" horiz-adv-x="531" 
d="M90 -1l59 547h194q72 0 115 -36.5t43 -108.5q0 -195 -234 -195q-5 0 -16 0.5t-16 0.5l6 50q11 -1 34 -1q36 0 62.5 5.5t51.5 19.5t38 44t13 74q0 99 -118 99h-121l-53 -499h-58z" />
    <glyph glyph-name="q.smcp" horiz-adv-x="673" 
d="M300 -10q-112 0 -176 68.5t-64 180.5q0 137 85 226t225 89q112 0 177.5 -68.5t65.5 -180.5q0 -138 -86 -226.5t-227 -88.5zM307 39q113 0 179.5 76.5t66.5 190.5q0 89 -50.5 143t-139.5 54q-111 0 -178 -75t-67 -187q0 -90 50 -146t139 -56zM580 -147l-306 55l5 48
l307 -50z" />
    <glyph glyph-name="r.smcp" horiz-adv-x="578" 
d="M465 -15l-156 252q-27 -3 -91 -3h-44l-26 -234h-58l59 546h184q72 0 116 -35t44 -97q0 -58 -32.5 -102.5t-92.5 -61.5l150 -236zM179 285h92q161 0 161 128q0 85 -119 85h-112z" />
    <glyph glyph-name="s.smcp" horiz-adv-x="470" 
d="M192 -8q-38 0 -92.5 11.5t-79.5 27.5l24 50q30 -15 75 -26t76 -11q62 0 105.5 25t43.5 80q0 12 -5.5 22.5t-17 20.5t-20.5 16t-25 15.5t-20 12.5q-12 8 -43 25.5t-49 30t-40 31.5t-32.5 42.5t-10.5 50.5q0 63 58.5 98.5t133.5 35.5q40 0 88 -9.5t69 -21.5l-19 -48
q-60 28 -141 28q-54 0 -93 -20t-39 -65q0 -12 5.5 -22.5t17 -21t19.5 -17t24.5 -17t20.5 -12.5q13 -9 42 -26t48 -30t40.5 -31.5t32.5 -41t11 -47.5q0 -76 -60.5 -116t-146.5 -40z" />
    <glyph glyph-name="t.smcp" horiz-adv-x="483" 
d="M187 0l53 495h-200l6 51h457l-6 -51h-200l-53 -495h-57z" />
    <glyph glyph-name="u.smcp" horiz-adv-x="661" 
d="M305 -9q-39 0 -72.5 7.5t-65 24.5t-49.5 50.5t-18 79.5q0 9 2 29l39 364h58l-39 -360q-16 -145 143 -145t178 165l36 340h54l-37 -343q-6 -61 -29.5 -104.5t-57.5 -66t-69 -32t-73 -9.5z" />
    <glyph glyph-name="v.smcp" horiz-adv-x="541" 
d="M186 0l-146 546h59l130 -496l269 496h63l-300 -546h-75z" />
    <glyph glyph-name="w.smcp" horiz-adv-x="738" 
d="M140 0l-90 546h58l77 -487l181 372l-23 115h59l94 -489l205 489h57l-229 -546h-76l-72 348l-169 -348h-72z" />
    <glyph glyph-name="x.smcp" horiz-adv-x="499" 
d="M-20 0l239 291l-133 255h63l108 -213l170 213h62l-207 -256l150 -290h-62l-126 249l-198 -249h-66z" />
    <glyph glyph-name="y.smcp" horiz-adv-x="430" 
d="M136 0l23 210l-149 336h62l122 -284l194 284h62l-234 -337l-23 -209h-57z" />
    <glyph glyph-name="z.smcp" horiz-adv-x="475" 
d="M20 0l5 53l357 439h-289l5 54h357l-4 -48l-359 -445h327l-6 -53h-393z" />
    <glyph glyph-name="commaaccent" horiz-adv-x="151" 
d="M25 -259l46 201h54l-54 -201h-46z" />
    <glyph glyph-name="Dotaccent" horiz-adv-x="346" 
d="M166 752l-49 53l61 52l51 -52z" />
    <glyph glyph-name="Hungarumlaut" horiz-adv-x="594" 
d="M123 738l-26 37l188 141l30 -50zM298 737l-13 43l221 78l14 -57z" />
    <glyph glyph-name="Tilde" horiz-adv-x="747" 
d="M433 748q-20 0 -62.5 18t-60.5 18q-36 0 -71 -24l-20 35q46 38 96 38q24 0 63.5 -18t59.5 -18q38 0 70 28l20 -36q-47 -41 -95 -41z" />
    <glyph glyph-name="uni006E_uni00AF" horiz-adv-x="544" 
d="M69 0l57 546h57l-10 -98q1 1 18.5 16t25 21t26 20t32 21.5t31.5 16.5t35.5 13t34.5 4q52 0 71.5 -20.5t19.5 -66.5q0 -17 -6 -79l-43 -394h-56l42 381q7 59 7 78q0 28 -12 39t-44 11q-15 0 -45 -16.5t-55 -34.5t-54.5 -40.5t-33.5 -25.5l-42 -392h-56zM199 675l5 48h271
l-5 -48h-271z" />
    <glyph glyph-name="uni0070_uni00AF" horiz-adv-x="535" 
d="M45 -220l83 766h55l-8 -85q119 85 204 85q115 0 115 -155q0 -54 -10.5 -108.5t-34 -107t-56.5 -93t-82.5 -65t-107.5 -24.5q-32 0 -78 8l-24 -221h-56zM210 43q50 0 90 24t65 61t41.5 85t23 92.5t6.5 86.5q0 60 -17.5 81.5t-53.5 21.5q-69 0 -197 -88l-37 -352
q9 -2 21 -4.5t18.5 -4t17 -2.5t22.5 -1zM200 675l5 48h271l-5 -48h-271z" />
    <glyph glyph-name="uni0078_uni00AF" horiz-adv-x="424" 
d="M-35 0l215 294l-109 252h60l86 -205l145 205h62l-186 -255l123 -291h-61l-98 242l-174 -242h-63zM119 675l5 48h271l-5 -48h-271z" />
    <glyph glyph-name="uni004E_uni00AF" horiz-adv-x="726" 
d="M75 0l76 707h99l272 -685l70 685h59l-77 -707h-105l-264 668l-70 -668h-60zM280 765l5 48h271l-5 -48h-271z" />
    <glyph glyph-name="uni0050_uni00AF" horiz-adv-x="560" 
d="M75 0l75 707h219q92 0 145 -46.5t53 -137.5q0 -126 -80.5 -188.5t-209.5 -60.5h-14l6 51q233 -2 233 195q0 138 -160 138h-137l-69 -658h-61zM204 765l5 48h271l-5 -48h-271z" />
    <glyph glyph-name="uni0058_uni00AF" horiz-adv-x="555" 
d="M-41 0l289 376l-157 331h65l132 -285l211 285h65l-253 -331l181 -376h-65l-155 325l-244 -325h-69zM200 765l5 48h271l-5 -48h-271z" />
    <glyph glyph-name="eth.smcp" horiz-adv-x="637" 
d="M87 0l27 249h-68l5 48h68l27 249h158q122 0 196 -60.5t74 -181.5q0 -149 -83.5 -226.5t-236.5 -77.5h-167zM149 49h115q122 0 187 64t65 189q0 99 -58 146.5t-161 47.5h-100l-21 -199h155l-5 -48h-155z" />
    <glyph glyph-name="lslash.smcp" horiz-adv-x="450" 
d="M413 53l-6 -53h-317l26 252l-82 -45l5 51l83 45l25 243h58l-22 -209l138 78l-5 -53l-138 -77l-24 -232h259z" />
    <glyph glyph-name="scaron.smcp" horiz-adv-x="470" 
d="M192 -8q-38 0 -92.5 11.5t-79.5 27.5l24 50q30 -15 75 -26t76 -11q62 0 105.5 25t43.5 80q0 12 -5.5 22.5t-17 20.5t-20.5 16t-25 15.5t-20 12.5q-12 8 -43 25.5t-49 30t-40 31.5t-32.5 42.5t-10.5 50.5q0 63 58.5 98.5t133.5 35.5q40 0 88 -9.5t69 -21.5l-19 -48
q-60 28 -141 28q-54 0 -93 -20t-39 -65q0 -12 5.5 -22.5t17 -21t19.5 -17t24.5 -17t20.5 -12.5q13 -9 42 -26t48 -30t40.5 -31.5t32.5 -41t11 -47.5q0 -76 -60.5 -116t-146.5 -40zM269 626l-155 111l26 39l135 -93l156 93l22 -39z" />
    <glyph glyph-name="yacute.smcp" horiz-adv-x="430" 
d="M136 0l23 210l-149 336h62l122 -284l194 284h62l-234 -337l-23 -209h-57zM204 622l-27 37l174 137l34 -46z" />
    <glyph glyph-name="thorn.smcp" horiz-adv-x="531" 
d="M90 0l57 546h57l-8 -84h138q82 0 123 -43t33 -124q-8 -78 -67 -126.5t-165 -48.5h-13l5 51h18q148 0 161 120q7 64 -22 93t-96 29h-121l-43 -413h-57z" />
    <glyph glyph-name="zcaron.smcp" horiz-adv-x="475" 
d="M20 0l5 53l357 439h-289l5 54h357l-4 -48l-359 -445h327l-6 -53h-393zM277 626l-155 111l26 39l135 -93l156 93l22 -39z" />
    <glyph glyph-name="exclam.smcp" horiz-adv-x="271" 
d="M87 159l10 126l34 322h55l-34 -322l-15 -126h-50zM60 0l8 71h69l-8 -71h-69z" />
    <glyph glyph-name="numbersign.pnum_lnum" horiz-adv-x="567" 
d="M87 0l26 164h-88l6 52h91l44 279h-106l5 51h108l26 161h53l-25 -161h182l26 161h53l-26 -161h90l-5 -51h-92l-44 -279h107l-6 -52h-110l-26 -164h-53l26 164h-183l-26 -164h-53zM176 216h181l44 279h-182z" />
    <glyph glyph-name="dollar.pnum_lnum" horiz-adv-x="466" 
d="M166 -98l11 87q-46 1 -100.5 15.5t-82.5 32.5l25 53q94 -46 167 -46q174 0 174 146q0 37 -30 69.5t-72 59t-84.5 56t-72.5 72.5t-30 95q0 73 51 116.5t130 51.5l8 89h60l-11 -88q93 -5 146 -36l-17 -47q-65 31 -153 31q-155 0 -155 -119q0 -39 29.5 -73t72 -61.5
t84.5 -56.5t71.5 -70.5t29.5 -90.5q0 -85 -50 -134.5t-134 -60.5l-7 -91h-60z" />
    <glyph glyph-name="zero.pnum_lnum" horiz-adv-x="605" 
d="M259 -9q-205 0 -205 264q0 62 8 121t29 121.5t53.5 109t86 76.5t121.5 30q200 0 200 -256q0 -62 -7 -121.5t-27.5 -123.5t-52 -111.5t-84.5 -78.5t-122 -31zM269 41q46 0 83 19.5t60.5 54t40 74.5t24.5 88t11.5 87.5t3.5 80.5q0 219 -151 219q-54 0 -96 -28t-66 -70
t-39.5 -98t-20.5 -104.5t-5 -97.5q0 -225 155 -225z" />
    <glyph glyph-name="one.pnum_lnum" horiz-adv-x="300" 
d="M108 0l69 658h-141l5 43l196 6l-74 -707h-55z" />
    <glyph glyph-name="two.pnum_lnum" horiz-adv-x="476" 
d="M-28 0l6 52q10 8 47 40l55.5 48t56 49.5t58.5 56t52 56t49 60.5t36 58t26.5 60.5t8.5 56.5q0 126 -124 126q-89 0 -155 -47l-23 43q81 58 189 58q83 0 127 -45.5t44 -129.5q0 -51 -24 -106.5t-55.5 -99t-85.5 -97.5t-89 -84.5t-91 -77.5q-21 -17 -30 -25h374l-6 -52h-446
z" />
    <glyph glyph-name="three.pnum_lnum" horiz-adv-x="486" 
d="M172 -11q-115 0 -176 33l23 50q77 -28 149 -28q186 0 186 147q0 68 -54.5 107.5t-126.5 44.5l5 47q68 6 126.5 58.5t58.5 118.5q0 97 -123 97q-58 0 -120 -23l-15 44q26 14 70 22.5t79 8.5q75 0 118.5 -38.5t43.5 -112.5q0 -61 -49.5 -121t-112.5 -70q64 -16 109.5 -64
t45.5 -111q0 -107 -64.5 -158.5t-172.5 -51.5z" />
    <glyph glyph-name="four.pnum_lnum" horiz-adv-x="543" 
d="M301 0l21 201h-315l6 55l325 451h94l-47 -454h129l-6 -52h-129l-21 -201h-57zM72 253h256l43 419z" />
    <glyph glyph-name="five.pnum_lnum" horiz-adv-x="528" 
d="M207 -11q-86 0 -162 30l19 51q88 -30 147 -30q85 0 135.5 48.5t50.5 127.5q0 153 -289 184l32 307h320l-5 -49h-270l-21 -213q125 -19 206 -73t81 -149q0 -98 -67.5 -166t-176.5 -68z" />
    <glyph glyph-name="six.pnum_lnum" horiz-adv-x="555" 
d="M255 -11q-100 0 -151 59.5t-51 170.5q0 57 7 112.5t21.5 112.5t40.5 105t61 86t86 59.5t113 21.5q50 0 85 -16l-16 -50q-34 14 -86 14q-58 0 -103.5 -28t-73.5 -72.5t-45.5 -105.5t-24.5 -120t-7 -123q0 -83 39.5 -130t111.5 -47q75 0 113 58.5t38 140.5q0 142 -143 142
q-24 0 -56 -5l-5 46q36 10 72 10q83 0 137 -49t54 -140q0 -107 -57 -179.5t-160 -72.5z" />
    <glyph glyph-name="seven.pnum_lnum" horiz-adv-x="419" 
d="M70 -7l-48 22l369 640h-359l6 52h415l-6 -57z" />
    <glyph glyph-name="eight.pnum_lnum" horiz-adv-x="561" 
d="M248 -10q-79 0 -131 41t-52 105q0 143 183 237q-31 24 -44.5 35.5t-34 34t-28.5 46.5t-8 54q0 79 57 125t145 46q64 0 109.5 -36.5t45.5 -95.5q0 -124 -159 -211q64 -42 102.5 -87.5t38.5 -104.5q0 -87 -68.5 -138t-155.5 -51zM261 37q66 0 109.5 38.5t43.5 103.5
q0 26 -12 51t-36 47.5t-41 35.5t-45 32q-46 -28 -75 -49.5t-56 -62t-27 -86.5q0 -51 38.5 -80.5t100.5 -29.5zM296 397q138 77 138 181q0 43 -33 66.5t-82 23.5q-56 0 -94 -33t-38 -86q0 -23 9 -45t29.5 -43.5t32.5 -32t38 -31.5z" />
    <glyph glyph-name="nine.pnum_lnum" horiz-adv-x="555" 
d="M177 -13q-50 0 -85 16l16 50q34 -14 86 -14q58 0 103.5 28t73.5 73t45.5 105.5t24.5 120t7 123.5q0 82 -39.5 129t-111.5 47q-76 0 -114 -58.5t-38 -140.5q0 -142 144 -142q24 0 56 5l5 -46q-36 -10 -72 -10q-83 0 -137 49t-54 140q0 107 57 179.5t160 72.5
q101 0 151.5 -59.5t50.5 -170.5q0 -57 -7 -112.5t-21.5 -112.5t-40.5 -105t-61 -86t-86 -59.5t-113 -21.5z" />
    <glyph glyph-name="aacute.smcp" horiz-adv-x="472" 
d="M-39 0l288 546h82l124 -546h-59l-45 201h-224l-105 -201h-61zM153 251h187l-55 252zM238 622l-27 37l174 137l34 -46z" />
    <glyph glyph-name="agrave.smcp" horiz-adv-x="472" 
d="M-39 0l288 546h82l124 -546h-59l-45 201h-224l-105 -201h-61zM153 251h187l-55 252zM328 619l-168 122l34 45l162 -129z" />
    <glyph glyph-name="acircumflex.smcp" horiz-adv-x="472" 
d="M-39 0l288 546h82l124 -546h-59l-45 201h-224l-105 -201h-61zM153 251h187l-55 252zM160 626l-23 39l185 111l154 -111l-25 -39l-136 90z" />
    <glyph glyph-name="adieresis.smcp" horiz-adv-x="472" 
d="M-39 0l288 546h82l124 -546h-59l-45 201h-224l-105 -201h-61zM153 251h187l-55 252zM209 668l-43 47l53 48l43 -48zM396 668l-42 47l52 48l43 -48z" />
    <glyph glyph-name="atilde.smcp" horiz-adv-x="472" 
d="M-39 0l288 546h82l124 -546h-59l-45 201h-224l-105 -201h-61zM153 251h187l-55 252zM363 649q-19 0 -62 18t-61 18q-36 0 -71 -24l-20 35q1 1 6 5t9.5 7.5t13 8.5t17.5 8.5t22.5 6t27.5 2.5q24 0 63.5 -18t59.5 -18q38 0 70 28l20 -36q-41 -41 -95 -41z" />
    <glyph glyph-name="aring.smcp" horiz-adv-x="472" 
d="M-39 0l288 546h82l124 -546h-59l-45 201h-224l-105 -201h-61zM153 251h187l-55 252zM298 613q-43 0 -73 23.5t-30 62.5q0 51 35.5 83.5t86.5 32.5q41 0 71 -25t30 -63q0 -51 -34 -82.5t-86 -31.5zM300 648q32 0 53 20t21 52q0 26 -17.5 42.5t-43.5 16.5q-32 0 -53 -20
t-21 -52q0 -27 17 -43t44 -16z" />
    <glyph glyph-name="ccedilla.smcp" horiz-adv-x="530" 
d="M315 -8q-114 0 -184.5 68.5t-70.5 180.5q0 137 85.5 223t225.5 86q88 0 139 -23l-21 -46q-53 19 -120 19q-116 0 -183 -71t-67 -187q0 -94 58.5 -145.5t156.5 -51.5q76 0 130 18l12 -50q-68 -21 -161 -21zM241 -229l-15 31q56 33 62 79q2 25 -18 68h62q16 -30 13 -63
q-6 -75 -104 -115z" />
    <glyph glyph-name="eacute.smcp" horiz-adv-x="531" 
d="M90 0l59 546h322l-5 -49h-265l-22 -198h249l-5 -50h-249l-22 -200h284l-5 -49h-341zM283 622l-27 37l174 137l34 -46z" />
    <glyph glyph-name="egrave.smcp" horiz-adv-x="531" 
d="M90 0l59 546h322l-5 -49h-265l-22 -198h249l-5 -50h-249l-22 -200h284l-5 -49h-341zM370 619l-168 122l34 45l162 -129z" />
    <glyph glyph-name="ecircumflex.smcp" horiz-adv-x="531" 
d="M90 0l59 546h322l-5 -49h-265l-22 -198h249l-5 -50h-249l-22 -200h284l-5 -49h-341zM177 626l-23 39l185 111l154 -111l-25 -39l-136 90z" />
    <glyph glyph-name="edieresis.smcp" horiz-adv-x="531" 
d="M90 0l59 546h322l-5 -49h-265l-22 -198h249l-5 -50h-249l-22 -200h284l-5 -49h-341zM225 668l-43 47l53 48l43 -48zM412 668l-42 47l52 48l43 -48z" />
    <glyph glyph-name="iacute.smcp" horiz-adv-x="296" 
d="M90 0l59 546h57l-59 -546h-57zM154 622l-27 37l174 137l34 -46z" />
    <glyph glyph-name="igrave.smcp" horiz-adv-x="296" 
d="M90 0l59 546h57l-59 -546h-57zM214 619l-168 122l34 45l162 -129z" />
    <glyph glyph-name="icircumflex.smcp" horiz-adv-x="296" 
d="M90 0l59 546h57l-59 -546h-57zM45 626l-23 39l185 111l154 -111l-25 -39l-136 90z" />
    <glyph glyph-name="idieresis.smcp" horiz-adv-x="296" 
d="M90 0l59 546h57l-59 -546h-57zM98 668l-43 47l53 48l43 -48zM285 668l-42 47l52 48l43 -48z" />
    <glyph glyph-name="ntilde.smcp" horiz-adv-x="657" 
d="M90 0l60 546h85l223 -501l52 501h57l-61 -546h-89l-217 488l-53 -488h-57zM437 649q-19 0 -62 18t-61 18q-36 0 -71 -24l-20 35q1 1 6 5t9.5 7.5t13 8.5t17.5 8.5t22.5 6t27.5 2.5q24 0 63.5 -18t59.5 -18q38 0 70 28l20 -36q-41 -41 -95 -41z" />
    <glyph glyph-name="oacute.smcp" horiz-adv-x="673" 
d="M300 -8q-112 0 -176 68t-64 180q0 137 85 225.5t225 88.5q112 0 177.5 -68.5t65.5 -179.5q0 -137 -86 -225.5t-227 -88.5zM307 41q113 0 179.5 76t66.5 190q0 88 -50.5 142t-139.5 54q-111 0 -178 -75t-67 -187q0 -89 50 -144.5t139 -55.5zM316 622l-27 37l174 137
l34 -46z" />
    <glyph glyph-name="ograve.smcp" horiz-adv-x="673" 
d="M300 -8q-112 0 -176 68t-64 180q0 137 85 225.5t225 88.5q112 0 177.5 -68.5t65.5 -179.5q0 -137 -86 -225.5t-227 -88.5zM307 41q113 0 179.5 76t66.5 190q0 88 -50.5 142t-139.5 54q-111 0 -178 -75t-67 -187q0 -89 50 -144.5t139 -55.5zM400 619l-168 122l34 45
l162 -129z" />
    <glyph glyph-name="ocircumflex.smcp" horiz-adv-x="673" 
d="M300 -8q-112 0 -176 68t-64 180q0 137 85 225.5t225 88.5q112 0 177.5 -68.5t65.5 -179.5q0 -137 -86 -225.5t-227 -88.5zM307 41q113 0 179.5 76t66.5 190q0 88 -50.5 142t-139.5 54q-111 0 -178 -75t-67 -187q0 -89 50 -144.5t139 -55.5zM226 626l-23 39l185 111
l154 -111l-25 -39l-136 90z" />
    <glyph glyph-name="odieresis.smcp" horiz-adv-x="673" 
d="M300 -8q-112 0 -176 68t-64 180q0 137 85 225.5t225 88.5q112 0 177.5 -68.5t65.5 -179.5q0 -137 -86 -225.5t-227 -88.5zM307 41q113 0 179.5 76t66.5 190q0 88 -50.5 142t-139.5 54q-111 0 -178 -75t-67 -187q0 -89 50 -144.5t139 -55.5zM278 668l-43 47l53 48l43 -48z
M465 668l-42 47l52 48l43 -48z" />
    <glyph glyph-name="otilde.smcp" horiz-adv-x="673" 
d="M300 -8q-112 0 -176 68t-64 180q0 137 85 225.5t225 88.5q112 0 177.5 -68.5t65.5 -179.5q0 -137 -86 -225.5t-227 -88.5zM307 41q113 0 179.5 76t66.5 190q0 88 -50.5 142t-139.5 54q-111 0 -178 -75t-67 -187q0 -89 50 -144.5t139 -55.5zM432 649q-19 0 -62 18t-61 18
q-37 0 -71 -24l-20 35q1 1 6 5t9.5 7.5t13 8.5t17.5 8.5t22.5 6t27.5 2.5q24 0 63.5 -18t59.5 -18q38 0 70 28l20 -36q-41 -41 -95 -41z" />
    <glyph glyph-name="uacute.smcp" horiz-adv-x="661" 
d="M305 -9q-39 0 -72.5 7.5t-65 24.5t-49.5 50.5t-18 79.5q0 9 2 29l39 364h58l-39 -360q-16 -145 143 -145t178 165l36 340h54l-37 -343q-6 -61 -29.5 -104.5t-57.5 -66t-69 -32t-73 -9.5zM329 622l-27 37l174 137l34 -46z" />
    <glyph glyph-name="ugrave.smcp" horiz-adv-x="661" 
d="M305 -9q-39 0 -72.5 7.5t-65 24.5t-49.5 50.5t-18 79.5q0 9 2 29l39 364h58l-39 -360q-16 -145 143 -145t178 165l36 340h54l-37 -343q-6 -61 -29.5 -104.5t-57.5 -66t-69 -32t-73 -9.5zM399 619l-168 122l34 45l162 -129z" />
    <glyph glyph-name="ucircumflex.smcp" horiz-adv-x="661" 
d="M305 -9q-39 0 -72.5 7.5t-65 24.5t-49.5 50.5t-18 79.5q0 9 2 29l39 364h58l-39 -360q-16 -145 143 -145t178 165l36 340h54l-37 -343q-6 -61 -29.5 -104.5t-57.5 -66t-69 -32t-73 -9.5zM231 626l-23 39l185 111l154 -111l-25 -39l-136 90z" />
    <glyph glyph-name="udieresis.smcp" horiz-adv-x="661" 
d="M305 -9q-39 0 -72.5 7.5t-65 24.5t-49.5 50.5t-18 79.5q0 9 2 29l39 364h58l-39 -360q-16 -145 143 -145t178 165l36 340h54l-37 -343q-6 -61 -29.5 -104.5t-57.5 -66t-69 -32t-73 -9.5zM277 668l-43 47l53 48l43 -48zM464 668l-42 47l52 48l43 -48z" />
    <glyph glyph-name="cent.pnum_lnum" horiz-adv-x="469" 
d="M228 0l12 91q-2 0 -15 -1.5t-19 -1.5q-36 0 -61.5 19t-38 51t-17.5 62.5t-5 63.5q0 144 57.5 247.5t158.5 125.5l7 97h60l-12 -93q69 -8 108 -52l-31 -34q-34 36 -95 36q-53 0 -92.5 -31.5t-60 -82t-30 -101t-9.5 -100.5q0 -72 18 -113.5t42 -41.5q77 0 189 61l22 -42
q-52 -36 -120 -58l-8 -102h-60z" />
    <glyph glyph-name="sterling.pnum_lnum" horiz-adv-x="453" 
d="M4 0l6 53q41 13 70.5 87t35.5 119h-99l6 47h104q2 11 23 206q4 37 15.5 67.5t25 50t36 34.5t38.5 22.5t43 12.5t39 6.5t37 2.5t27 1l-3 -53q-3 0 -24 -1.5t-27 -2t-25 -3t-26 -5.5t-22.5 -9t-22.5 -13t-18.5 -18t-17 -24.5t-11 -31.5t-7.5 -40q-2 -18 -6 -66t-7.5 -79
t-8.5 -57h187l-6 -47h-190q-30 -147 -92 -206h335l-6 -53h-409z" />
    <glyph glyph-name="germandbls.smcp" horiz-adv-x="959" 
d="M192 -8q-38 0 -92.5 11.5t-79.5 27.5l24 50q30 -15 75 -26t76 -11q62 0 105.5 25t43.5 80q0 12 -5.5 22.5t-17 20.5t-20.5 16t-25 15.5t-20 12.5q-12 8 -43 25.5t-49 30t-40 31.5t-32.5 42.5t-10.5 50.5q0 63 58.5 98.5t133.5 35.5q40 0 88 -9.5t69 -21.5l-19 -48
q-60 28 -141 28q-54 0 -93 -20t-39 -65q0 -12 5.5 -22.5t17 -21t19.5 -17t24.5 -17t20.5 -12.5q13 -9 42 -26t48 -30t40.5 -31.5t32.5 -41t11 -47.5q0 -76 -60.5 -116t-146.5 -40zM681 -8q-38 0 -92.5 11.5t-79.5 27.5l24 50q30 -15 74.5 -26t76.5 -11q62 0 105.5 25
t43.5 80q0 12 -5.5 22.5t-17 20.5t-20.5 16t-25 15.5t-20 12.5q-12 8 -43 25.5t-49 30t-40 31.5t-32.5 42.5t-10.5 50.5q0 63 58.5 98.5t133.5 35.5q40 0 88 -9.5t69 -21.5l-19 -48q-60 28 -141 28q-54 0 -93 -20t-39 -65q0 -12 5.5 -22.5t17 -21t19.5 -17t24.5 -17
t20.5 -12.5q13 -9 42 -26t48 -30t40.5 -31.5t32.5 -41t11 -47.5q0 -76 -60.5 -116t-146.5 -40z" />
    <glyph glyph-name="copyright.pnum_lnum" horiz-adv-x="827" 
d="M419 155q-93 0 -142.5 47t-49.5 125q0 111 61 179t174 68q70 0 114 -27l-22 -39q-47 22 -96 22q-79 0 -129.5 -52t-50.5 -144q0 -66 45 -100t113 -34q37 0 95 17l11 -38q-61 -24 -123 -24zM366 -12q-142 0 -224.5 86t-82.5 228q0 185 112 302.5t291 117.5
q144 0 225 -87.5t81 -226.5q0 -182 -110.5 -301t-291.5 -119zM374 38q160 0 249.5 104t89.5 258q0 122 -67 197t-193 75q-156 0 -247 -103.5t-91 -256.5q0 -119 66 -196.5t193 -77.5z" />
    <glyph glyph-name="yen.pnum_lnum" horiz-adv-x="531" 
d="M569 707l-257 -392h195l-5 -52h-216l-11 -99h216l-5 -52h-216l-12 -112h-59l12 112h-205l5 52h205l11 99h-205l5 52h186l-163 392h65l151 -374l242 374h61z" />
    <glyph glyph-name="ordfeminine.smcp" horiz-adv-x="422" 
d="M85 396l153 314h76l73 -314h-56l-23 104h-120l-49 -104h-54zM59 299l6 50h331l-7 -50h-330zM207 540h92l-29 135z" />
    <glyph glyph-name="ae.smcp" horiz-adv-x="784" 
d="M-16 0l344 546h396l-5 -49h-266l-20 -197h249l-6 -51h-249l-21 -199h284l-5 -50h-341l26 248h-167l-154 -248h-65zM235 300h140l21 197h-39z" />
    <glyph glyph-name="oslash.smcp" horiz-adv-x="673" 
d="M62 -25l-35 34l77 75q-44 62 -44 156q0 137 85 225.5t225 88.5q99 0 163 -55l73 71l33 -34l-73 -71q47 -66 47 -159q0 -137 -86 -225.5t-227 -88.5q-101 0 -163 56zM307 41q113 0 179.5 76t66.5 190q0 68 -30 116l-346 -336q51 -46 130 -46zM147 125l345 335
q-51 43 -129 43q-111 0 -178 -75t-67 -187q0 -67 29 -116z" />
    <glyph glyph-name="questiondown.smcp" horiz-adv-x="383" 
d="M290 546l-7 -71h-69l7 71h69zM271 342q0 -42 -24.5 -80.5t-53.5 -62.5t-53.5 -55t-24.5 -60q0 -25 13 -44t38 -30.5t43.5 -17t47.5 -11.5l-20 -54q-72 9 -128 49t-56 106q0 34 16.5 63t39.5 50t46.5 42t40 49t16.5 61q0 13 -1 20l56 14q4 -26 4 -39z" />
    <glyph glyph-name="exclamdown.smcp" horiz-adv-x="271" 
d="M64 -61l34 322l15 126h50l-10 -126l-34 -322h-55zM114 475l7 71h69l-7 -71h-69z" />
    <glyph glyph-name="florin.pnum_lnum" horiz-adv-x="478" 
d="M-50 -227l-1 49q9 1 25 2q29 2 43 4t36.5 7t34.5 14t26 24t22.5 38.5t13.5 55.5l46 294h-104l6 53h106l32 200q10 63 34.5 104.5t62 60.5t73 25t85.5 6l-2 -53q-7 -1 -28 -2.5t-28 -2.5l-24.5 -3.5t-24.5 -5.5t-21 -8.5t-20 -12.5t-16 -18t-15.5 -24t-11 -31t-8.5 -39
l-31 -196h110l-6 -53h-113l-48 -298q-8 -52 -29 -89.5t-44.5 -56.5t-58.5 -29.5t-60 -12.5t-62 -2z" />
    <glyph glyph-name="oe.smcp" horiz-adv-x="910" 
d="M300 -8q-112 0 -176 68t-64 180q0 137 85 225.5t225 88.5q88 0 153 -53l5 45h322l-5 -49h-265l-21 -198h248l-5 -50h-248l-22 -200h284l-5 -49h-342l4 37q-74 -45 -173 -45zM307 41q109 0 173 62l36 330q-51 70 -153 70q-111 0 -178 -75t-67 -187q0 -89 50 -144.5
t139 -55.5z" />
    <glyph glyph-name="quotedblleft.smcp" horiz-adv-x="280" 
d="M35 572q1 20 3 38t7 35.5t8 29t11 27.5t10.5 22t12 22.5t10.5 18.5h47q-37 -91 -44 -193h-65zM176 572q1 20 3.5 38.5t7 35.5t8 28.5t11 27.5t10.5 22t12.5 22t10.5 19h47q-40 -97 -44 -193h-66z" />
    <glyph glyph-name="quotedblright.smcp" horiz-adv-x="280" 
d="M35 572q40 97 44 193h66q-1 -20 -3.5 -38.5t-7 -35.5t-8 -28.5t-11 -27.5t-10.5 -22t-12.5 -22t-10.5 -19h-47zM177 572q37 91 44 193h65q-1 -20 -3 -38t-7 -35.5t-8 -29t-11 -27.5t-10.5 -22t-12 -22.5t-10.5 -18.5h-47z" />
    <glyph glyph-name="quoteleft.smcp" horiz-adv-x="150" 
d="M42 572q1 20 3 38t7 35.5t8 29t11 27.5t10.5 22t12 22.5t10.5 18.5h47q-37 -91 -44 -193h-65z" />
    <glyph glyph-name="quoteright.smcp" horiz-adv-x="150" 
d="M42 572q37 91 44 193h65q-1 -20 -3 -38t-7 -35.5t-8 -29t-11 -27.5t-10.5 -22t-12 -22.5t-10.5 -18.5h-47z" />
    <glyph glyph-name="ydieresis.smcp" horiz-adv-x="430" 
d="M136 0l23 210l-149 336h62l122 -284l194 284h62l-234 -337l-23 -209h-57zM145 668l-43 47l53 48l43 -48zM332 668l-42 47l52 48l43 -48z" />
    <glyph glyph-name="Euro.pnum_lnum" horiz-adv-x="575" 
d="M323 -10q-51 0 -91.5 15t-66.5 38.5t-44 57t-26.5 65.5t-12.5 68h-94l6 53h84q0 68 13 132h-84l5 54h93q34 106 106 173.5t188 67.5q92 0 144 -29l-22 -46q-50 22 -129 22q-88 0 -146.5 -52.5t-87.5 -135.5h255l-5 -54h-265q-10 -46 -10 -99q0 -22 1 -33h260l-5 -53h-250
q26 -190 196 -190q36 0 81.5 8.5t59.5 14.5l15 -50q-66 -27 -168 -27z" />
    <glyph glyph-name="amacron.smcp" horiz-adv-x="472" 
d="M-39 0l288 546h82l124 -546h-59l-45 201h-224l-105 -201h-61zM153 251h187l-55 252zM169 675l5 48h271l-5 -48h-271z" />
    <glyph glyph-name="uni006E_uni00AF.smcp" horiz-adv-x="657" 
d="M90 0l60 546h85l223 -501l52 501h57l-61 -546h-89l-217 488l-53 -488h-57zM242 675l5 48h271l-5 -48h-271z" />
    <glyph glyph-name="uni0070_uni00AF.smcp" horiz-adv-x="531" 
d="M90 -1l59 547h194q72 0 115 -36.5t43 -108.5q0 -195 -234 -195q-5 0 -16 0.5t-16 0.5l6 50q11 -1 34 -1q36 0 62.5 5.5t51.5 19.5t38 44t13 74q0 99 -118 99h-121l-53 -499h-58zM192 675l5 48h271l-5 -48h-271z" />
    <glyph glyph-name="uni0078_uni00AF.smcp" horiz-adv-x="499" 
d="M-20 0l239 291l-133 255h63l108 -213l170 213h62l-207 -256l150 -290h-62l-126 249l-198 -249h-66zM159 675l5 48h271l-5 -48h-271z" />
    <glyph glyph-name="aemacron.smcp" horiz-adv-x="784" 
d="M-16 0l344 546h396l-5 -49h-266l-20 -197h249l-6 -51h-249l-21 -199h284l-5 -50h-341l26 248h-167l-154 -248h-65zM235 300h140l21 197h-39zM399 675l5 48h271l-5 -48h-271z" />
    <glyph glyph-name="aogonek.smcp" horiz-adv-x="472" 
d="M379 -218q-107 0 -97 100q6 64 112 128l-43 191h-224l-105 -201h-61l288 546h82l123 -546q-112 -68 -116 -115q-4 -31 12.5 -42.5t51.5 -11.5q27 0 39 8l11 -44q-22 -13 -73 -13zM153 251h187l-55 252z" />
    <glyph glyph-name="ccaron.smcp" horiz-adv-x="530" 
d="M315 -8q-114 0 -184.5 68.5t-70.5 180.5q0 137 85.5 223t225.5 86q88 0 139 -23l-21 -46q-53 19 -120 19q-116 0 -183 -71t-67 -187q0 -94 58.5 -145.5t156.5 -51.5q76 0 130 18l12 -50q-68 -21 -161 -21zM364 626l-155 111l26 39l135 -93l156 93l22 -39z" />
    <glyph glyph-name="cacute.smcp" horiz-adv-x="530" 
d="M315 -8q-114 0 -184.5 68.5t-70.5 180.5q0 137 85.5 223t225.5 86q88 0 139 -23l-21 -46q-53 19 -120 19q-116 0 -183 -71t-67 -187q0 -94 58.5 -145.5t156.5 -51.5q76 0 130 18l12 -50q-68 -21 -161 -21zM317 622l-27 37l174 137l34 -46z" />
    <glyph glyph-name="zacute.smcp" horiz-adv-x="475" 
d="M20 0l5 53l357 439h-289l5 54h357l-4 -48l-359 -445h327l-6 -53h-393zM249 622l-27 37l174 137l34 -46z" />
    <glyph glyph-name="dcaron.smcp" horiz-adv-x="637" 
d="M90 0l59 546h158q122 0 196 -60.5t74 -181.5q0 -149 -83.5 -226.5t-236.5 -77.5h-167zM152 49h115q122 0 187 64t65 189q0 99 -57.5 146.5t-160.5 47.5h-100zM319 626l-155 111l26 39l135 -93l156 93l22 -39z" />
    <glyph glyph-name="emacron.smcp" horiz-adv-x="531" 
d="M90 0l59 546h322l-5 -49h-265l-22 -198h249l-5 -50h-249l-22 -200h284l-5 -49h-341zM180 675l5 48h271l-5 -48h-271z" />
    <glyph glyph-name="edotaccent.smcp" horiz-adv-x="531" 
d="M90 0l59 546h322l-5 -49h-265l-22 -198h249l-5 -50h-249l-22 -200h284l-5 -49h-341zM325 663l-49 53l61 52l51 -52z" />
    <glyph glyph-name="ecaron.smcp" horiz-adv-x="531" 
d="M90 0l59 546h322l-5 -49h-265l-22 -198h249l-5 -50h-249l-22 -200h284l-5 -49h-341zM317 626l-155 111l26 39l135 -93l156 93l22 -39z" />
    <glyph glyph-name="eogonek.smcp" horiz-adv-x="531" 
d="M356 -217q-107 0 -97 100q6 58 95 117h-264l59 546h322l-5 -49h-265l-22 -198h249l-5 -50h-249l-22 -200h284l-6 -49q-40 -22 -76 -54t-39 -60q-4 -31 12.5 -42.5t51.5 -11.5q27 0 39 8l11 -44q-22 -13 -73 -13z" />
    <glyph glyph-name="gcommaaccent.smcp" horiz-adv-x="578" 
d="M316 -8q-114 0 -185 69t-71 181q0 136 85 222t225 86q89 0 138 -21l-22 -47q-52 18 -119 18q-115 0 -181.5 -71t-66.5 -187q0 -95 59 -146t157 -51q51 0 85 9l19 181h57l-23 -217q-72 -26 -157 -26zM254 -259l46 201h54l-54 -201h-46z" />
    <glyph glyph-name="iogonek.smcp" horiz-adv-x="296" 
d="M92 -217q-107 0 -97 100q7 69 95 124l59 539h57l-59 -546q-31 -18 -62 -51.5t-34 -62.5q-4 -31 12.5 -42.5t51.5 -11.5q27 0 39 8l11 -44q-22 -13 -73 -13z" />
    <glyph glyph-name="imacron.smcp" horiz-adv-x="296" 
d="M90 0l59 546h57l-59 -546h-57zM68 675l5 48h271l-5 -48h-271z" />
    <glyph glyph-name="dcroat.smcp" horiz-adv-x="637" 
d="M87 0l27 249h-68l5 48h68l27 249h158q122 0 196 -60.5t74 -181.5q0 -149 -83.5 -226.5t-236.5 -77.5h-167zM149 49h115q122 0 187 64t65 189q0 99 -58 146.5t-161 47.5h-100l-21 -199h155l-5 -48h-155z" />
    <glyph glyph-name="lcommaaccent.smcp" horiz-adv-x="450" 
d="M90 0l59 546h57l-53 -494h257l-6 -52h-314zM180 -259l46 201h54l-54 -201h-46z" />
    <glyph glyph-name="lcaron.smcp" horiz-adv-x="450" 
d="M90 0l59 546h57l-53 -494h257l-6 -52h-314zM260 424l46 201h54l-54 -201h-46z" />
    <glyph glyph-name="lacute.smcp" horiz-adv-x="450" 
d="M90 0l59 546h57l-53 -494h257l-6 -52h-314zM166 622l-27 37l174 137l34 -46z" />
    <glyph glyph-name="ncommaaccent.smcp" horiz-adv-x="657" 
d="M90 0l60 546h85l223 -501l52 501h57l-61 -546h-89l-217 488l-53 -488h-57zM243 -259l46 201h54l-54 -201h-46z" />
    <glyph glyph-name="nacute.smcp" horiz-adv-x="657" 
d="M90 0l60 546h85l223 -501l52 501h57l-61 -546h-89l-217 488l-53 -488h-57zM333 622l-27 37l174 137l34 -46z" />
    <glyph glyph-name="ncaron.smcp" horiz-adv-x="657" 
d="M90 0l60 546h85l223 -501l52 501h57l-61 -546h-89l-217 488l-53 -488h-57zM363 626l-155 111l26 39l135 -93l156 93l22 -39z" />
    <glyph glyph-name="ohungarumlaut.smcp" horiz-adv-x="673" 
d="M300 -8q-112 0 -176 68t-64 180q0 137 85 225.5t225 88.5q112 0 177.5 -68.5t65.5 -179.5q0 -137 -86 -225.5t-227 -88.5zM307 41q113 0 179.5 76t66.5 190q0 88 -50.5 142t-139.5 54q-111 0 -178 -75t-67 -187q0 -89 50 -144.5t139 -55.5zM221 619l-20 39l195 131
l28 -51zM448 624l-25 36l194 136l32 -47z" />
    <glyph glyph-name="omacron.smcp" horiz-adv-x="673" 
d="M300 -8q-112 0 -176 68t-64 180q0 137 85 225.5t225 88.5q112 0 177.5 -68.5t65.5 -179.5q0 -137 -86 -225.5t-227 -88.5zM307 41q113 0 179.5 76t66.5 190q0 88 -50.5 142t-139.5 54q-111 0 -178 -75t-67 -187q0 -89 50 -144.5t139 -55.5zM241 675l5 48h271l-5 -48h-271
z" />
    <glyph glyph-name="racute.smcp" horiz-adv-x="578" 
d="M465 -15l-156 252q-27 -3 -91 -3h-44l-26 -234h-58l59 546h184q72 0 116 -35t44 -97q0 -58 -32.5 -102.5t-92.5 -61.5l150 -236zM179 285h92q161 0 161 128q0 85 -119 85h-112zM262 622l-27 37l174 137l34 -46z" />
    <glyph glyph-name="rcaron.smcp" horiz-adv-x="578" 
d="M465 -15l-156 252q-27 -3 -91 -3h-44l-26 -234h-58l59 546h184q72 0 116 -35t44 -97q0 -58 -32.5 -102.5t-92.5 -61.5l150 -236zM179 285h92q161 0 161 128q0 85 -119 85h-112zM299 626l-155 111l26 39l135 -93l156 93l22 -39z" />
    <glyph glyph-name="rcommaaccent.smcp" horiz-adv-x="578" 
d="M465 -15l-156 252q-27 -3 -91 -3h-44l-26 -234h-58l59 546h184q72 0 116 -35t44 -97q0 -58 -32.5 -102.5t-92.5 -61.5l150 -236zM179 285h92q161 0 161 128q0 85 -119 85h-112zM225 -259l46 201h54l-54 -201h-46z" />
    <glyph glyph-name="sacute.smcp" horiz-adv-x="470" 
d="M192 -8q-38 0 -92.5 11.5t-79.5 27.5l24 50q30 -15 75 -26t76 -11q62 0 105.5 25t43.5 80q0 12 -5.5 22.5t-17 20.5t-20.5 16t-25 15.5t-20 12.5q-12 8 -43 25.5t-49 30t-40 31.5t-32.5 42.5t-10.5 50.5q0 63 58.5 98.5t133.5 35.5q40 0 88 -9.5t69 -21.5l-19 -48
q-60 28 -141 28q-54 0 -93 -20t-39 -65q0 -12 5.5 -22.5t17 -21t19.5 -17t24.5 -17t20.5 -12.5q13 -9 42 -26t48 -30t40.5 -31.5t32.5 -41t11 -47.5q0 -76 -60.5 -116t-146.5 -40zM231 622l-27 37l174 137l34 -46z" />
    <glyph glyph-name="tcaron.smcp" horiz-adv-x="483" 
d="M187 0l53 495h-200l6 51h457l-6 -51h-200l-53 -495h-57zM275 626l-155 111l26 39l135 -93l156 93l22 -39z" />
    <glyph glyph-name="abreve.smcp" horiz-adv-x="472" 
d="M-39 0l288 546h82l124 -546h-59l-45 201h-224l-105 -201h-61zM153 251h187l-55 252zM308 652q-102 0 -148 78l35 29q5 -8 16 -19.5t40.5 -25.5t64.5 -14q79 0 132 58l27 -26q-3 -6 -8 -12t-19.5 -19.5t-32 -23t-46 -17.5t-61.5 -8z" />
    <glyph glyph-name="umacron.smcp" horiz-adv-x="661" 
d="M305 -9q-39 0 -72.5 7.5t-65 24.5t-49.5 50.5t-18 79.5q0 9 2 29l39 364h58l-39 -360q-16 -145 143 -145t178 165l36 340h54l-37 -343q-6 -61 -29.5 -104.5t-57.5 -66t-69 -32t-73 -9.5zM232 675l5 48h271l-5 -48h-271z" />
    <glyph glyph-name="uring.smcp" horiz-adv-x="661" 
d="M305 -9q-39 0 -72.5 7.5t-65 24.5t-49.5 50.5t-18 79.5q0 9 2 29l39 364h58l-39 -360q-16 -145 143 -145t178 165l36 340h54l-37 -343q-6 -61 -29.5 -104.5t-57.5 -66t-69 -32t-73 -9.5zM376 613q-43 0 -73 23.5t-30 62.5q0 51 35.5 83.5t86.5 32.5q41 0 71 -25t30 -63
q0 -51 -34 -82.5t-86 -31.5zM378 648q32 0 53 20t21 52q0 26 -17.5 42.5t-43.5 16.5q-32 0 -53 -20t-21 -52q0 -27 17 -43t44 -16z" />
    <glyph glyph-name="uhungarumlaut.smcp" horiz-adv-x="661" 
d="M305 -9q-39 0 -72.5 7.5t-65 24.5t-49.5 50.5t-18 79.5q0 9 2 29l39 364h58l-39 -360q-16 -145 143 -145t178 165l36 340h54l-37 -343q-6 -61 -29.5 -104.5t-57.5 -66t-69 -32t-73 -9.5zM226 619l-20 39l195 131l28 -51zM453 624l-25 36l194 136l32 -47z" />
    <glyph glyph-name="uogonek.smcp" horiz-adv-x="661" 
d="M303 -217q-107 0 -97 100q5 53 82 109q-81 4 -134.5 40.5t-53.5 120.5q0 9 2 29l39 364h58l-39 -360q-16 -145 143 -145t178 165l36 340h54l-37 -343q-18 -167 -157 -203q-40 -22 -76 -54t-39 -60q-4 -31 12.5 -42.5t51.5 -11.5q27 0 39 8l11 -44q-22 -13 -73 -13z" />
    <glyph glyph-name="kcommaaccent.smcp" horiz-adv-x="541" 
d="M430 -18l-236 298l2 19l261 247h74l-273 -253l220 -279zM90 0l59 546h57l-59 -546h-57zM200 -259l46 201h54l-54 -201h-46z" />
    <glyph glyph-name="zdotaccent.smcp" horiz-adv-x="475" 
d="M20 0l5 53l357 439h-289l5 54h357l-4 -48l-359 -445h327l-6 -53h-393zM282 663l-49 53l61 52l51 -52z" />
    <glyph glyph-name="scedilla.smcp" horiz-adv-x="470" 
d="M192 -8q-38 0 -92.5 11.5t-79.5 27.5l24 50q30 -15 75 -26t76 -11q62 0 105.5 25t43.5 80q0 12 -5.5 22.5t-17 20.5t-20.5 16t-25 15.5t-20 12.5q-12 8 -43 25.5t-49 30t-40 31.5t-32.5 42.5t-10.5 50.5q0 63 58.5 98.5t133.5 35.5q40 0 88 -9.5t69 -21.5l-19 -48
q-60 28 -141 28q-54 0 -93 -20t-39 -65q0 -12 5.5 -22.5t17 -21t19.5 -17t24.5 -17t20.5 -12.5q13 -9 42 -26t48 -30t40.5 -31.5t32.5 -41t11 -47.5q0 -76 -60.5 -116t-146.5 -40zM126 -229l-15 31q56 33 62 79q2 25 -18 68h62q16 -30 13 -63q-6 -75 -104 -115z" />
    <glyph glyph-name="scommaaccent.smcp" horiz-adv-x="470" 
d="M192 -8q-38 0 -92.5 11.5t-79.5 27.5l24 50q30 -15 75 -26t76 -11q62 0 105.5 25t43.5 80q0 12 -5.5 22.5t-17 20.5t-20.5 16t-25 15.5t-20 12.5q-12 8 -43 25.5t-49 30t-40 31.5t-32.5 42.5t-10.5 50.5q0 63 58.5 98.5t133.5 35.5q40 0 88 -9.5t69 -21.5l-19 -48
q-60 28 -141 28q-54 0 -93 -20t-39 -65q0 -12 5.5 -22.5t17 -21t19.5 -17t24.5 -17t20.5 -12.5q13 -9 42 -26t48 -30t40.5 -31.5t32.5 -41t11 -47.5q0 -76 -60.5 -116t-146.5 -40zM139 -259l46 201h54l-54 -201h-46z" />
    <glyph glyph-name="tcommaaccent.smcp" horiz-adv-x="483" 
d="M187 0l53 495h-200l6 51h457l-6 -51h-200l-53 -495h-57zM153 -259l46 201h54l-54 -201h-46z" />
    <glyph glyph-name="gbreve.smcp" horiz-adv-x="578" 
d="M316 -8q-114 0 -185 69t-71 181q0 136 85 222t225 86q89 0 138 -21l-22 -47q-52 18 -119 18q-115 0 -181.5 -71t-66.5 -187q0 -95 59 -146t157 -51q51 0 85 9l19 181h57l-23 -217q-72 -26 -157 -26zM374 652q-102 0 -148 78l35 29q5 -8 16 -19.5t40.5 -25.5t64.5 -14
q79 0 132 58l27 -26q-3 -6 -8 -12t-19.5 -19.5t-32 -23t-46 -17.5t-61.5 -8z" />
    <glyph glyph-name="ccircumflex.smcp" horiz-adv-x="530" 
d="M315 -8q-114 0 -184.5 68.5t-70.5 180.5q0 137 85.5 223t225.5 86q88 0 139 -23l-21 -46q-53 19 -120 19q-116 0 -183 -71t-67 -187q0 -94 58.5 -145.5t156.5 -51.5q76 0 130 18l12 -50q-68 -21 -161 -21zM223 618l-23 39l185 111l154 -111l-25 -39l-136 90z" />
    <glyph glyph-name="cdotaccent.smcp" horiz-adv-x="530" 
d="M315 -8q-114 0 -184.5 68.5t-70.5 180.5q0 137 85.5 223t225.5 86q88 0 139 -23l-21 -46q-53 19 -120 19q-116 0 -183 -71t-67 -187q0 -94 58.5 -145.5t156.5 -51.5q76 0 130 18l12 -50q-68 -21 -161 -21zM369 663l-49 53l61 52l51 -52z" />
    <glyph glyph-name="ebreve.smcp" horiz-adv-x="531" 
d="M90 0l59 546h322l-5 -49h-265l-22 -198h249l-5 -50h-249l-22 -200h284l-5 -49h-341zM328 652q-102 0 -148 78l35 29q5 -8 16 -19.5t40.5 -25.5t64.5 -14q79 0 132 58l27 -26q-3 -6 -8 -12t-19.5 -19.5t-32 -23t-46 -17.5t-61.5 -8z" />
    <glyph glyph-name="gcircumflex.smcp" horiz-adv-x="578" 
d="M316 -8q-114 0 -185 69t-71 181q0 136 85 222t225 86q89 0 138 -21l-22 -47q-52 18 -119 18q-115 0 -181.5 -71t-66.5 -187q0 -95 59 -146t157 -51q51 0 85 9l19 181h57l-23 -217q-72 -26 -157 -26zM231 626l-23 39l185 111l154 -111l-25 -39l-136 90z" />
    <glyph glyph-name="gdotaccent.smcp" horiz-adv-x="578" 
d="M316 -8q-114 0 -185 69t-71 181q0 136 85 222t225 86q89 0 138 -21l-22 -47q-52 18 -119 18q-115 0 -181.5 -71t-66.5 -187q0 -95 59 -146t157 -51q51 0 85 9l19 181h57l-23 -217q-72 -26 -157 -26zM387 663l-49 53l61 52l51 -52z" />
    <glyph glyph-name="hcircumflex.smcp" horiz-adv-x="669" 
d="M90 0l59 546h57l-27 -248h317l26 249h57l-58 -547h-57l27 249h-317l-27 -249h-57zM229 626l-23 39l185 111l154 -111l-25 -39l-136 90z" />
    <glyph glyph-name="itilde.smcp" horiz-adv-x="296" 
d="M90 0l59 546h57l-59 -546h-57zM267 649q-19 0 -62 18t-61 18q-36 0 -71 -24l-20 35q1 1 6 5t9.5 7.5t13 8.5t17.5 8.5t22.5 6t27.5 2.5q24 0 63.5 -18t59.5 -18q38 0 70 28l20 -36q-41 -41 -95 -41z" />
    <glyph glyph-name="ibreve.smcp" horiz-adv-x="296" 
d="M90 0l59 546h57l-59 -546h-57zM199 652q-103 0 -148 78l35 29q5 -8 16 -19.5t40.5 -25.5t64.5 -14q79 0 132 58l27 -26q-3 -6 -8 -12t-19.5 -19.5t-32 -23t-46 -17.5t-61.5 -8z" />
    <glyph glyph-name="ij.smcp" horiz-adv-x="585" 
d="M90 0l59 546h57l-59 -546h-57zM278 -144l-23 43q72 37 99.5 84.5t37.5 134.5l46 428h57l-46 -427q-10 -99 -48.5 -162t-122.5 -101z" />
    </font>
</defs>
</svg>
