<?xml version="1.0" encoding="utf-8"?>
<!-- Generator: Adobe Illustrator 22.0.1, SVG Export Plug-In . SVG Version: 6.00 Build 0)  -->
<svg version="1.1" id="Ebene_4" xmlns="http://www.w3.org/2000/svg" xmlns:xlink="http://www.w3.org/1999/xlink" x="0px" y="0px"
	 viewBox="0 0 210.6 53" style="enable-background:new 0 0 210.6 53;" xml:space="preserve">
<style type="text/css">
	.st0{fill:#C31622;}
	.st1{fill:#1D1D1B;}
	.st2{fill:none;}
</style>
<title>ZEWO_Logo_def_4c_claim_rechts_D</title>
<path class="st0" d="M31.3,35.7c-0.3-0.1-0.6-0.2-0.9-0.2c-0.9,0-1.7,0.6-2.1,1.4c-0.2,0.3-0.2,0.7-0.2,1.1c0,0.8,0.5,1.6,1.2,2
	c0.3,0.1,0.6,0.2,0.9,0.2c0.9,0,1.7-0.6,2.1-1.4c0.2-0.3,0.2-0.7,0.2-1.1C32.5,36.8,32,36,31.3,35.7z M44.3,5.7
	c-1.5-0.7-3.1-1.2-4.7-1.3v0.1c0.1,0.4,0.2,0.8,0.2,1.2c0,0.9-0.3,1.8-0.8,2.6c-0.5,1.3-1.5,2.3-2.8,2.8c-0.4,0.1-0.8,0.2-1.2,0.2
	c-0.2,0-0.5,0-0.7-0.1c-3.6,5.7-6.8,11.6-9.7,17.6c-0.8,1.7-1.5,3.4-2.2,5c-0.2-0.5-0.8-1.6-0.9-1.8c-1.8-4-1.3-3.2-2.9-7.2
	c-0.2-0.4-3.5-2-4.5-1.1c-0.3,0.3-0.3,0.8-0.1,1.2c3.1,5.4,4.7,9.1,8.1,14.4c0.6,0.7,1.7,0.8,2.4,0.2c0.1-0.1,0.2-0.2,0.3-0.3l1-1.9
	C31.7,27.1,37.3,17.9,44,7.7C44.1,7.5,45,6.3,44.3,5.7L44.3,5.7z"/>
<path class="st1" d="M7.3,10.8l0.4,0.3l0.6,3.5L9.7,13l0.3,0.3l-1.8,2L7.9,15l-0.6-3.5l-1.5,1.6l-0.3-0.3L7.3,10.8z"/>
<path class="st1" d="M4.6,13.9L7.7,16l-1.4,2.1L6,17.8l1.1-1.7l-1-0.6l-1,1.5l-0.4-0.2l1-1.5l-1.1-0.7l-1.1,1.7L3.3,16L4.6,13.9z"/>
<path class="st1" d="M1.7,19.3h1.7l0.4-0.9l-1.4-0.6l0.2-0.4L6,18.8l-0.6,1.3c-0.1,0.3-0.4,0.6-0.7,0.7c-0.3,0.1-0.6,0.1-0.8,0
	c-0.3-0.1-0.5-0.3-0.6-0.6c-0.1-0.2-0.1-0.3-0.1-0.5H1.5L1.7,19.3z M5,19.9L5.4,19l-1.2-0.5l-0.4,0.9c-0.2,0.4-0.1,0.8,0.3,1
	S4.8,20.3,5,19.9L5,19.9z"/>
<path class="st1" d="M3.9,23.1l-3.2-0.9l0.1-0.5L4,22.6l0.3-1.1l0.4,0.1L4,24.3l-0.4-0.1L3.9,23.1z"/>
<path class="st1" d="M0.3,24.6L4,25.1l-0.1,0.5l-3.7-0.5L0.3,24.6z"/>
<path class="st1" d="M3.3,27.3H2.1L2,29H1.6l0-1.7H0v-0.5l3.7,0.1l-0.1,2.4H3.3V27.3z"/>
<path class="st1" d="M0.1,30.4l3.7-0.4v0.5l-3.7,0.4L0.1,30.4z"/>
<path class="st1" d="M0.3,32.3l0.5-0.1L4,33.7l-0.5-2.1l0.4-0.1l0.6,2.6l-0.5,0.1l-3.2-1.5l0.5,2.1L0.9,35L0.3,32.3z"/>
<path class="st1" d="M1.3,36.3L4.8,35L5,35.5l-3.5,1.2L1.3,36.3z"/>
<path class="st1" d="M2,38.3l3.4-1.7l1.1,2.2L6.1,39l-0.9-1.8l-1,0.5L5,39.3l-0.4,0.2l-0.8-1.6l-1.2,0.6l0.9,1.8l-0.4,0.2L2,38.3z"
	/>
<path class="st1" d="M5.2,43.5L6,42l-0.6-0.8l-1.3,0.9l-0.3-0.4l3-2.2l0.9,1.2C8,41,8.1,41.3,8,41.7c0,0.3-0.2,0.5-0.5,0.7
	c-0.2,0.2-0.5,0.2-0.8,0.2c-0.2,0-0.3-0.1-0.5-0.2l-0.9,1.6L5.2,43.5z M7.4,41l-0.6-0.8l-1.1,0.8l0.6,0.8c0.3,0.4,0.6,0.5,1,0.2
	S7.7,41.3,7.4,41L7.4,41z"/>
<path class="st1" d="M9.6,43.5l-2.3,2.3L7,45.5l2.3-2.3l-0.8-0.8l0.3-0.3l1.9,1.9l-0.3,0.3L9.6,43.5z"/>
<path class="st1" d="M13.7,50.1c-0.4,0.1-0.7,0-1.1-0.1c-0.3-0.2-0.6-0.5-0.7-0.8c-0.1-1.1,0.5-2.2,1.5-2.7c0.8-0.2,1.5,0.3,1.8,1
	c0.1,0.3,0.1,0.6-0.1,0.9l-0.4-0.2c0.1-0.2,0.1-0.4,0.1-0.5c-0.1-0.2-0.2-0.5-0.5-0.6c-0.2-0.1-0.5-0.1-0.7-0.1
	c-0.4,0.2-0.7,0.5-0.9,0.9c-0.2,0.4-0.4,0.8-0.3,1.2c0.1,0.2,0.2,0.5,0.5,0.6c0.2,0.1,0.5,0.2,0.7,0.1c0.2-0.1,0.3-0.2,0.4-0.4
	l0.4,0.2C14.3,49.8,14,50,13.7,50.1z"/>
<path class="st1" d="M15.1,51.1l1.3-3.5l2.4,0.8l-0.1,0.4l-1.9-0.7l-0.4,1.1l1.7,0.6l-0.1,0.4l-1.7-0.6l-0.4,1.2l1.9,0.7l-0.1,0.4
	L15.1,51.1z"/>
<path class="st1" d="M21,52.7L20.6,51l-1-0.2l-0.3,1.5l-0.5-0.1l0.7-3.7l1.4,0.3c0.3,0,0.7,0.2,0.9,0.5c0.2,0.2,0.2,0.5,0.1,0.8
	c0,0.3-0.2,0.5-0.4,0.7C21.4,51,21.2,51,21.1,51l0.4,1.8L21,52.7z M20.9,49.3l-1-0.2l-0.2,1.3l1,0.2c0.4,0.1,0.8,0,0.9-0.5
	S21.3,49.4,20.9,49.3L20.9,49.3z"/>
<path class="st1" d="M24.2,49.6l-0.1,3.3h-0.5l0.1-3.3h-1.1v-0.4l2.7,0.1v0.4L24.2,49.6z"/>
<path class="st1" d="M26.5,52.8l-0.3-3.7h0.5l0.3,3.7H26.5z"/>
<path class="st1" d="M28.4,49.3l0.2,1.2l1.7-0.4l0.1,0.4l-1.7,0.4l0.3,1.6l-0.5,0.1L27.9,49l2.4-0.5l0.1,0.4L28.4,49.3z"/>
<path class="st1" d="M32.3,51.7l-1.2-3.5l0.5-0.2l1.2,3.5L32.3,51.7z"/>
<path class="st1" d="M34.3,51l-1.6-3.4l2.2-1.1l0.2,0.4l-1.8,0.9l0.5,1l1.6-0.8l0.2,0.4L34,49.2l0.6,1.2l1.8-0.9l0.2,0.4L34.3,51z
	 M33.3,47L33,46.8l0.5-1l0.4,0.2L33.3,47z"/>
<path class="st1" d="M41.7,45.5c-0.1,0.8-0.7,1.4-1.5,1.4c-1.1-0.3-1.9-1.2-2.1-2.3c0-0.4,0.2-0.7,0.5-1c0.3-0.3,0.6-0.4,1-0.4
	c0.3,0,0.6,0.2,0.9,0.4l-0.4,0.3c-0.1-0.1-0.3-0.2-0.5-0.2c-0.3,0-0.5,0.1-0.7,0.2c-0.2,0.2-0.3,0.4-0.3,0.7c0,0.4,0.3,0.8,0.6,1.1
	c0.2,0.3,0.6,0.6,1,0.7c0.3,0,0.5-0.1,0.7-0.2c0.2-0.2,0.3-0.4,0.3-0.7c0-0.2-0.1-0.4-0.2-0.5l0.4-0.3
	C41.6,44.9,41.7,45.2,41.7,45.5z"/>
<path class="st1" d="M43.1,44.5l-2.9-2.3l1.5-2l0.3,0.3L40.8,42l0.9,0.7l1.1-1.4l0.4,0.3L42.1,43l1,0.8l1.3-1.6l0.3,0.3L43.1,44.5z"
	/>
<path class="st1" d="M46.5,39.4l-1.7-0.1l-0.5,0.9l1.4,0.8l-0.2,0.4l-3.3-1.8l0.7-1.3c0.1-0.3,0.4-0.6,0.8-0.7
	c0.3-0.1,0.6,0,0.8,0.1c0.4,0.2,0.6,0.7,0.5,1.1l1.8,0.1L46.5,39.4z M43.3,38.5l-0.5,0.9L44,40l0.5-0.9c0.2-0.4,0.2-0.8-0.2-1
	S43.5,38.1,43.3,38.5L43.3,38.5z"/>
<path class="st1" d="M44.6,35.4l3.1,1.1L47.6,37l-3.1-1.1l-0.4,1l-0.4-0.1l0.9-2.5l0.4,0.1L44.6,35.4z"/>
<path class="st1" d="M48.4,34.2l-3.6-0.9l0.1-0.5l3.6,0.9L48.4,34.2z"/>
<path class="st1" d="M45.6,31.3l1.2,0.1l0.2-1.7l0.4,0l-0.2,1.7l1.6,0.2l0,0.5l-3.7-0.4l0.3-2.4h0.4L45.6,31.3z"/>
<path class="st1" d="M49.1,28.4h-3.7V28h3.7V28.4z"/>
<path class="st1" d="M48.5,24.1c0.6,0.5,0.7,1.4,0.3,2c-0.4,0.4-0.9,0.7-1.5,0.7c-0.5,0.1-1.1,0-1.6-0.3c-0.6-0.5-0.7-1.4-0.3-2
	c0.2-0.3,0.5-0.4,0.8-0.5l0.1,0.5c-0.2,0-0.4,0.1-0.5,0.3c-0.2,0.2-0.2,0.5-0.2,0.7c0,0.3,0.2,0.5,0.4,0.6c0.4,0.2,0.8,0.3,1.2,0.2
	c0.4,0,0.8-0.2,1.2-0.5c0.2-0.2,0.2-0.5,0.2-0.7c0-0.3-0.2-0.5-0.4-0.6c-0.2-0.1-0.4-0.2-0.6-0.1l-0.1-0.5
	C47.9,23.8,48.2,23.9,48.5,24.1z"/>
<path class="st1" d="M47.8,20.1L47,20.7l0.5,1.5h0.9l0.1,0.5l-4-0.2L44.4,22l3.2-2.4L47.8,20.1z M45,22.1l2,0.1L46.6,21L45,22.1z"/>
<path class="st1" d="M43.8,19.1l3-1.4l0.2,0.4l-3,1.4l0.5,1L44,20.8l-1.1-2.4l0.4-0.2L43.8,19.1z"/>
<path class="st1" d="M44.1,14c0.4,0.1,0.7,0.3,0.9,0.6c0.2,0.3,0.3,0.7,0.2,1.1c-0.1,0.5-0.5,1-1,1.3c-0.4,0.4-1,0.5-1.5,0.5
	c-0.4-0.1-0.7-0.3-0.9-0.6c-0.2-0.3-0.3-0.7-0.2-1.1C42,14.7,43,14,44.1,14L44.1,14z M42,15.8c0,0.3,0,0.5,0.1,0.7
	c0.1,0.2,0.4,0.4,0.6,0.4c0.9-0.1,1.6-0.6,2-1.4c0.1-0.2,0-0.5-0.1-0.7c-0.1-0.2-0.4-0.4-0.6-0.4C43.2,14.5,42.4,15,42,15.8L42,15.8
	z"/>
<path class="st0" d="M38.3,18.8c5.4,7.7,3.5,18.2-4.2,23.6c-7.7,5.4-18.2,3.5-23.6-4.2C5.2,30.5,7.1,20,14.8,14.6
	c5-3.5,11.5-4,17-1.4c0.4-0.7,0.8-1.4,1.3-2.1C23.5,6.4,12,10.3,7.2,19.8c-4.7,9.5-0.8,21.1,8.7,25.9c9.5,4.7,21.1,0.8,25.9-8.7
	c3.3-6.6,2.5-14.6-2-20.4L38.3,18.8z"/>
<path class="st1" d="M12.2,11.5l-0.6-1.2L12.8,4L9.3,6L8.7,4.9l5-2.7l0.6,1.2l-1.3,6.2l3.6-2l0.6,1.1L12.2,11.5z"/>
<path class="st1" d="M18,8.5l-1.4-7.3l5.2-1L22,1.4l-3.9,0.8l0.3,1.7l3.4-0.7l0.2,1.2l-3.4,0.7l0.4,2l3.9-0.8l0.2,1.2L18,8.5z"/>
<path class="st1" d="M30.2,8.1L28.8,8l-0.9-5.3l-2.2,4.9l-1.4-0.2L23.8,0h1.3l0.4,5.3l2.1-4.8l1.1,0.1l0.9,5.2l1.7-5l1.2,0.3
	L30.2,8.1z"/>
<path class="st1" d="M36,10.1c-0.8,0.2-1.6,0.2-2.3-0.2c-0.7-0.3-1.3-1-1.5-1.7C31.9,6,33,3.9,34.9,2.8c0.8-0.2,1.6-0.2,2.3,0.2
	c0.7,0.3,1.3,1,1.5,1.7C39,6.9,38,9.1,36,10.1z M37.5,5.1c-0.3-0.9-1.2-1.3-2.1-1c-1.2,0.9-2,2.3-1.9,3.8c0.3,0.9,1.2,1.3,2.1,1.1
	c0,0,0,0,0,0c0.7-0.4,1.2-1,1.4-1.7C37.4,6.7,37.6,5.9,37.5,5.1L37.5,5.1z"/>
<path class="st1" d="M62.2,22.4V8.8h2.5v13.6H62.2z"/>
<path class="st1" d="M73.9,22.4v-6.1c0-1.1-0.4-1.9-1.6-1.9c-1.4,0-2.1,1.5-2.1,2.8v5.2h-2.4V8.6h2.4v4.9c0.6-0.8,1.7-1.3,2.7-1.3
	c1.8-0.1,3.3,1.4,3.4,3.2c0,0.1,0,0.3,0,0.4v6.6H73.9z"/>
<path class="st1" d="M84.1,14.6c-1.4,0-2.5,1.1-2.6,2.5c0,0.1,0,0.2,0,0.4v5h-2.4v-10h2l0.2,1.5c0.5-1.1,1.6-1.7,2.8-1.6
	c0.3,0,0.5,0,0.8,0.1v2.3C84.7,14.6,84.4,14.5,84.1,14.6z"/>
<path class="st1" d="M95,18.2h-6.7c0,0.7,0.2,1.5,0.7,2c0.4,0.4,0.9,0.6,1.5,0.6c0.5,0.1,1.1-0.1,1.5-0.5c0.2-0.2,0.4-0.5,0.5-0.8
	h2.3c-0.1,0.7-0.4,1.3-0.8,1.8c-0.9,0.9-2.1,1.5-3.4,1.4c-1.2,0-2.3-0.4-3.1-1.2c-1-1.1-1.6-2.5-1.5-4c-0.1-1.5,0.5-2.9,1.4-4
	c0.8-0.8,2-1.3,3.2-1.3c1.4-0.1,2.8,0.6,3.6,1.8c0.7,1,1,2.3,0.9,3.5C95,17.5,95,18,95,18.2z M92,14.7c-0.4-0.4-0.9-0.6-1.5-0.6
	c-0.6,0-1.3,0.3-1.7,0.8c-0.3,0.4-0.5,1-0.5,1.5h4.3C92.6,15.8,92.4,15.2,92,14.7L92,14.7z"/>
<path class="st1" d="M110.1,21.2c-2.4,1.9-5.9,2-8.4,0.1c-0.9-0.8-1.4-2-1.5-3.2h2.5c0,0.6,0.3,1.2,0.7,1.7c0.6,0.5,1.5,0.8,2.3,0.7
	c0.9,0.1,1.7-0.2,2.4-0.7c0.4-0.3,0.6-0.8,0.5-1.3c0-1-0.8-1.5-1.6-1.6s-2.1-0.2-3-0.4c-2.1-0.2-3.6-2-3.4-4
	c0.1-0.9,0.5-1.8,1.2-2.4c1.1-1,2.5-1.5,4-1.4c1.4,0,2.7,0.4,3.8,1.3c0.8,0.7,1.3,1.8,1.4,2.9h-2.5c0-0.5-0.3-1-0.6-1.3
	c-0.6-0.5-1.3-0.7-2.1-0.7c-0.8-0.1-1.6,0.2-2.2,0.8c-0.3,0.3-0.5,0.7-0.5,1.1c0,0.8,0.6,1.4,1.4,1.5c0.9,0.1,2.1,0.2,3,0.4
	c2.1,0.1,3.7,1.8,3.7,3.9C111.3,19.4,110.9,20.4,110.1,21.2z"/>
<path class="st1" d="M120.8,21.8c-0.7,0.5-1.6,0.8-2.4,0.8c-1,0.1-1.9-0.3-2.6-1v4.5h-2.4V12.4h2.1l0.1,1.1c0.7-0.9,1.7-1.4,2.8-1.3
	c0.9,0,1.7,0.3,2.4,0.9c1.2,1.1,1.9,2.7,1.8,4.4C122.7,19.1,122,20.7,120.8,21.8z M119.5,15c-0.4-0.5-1-0.8-1.6-0.8
	c-1.9,0-2.3,1.8-2.3,3.2s0.4,3.2,2.3,3.2c0.6,0,1.2-0.3,1.6-0.8c0.5-0.7,0.7-1.6,0.6-2.4C120.2,16.6,120,15.7,119.5,15z"/>
<path class="st1" d="M133.3,18.2h-6.7c0,0.7,0.2,1.5,0.7,2c0.4,0.4,0.9,0.6,1.5,0.6c0.9,0.1,1.7-0.4,1.9-1.3h2.3
	c-0.1,0.7-0.4,1.3-0.9,1.8c-0.9,0.9-2.1,1.5-3.4,1.4c-1.2,0-2.3-0.4-3.1-1.2c-1-1.1-1.6-2.5-1.5-4c-0.1-1.5,0.5-2.9,1.4-4
	c0.8-0.8,2-1.3,3.2-1.3c1.4-0.1,2.8,0.6,3.6,1.8c0.7,1,1,2.2,0.9,3.5C133.3,17.5,133.3,18,133.3,18.2z M130.3,14.7
	c-0.4-0.4-1-0.6-1.5-0.6c-0.6,0-1.3,0.3-1.7,0.8c-0.3,0.4-0.5,1-0.5,1.5h4.3C130.9,15.8,130.7,15.2,130.3,14.7z"/>
<path class="st1" d="M141.7,22.4v-6.1c0-1.2-0.4-1.9-1.6-1.9c-0.8,0-1.5,0.5-1.7,1.3c-0.3,0.9-0.4,1.8-0.3,2.7v4.1h-2.4v-10h2
	l0.2,1.3c1.1-1.6,3.2-2,4.8-1c1,0.7,1.6,1.8,1.5,3v6.6L141.7,22.4z"/>
<path class="st1" d="M153.4,22.4l-0.1-1.1c-0.7,0.9-1.7,1.4-2.8,1.3c-0.9,0-1.7-0.3-2.4-0.8c-1.2-1.1-1.9-2.7-1.8-4.4
	c-0.1-1.7,0.5-3.3,1.8-4.5c0.7-0.5,1.6-0.8,2.4-0.8c1-0.1,1.9,0.3,2.6,0.9V8.6h2.4v13.8H153.4z M150.9,14.2c-0.6,0-1.2,0.3-1.6,0.8
	c-0.5,0.7-0.7,1.6-0.6,2.4c-0.1,0.9,0.2,1.7,0.6,2.4c0.4,0.5,1,0.8,1.6,0.8c1.9,0,2.3-1.8,2.3-3.2S152.8,14.2,150.9,14.2z"/>
<path class="st1" d="M166.8,18.2h-6.7c0,0.7,0.2,1.5,0.7,2c0.4,0.4,0.9,0.6,1.5,0.6c0.9,0.1,1.7-0.4,1.9-1.3h2.3
	c-0.1,0.7-0.4,1.3-0.9,1.8c-0.9,0.9-2.1,1.5-3.4,1.4c-1.2,0-2.3-0.4-3.1-1.2c-1-1.1-1.6-2.5-1.5-4c-0.1-1.5,0.5-2.9,1.4-4
	c0.8-0.8,2-1.3,3.2-1.3c1.4-0.1,2.8,0.6,3.6,1.8c0.7,1,1,2.2,0.9,3.5C166.8,17.5,166.8,18,166.8,18.2z M163.8,14.7
	c-0.9-0.8-2.3-0.8-3.1,0.1c0,0,0,0,0,0c-0.3,0.4-0.5,1-0.5,1.5h4.3C164.5,15.8,164.2,15.2,163.8,14.7L163.8,14.7z"/>
<path class="st1" d="M62.1,34.1v-2.5h2.6v2.5H62.1z M62.2,45.4v-10h2.4v10H62.2z"/>
<path class="st1" d="M73.7,45.4v-6.1c0-1.2-0.4-1.9-1.6-1.9c-0.8,0-1.5,0.5-1.7,1.3c-0.3,0.9-0.4,1.8-0.3,2.7v4.1h-2.4v-10h2
	l0.2,1.3c0.6-1,1.8-1.6,2.9-1.5c1.8-0.1,3.3,1.3,3.4,3.2c0,0.1,0,0.3,0,0.4v6.6L73.7,45.4z"/>
<path class="st1" d="M86.9,50.1c-1.2,0.1-2.5-0.2-3.5-0.8c-0.8-0.5-1.2-1.3-1.2-2.2c0-0.8,0.4-1.6,1.2-2c-0.6-0.4-1-1-1-1.7
	c0-0.8,0.4-1.6,1.2-2c-0.7-0.6-1-1.5-1-2.5c0-2.4,1.8-3.7,4.1-3.7c0.8,0,1.6,0.2,2.3,0.6c0.4-0.8,1.1-1.3,2-1.2c0.2,0,0.4,0,0.6,0
	v1.9h-0.2c-0.6,0-1.1,0.1-1.2,0.6c0.3,0.5,0.5,1.2,0.5,1.8c0,2.3-1.9,3.6-4.1,3.6c-0.5,0-1.1-0.1-1.6-0.3c-0.3,0.1-0.5,0.4-0.5,0.7
	c0,0.6,0.6,0.7,1.1,0.7h1.7c1.1-0.1,2.2,0.1,3.2,0.7c0.8,0.5,1.2,1.4,1.2,2.4C91.7,49.3,89.1,50.1,86.9,50.1z M87.1,45.6h-1.9
	c-0.6,0.1-0.9,0.7-0.9,1.2c0,1.3,1.6,1.4,2.5,1.4s2.6-0.1,2.6-1.4S88,45.6,87.1,45.6z M86.6,37c-1,0-1.9,0.7-1.9,1.8
	c0,1,0.7,1.9,1.8,1.9c1,0,1.9-0.7,1.9-1.8c0,0,0,0,0-0.1c0.1-0.9-0.6-1.8-1.6-1.9C86.8,37,86.7,37,86.6,37z"/>
<path class="st1" d="M99.7,45.4l-0.2-1.3c-0.6,1-1.7,1.6-2.9,1.6c-1.8,0.1-3.4-1.3-3.5-3.1c0-0.1,0-0.3,0-0.4v-6.6h2.4v6.1
	c0,1.2,0.5,1.9,1.7,1.9c0.5,0,0.9-0.2,1.2-0.5c0.5-0.6,0.8-1.4,0.7-2.2v-5.3h2.4v10L99.7,45.4z"/>
<path class="st1" d="M108.3,45.5c-1.5,0.2-2.9-0.9-3-2.4c0-0.2,0-0.4,0-0.6v-5.1h-1.8v-2h1.8v-2.5l2.4-0.6v3.1h2.5v2h-2.5v4.9
	c0,0.8,0.3,1.1,1.1,1.1c0.5,0,1,0,1.5-0.1v2C109.7,45.4,109,45.5,108.3,45.5z"/>
<path class="st1" d="M120.6,41.2h-6.7c0,0.7,0.2,1.5,0.7,2c0.4,0.4,0.9,0.6,1.5,0.6c0.5,0.1,1.1-0.1,1.5-0.5
	c0.2-0.2,0.4-0.5,0.5-0.8h2.3c-0.1,0.7-0.4,1.3-0.9,1.8c-0.9,0.9-2.1,1.5-3.4,1.4c-1.2,0-2.3-0.4-3.1-1.2c-1-1.1-1.6-2.5-1.5-4
	c-0.1-1.5,0.4-2.9,1.4-4c0.8-0.8,2-1.3,3.2-1.3c1.4-0.1,2.8,0.6,3.6,1.8c0.7,1,1,2.2,0.9,3.5C120.6,40.5,120.6,41,120.6,41.2z
	 M117.6,37.7c-0.9-0.8-2.4-0.7-3.2,0.2c0,0,0,0,0,0c-0.3,0.4-0.5,1-0.5,1.6h4.3C118.2,38.8,118,38.2,117.6,37.7L117.6,37.7z"/>
<path class="st1" d="M128.9,45.4v-6.1c0-1.2-0.4-1.9-1.6-1.9c-0.8,0-1.5,0.5-1.7,1.3c-0.3,0.9-0.4,1.8-0.3,2.7v4.1h-2.4v-10h2
	l0.2,1.3c1.1-1.6,3.2-2,4.8-1c1,0.7,1.6,1.8,1.5,3v6.6L128.9,45.4z"/>
<path class="st1" d="M146.3,45.4v-5.9h-5.6v5.9h-2.4V31.8h2.5v5.3h5.5v-5.3h2.5v13.6L146.3,45.4z"/>
<path class="st1" d="M159.4,45.6c-0.9,0.1-1.6-0.6-1.7-1.4c-0.7,1-1.8,1.5-3,1.5c-2.4,0-3.6-1.5-3.6-3.1c0-1.9,1.5-3,3.4-3.1
	l2.9-0.2v-0.6c0-0.9-0.3-1.6-1.7-1.6c-1.1,0-1.8,0.5-1.8,1.4h-2.3c0.1-2.2,1.9-3.2,4.1-3.2c1.7,0,3.2,0.5,3.7,2
	c0.2,0.6,0.3,1.3,0.3,2v3.7c0,0.5,0.1,0.6,0.5,0.6c0.1,0,0.2,0,0.3,0v1.8C160.2,45.5,159.8,45.6,159.4,45.6z M152.7,33.9v-2.3h2.2
	v2.3H152.7z M157.4,41l-2.5,0.2c-0.8,0-1.4,0.6-1.4,1.3c0,0.7,0.6,1.3,1.4,1.3c0,0,0,0,0.1,0c1.2,0.2,2.4-0.7,2.5-1.9
	c0-0.1,0-0.2,0-0.4V41z M156.6,33.9v-2.3h2.2v2.3H156.6z"/>
<path class="st1" d="M168.8,45.4v-6.1c0-1.2-0.4-1.9-1.6-1.9c-0.8,0-1.5,0.5-1.7,1.3c-0.3,0.9-0.4,1.8-0.3,2.7v4.1h-2.4v-10h2
	l0.2,1.3c1.1-1.6,3.2-2,4.8-1c1,0.7,1.6,1.8,1.5,3v6.6L168.8,45.4z"/>
<path class="st1" d="M180.4,45.4l-0.1-1.1c-0.7,0.9-1.7,1.4-2.8,1.3c-0.9,0-1.7-0.3-2.4-0.9c-1.2-1.1-1.9-2.7-1.8-4.4
	c-0.1-1.7,0.5-3.3,1.8-4.4c0.7-0.5,1.6-0.8,2.4-0.8c1-0.1,1.9,0.3,2.6,0.9v-4.6h2.4v13.8L180.4,45.4z M178,37.2
	c-0.6,0-1.2,0.3-1.6,0.8c-0.5,0.7-0.7,1.6-0.6,2.4c-0.1,0.9,0.2,1.7,0.6,2.4c0.4,0.5,1,0.8,1.6,0.8c1.9,0,2.3-1.8,2.3-3.2
	S179.9,37.2,178,37.2L178,37.2z"/>
<path class="st1" d="M193.9,41.2h-6.6c0,0.7,0.2,1.5,0.7,2c0.4,0.4,0.9,0.6,1.5,0.6c0.5,0.1,1.1-0.1,1.5-0.5
	c0.2-0.2,0.4-0.5,0.5-0.8h2.3c-0.1,0.7-0.4,1.3-0.9,1.8c-1.8,1.8-4.6,1.9-6.5,0.2c-1-1.1-1.6-2.5-1.5-4c-0.1-1.5,0.4-2.9,1.4-4
	c0.8-0.8,2-1.3,3.2-1.3c1.4-0.1,2.8,0.6,3.6,1.8c0.7,1,1,2.2,0.9,3.5C194,40.5,193.9,41,193.9,41.2z M190.9,37.7
	c-0.4-0.4-1-0.6-1.5-0.6c-0.6,0-1.3,0.3-1.7,0.8c-0.3,0.4-0.5,1-0.5,1.6h4.3C191.5,38.8,191.3,38.2,190.9,37.7L190.9,37.7z"/>
<path class="st1" d="M202.3,45.4v-6.1c0-1.2-0.4-1.9-1.6-1.9c-0.8,0-1.5,0.5-1.7,1.3c-0.3,0.9-0.4,1.8-0.3,2.7v4.1h-2.4v-10h2
	l0.2,1.3c1.1-1.6,3.2-2,4.8-1c1,0.7,1.6,1.8,1.5,3v6.6L202.3,45.4z"/>
<path class="st1" d="M207.4,45.4v-3h2.9v3H207.4z"/>
<polyline class="st2" points="0,53 210.6,53 210.6,0 0,0 "/>
</svg>
